{"glyphs":{"0":{"ha":906,"x_min":0,"x_max":0,"o":"m 973 412 l 1082 486 l 951 490 l 947 490 b 920 489 939 490 929 489 b 920 547 922 515 921 536 l 920 549 b 902 620 919 571 910 599 l 889 645 l 1033 636 l 849 730 b 765 762 823 744 793 754 l 860 887 l 710 823 l 701 818 b 611 778 649 796 624 785 b 487 757 575 777 535 771 b 406 739 465 753 436 747 b 215 696 328 723 248 706 l 26 639 l 217 613 l 193 594 b 79 475 151 557 112 517 b -43 194 9 385 -34 287 b -47 74 -48 165 -49 119 b -26 -51 -45 34 -40 -18 l 41 -203 l 56 -47 b 101 -76 69 -58 85 -67 b 250 -110 146 -98 198 -110 l 251 -109 b 441 -69 311 -109 375 -95 b 504 -41 463 -61 484 -51 l 470 -152 l 597 -16 b 666 64 618 5 640 32 b 778 184 700 94 761 161 b 880 348 823 240 857 295 b 958 403 903 365 937 388 b 973 412 965 406 970 410 z m 613 455 b 546 345 599 420 576 381 b 408 220 506 297 457 253 b 287 172 362 190 317 172 l 283 172 b 275 175 281 173 277 173 b 270 200 272 178 269 186 b 295 277 271 222 280 248 l 310 301 l 362 232 l 379 329 b 396 402 382 349 391 382 b 514 485 434 436 473 465 b 629 519 556 507 596 519 b 613 455 628 500 623 479 z m 370 -49 l 46 275 l 58 298 l 397 -41 b 370 -49 388 -44 378 -46 z m 332 -58 l 32 241 l 43 267 l 362 -50 b 332 -58 353 -53 342 -56 z m 293 -64 l 20 208 b 30 236 22 217 26 226 l 325 -59 b 293 -64 314 -61 303 -63 z m 250 -67 l 249 -67 l 69 111 b 77 124 72 116 74 121 b 65 115 73 122 69 119 l 10 172 b 18 202 12 182 15 191 l 286 -65 b 250 -67 274 -66 262 -67 z m 199 -63 l 59 77 b 67 107 61 88 64 98 l 243 -67 b 199 -63 228 -66 213 -65 z m 274 129 l 431 -28 l 404 -37 l 219 146 b 274 129 234 137 252 130 z m 66 381 l 232 214 b 233 178 232 202 233 188 l 53 359 z m 83 409 l 238 253 l 234 238 b 232 226 233 235 232 232 l 69 388 z m 68 317 b 58 308 68 322 64 316 l 37 328 l 49 351 l 228 174 b 162 214 208 178 177 198 b 175 190 166 207 170 199 l 61 304 z m 438 -25 l 283 129 l 287 129 b 315 131 296 129 306 129 l 462 -14 b 438 -25 454 -18 447 -21 z m 103 436 l 252 285 b 241 263 248 278 245 270 l 89 417 b 103 436 93 423 97 429 z m 563 701 l 819 444 b 803 440 814 442 809 441 l 725 519 b 705 538 719 527 712 533 l 550 693 z m 469 -11 l 325 134 b 350 142 333 136 342 139 l 491 0 b 469 -11 484 -3 476 -6 z m 122 460 l 268 315 l 256 295 l 108 442 z m 500 4 l 359 145 l 382 156 l 520 16 z m 143 486 l 286 343 l 274 324 l 128 468 z m 132 -44 l 51 37 b 58 72 52 48 54 60 l 192 -62 b 132 -44 171 -58 151 -51 z m 530 22 l 529 21 l 391 160 l 411 172 l 543 41 b 530 22 537 31 533 25 z m 165 509 l 306 369 b 292 351 301 363 296 358 l 151 494 z m 618 72 l 580 109 l 584 127 b 575 114 581 125 578 121 l 474 215 b 491 229 481 219 486 223 l 631 89 z m 639 96 l 500 236 l 515 249 l 654 110 z m 662 120 l 524 257 l 538 272 l 676 134 z m 188 531 l 311 408 l 309 380 l 173 517 z m 236 574 l 366 442 l 361 420 l 221 561 z m 560 295 l 699 157 l 686 143 l 547 281 z m 547 50 l 421 177 l 439 189 l 557 72 z m 707 167 l 568 304 l 580 319 l 720 181 z m 775 516 l 580 709 l 593 717 l 775 535 z m 729 191 l 590 331 l 600 345 l 740 205 b 729 191 738 202 734 197 z m 750 217 l 609 357 l 619 372 l 761 231 z m 736 340 l 743 340 l 797 284 l 788 270 l 643 416 l 651 432 l 740 341 b 736 340 739 341 737 340 z m 769 244 l 627 386 l 636 401 l 780 257 b 769 244 777 252 772 248 z m 561 82 l 449 196 l 466 208 l 571 104 z m 427 700 l 574 553 b 557 549 568 552 562 551 l 409 696 b 427 700 416 698 422 699 z m 356 637 l 478 514 l 462 504 l 417 549 l 418 550 l 417 549 l 331 635 z m 251 585 b 262 593 254 589 259 591 l 377 478 l 377 476 l 371 457 l 247 582 z m 212 552 l 315 449 l 312 423 l 197 540 z m 464 708 l 612 561 l 593 558 l 447 705 z m 670 503 l 804 368 l 791 361 l 668 484 b 670 503 669 490 670 497 z m 287 613 l 391 510 b 382 491 388 504 385 498 l 272 603 z m 397 639 l 507 530 l 491 521 l 376 638 b 397 639 384 638 390 639 z m 315 631 l 407 538 b 397 522 404 534 401 529 l 299 622 b 315 631 303 625 309 627 z m 533 684 l 659 560 b 637 562 652 561 644 562 l 520 676 z m 439 642 l 538 543 l 522 536 l 418 640 b 439 642 426 641 435 642 z m 757 347 l 657 449 b 662 465 659 454 661 459 l 774 355 z m 767 429 l 672 526 l 672 528 b 694 524 678 529 686 527 l 783 435 b 767 429 777 433 770 432 z m 48 88 l 2 134 b 9 167 3 144 5 155 l 63 112 b 48 88 58 106 52 97 z m 36 52 l -3 93 b 1 128 -2 104 -1 115 l 46 83 b 36 52 42 74 40 63 z m 784 569 l 876 479 l 873 463 l 783 552 b 784 569 784 559 784 564 z m 652 748 l 746 653 b 731 652 741 653 736 652 l 640 743 b 652 748 643 745 647 746 z m 781 619 l 807 592 b 824 575 812 585 818 578 l 878 521 l 878 504 l 783 599 b 781 619 782 607 781 612 z m 622 732 l 704 650 b 688 649 699 650 693 649 l 610 726 b 622 732 613 729 618 730 z m 28 15 l -2 46 b -3 56 -3 49 -3 52 b -3 88 -3 64 -4 76 l 35 49 b 28 15 32 38 30 27 z m 781 529 l 856 454 l 841 450 l 778 513 z m 715 640 l 766 589 l 771 565 l 692 644 z m 715 730 l 775 670 b 765 662 771 668 768 666 l 694 734 b 715 730 701 733 707 732 z m 318 447 l 359 406 b 354 382 357 397 355 390 l 321 415 b 318 447 319 425 318 436 z m 791 428 l 837 382 l 822 375 l 770 427 b 791 428 776 427 783 427 z m 410 647 l 371 687 b 390 691 377 689 384 690 l 436 645 b 410 647 429 646 421 647 z m 22 -26 l 5 -9 b -1 40 2 7 0 26 l 27 11 b 22 -26 25 -1 24 -13 z m 598 45 l 571 73 l 577 96 l 611 63 z m 51 14 b 51 33 50 17 50 24 l 124 -40 b 51 14 96 -27 71 -9 z m 434 487 l 404 517 l 411 535 l 449 497 z m 784 344 l 815 313 l 807 299 l 764 341 z m 363 651 l 333 679 b 342 682 337 679 339 681 l 354 684 l 388 649 z m 854 390 l 814 431 b 831 432 819 431 826 432 l 866 396 z m 346 343 l 329 360 l 323 396 l 350 369 z m 578 18 l 560 36 l 567 61 l 592 36 z m 40 280 l 25 296 b 35 322 28 304 31 313 l 54 302 z m 498 716 b 501 717 499 716 500 716 l 528 690 l 517 679 l 484 713 z m 840 606 l 872 573 b 876 551 874 565 876 558 l 839 590 b 840 606 839 594 840 599 z m 323 652 l 315 652 l 294 672 l 315 676 l 340 651 b 323 652 332 652 326 652 z m 776 715 l 806 684 b 795 683 800 684 797 684 b 793 682 794 682 793 682 l 754 721 z m 873 437 l 897 411 l 885 405 l 856 435 b 873 437 861 435 866 436 z m 407 467 l 392 483 b 399 502 393 489 396 496 l 422 479 b 407 467 417 475 412 471 z m 20 -69 l 17 -66 b 5 -12 13 -53 10 -33 l 22 -28 b 20 -69 21 -42 20 -57 z m 269 651 l 253 667 l 277 670 l 295 652 b 269 651 286 652 278 651 z m 30 266 l 21 253 l 13 262 b 21 288 15 270 18 280 l 36 275 z m 559 -7 l 549 1 l 557 26 l 573 11 z m 537 726 l 552 710 l 542 702 l 521 722 b 537 726 527 724 532 725 z m 912 442 l 927 426 b 916 421 924 424 920 423 l 896 440 b 912 442 902 440 907 441 z m 224 650 l 214 660 l 237 663 l 250 651 b 224 650 241 651 233 650 z m 824 349 l 830 343 l 823 328 l 804 347 b 824 349 812 348 819 349 z m 686 741 l 670 759 l 681 764 l 694 750 b 686 741 691 747 688 745 z m 844 691 l 857 679 b 840 682 851 679 845 681 l 823 699 z m 343 304 b 333 341 342 306 338 321 l 344 329 b 343 304 343 319 343 311 z m 710 780 l 719 771 l 710 764 l 701 775 z m 952 449 l 957 442 l 946 436 l 936 446 z m 178 650 l 176 652 l 198 657 l 205 650 z m 6 236 l 11 254 l 18 248 b 6 236 11 237 5 232 z m 540 -31 b 546 -7 540 -31 542 -21 l 553 -15 z m 388 467 l 396 458 l 386 450 b 388 467 386 453 387 459 z m 578 732 l 578 731 l 567 722 l 560 730 z m 850 624 l 830 643 l 830 645 b 850 624 838 642 844 635 z m 735 785 l 731 790 l 740 795 l 744 792 z m 18 -69 l 20 -72 l 20 -75 b 18 -69 19 -73 18 -72 z "},"1":{"ha":653,"x_min":0,"x_max":0,"o":"m 519 233 b 525 285 519 239 520 261 b 543 346 532 326 541 342 l 563 381 l 674 561 b 735 657 708 616 719 632 l 771 715 l 900 915 l 710 772 l 677 745 b 646 718 667 735 657 725 b 651 730 649 722 650 725 l 691 844 l 588 779 b 321 651 522 737 417 690 b 123 571 292 639 216 605 l 218 552 l 204 542 b 161 511 184 526 165 513 l 79 456 l 153 438 l 135 425 l 100 402 l -106 248 l 139 327 b 232 360 167 335 199 347 l 186 286 b 101 139 152 230 124 181 b 49 19 73 85 59 45 l -9 -130 l 122 -20 l 140 0 l 135 -71 l 213 -12 b 217 -6 215 -11 215 -9 l 207 -58 b 198 -131 199 -107 197 -121 l 208 -297 l 279 -146 b 440 170 291 -121 384 67 l 452 190 l 534 74 z m 325 42 l 275 92 b 278 110 277 101 279 109 b 266 100 276 111 271 107 l 209 158 l 209 161 l 207 159 l 177 190 l 191 214 l 338 67 z m 341 74 l 194 219 l 207 241 l 353 96 b 341 74 349 89 344 81 z m 356 103 l 212 248 l 225 270 l 369 126 z m 369 625 l 551 442 l 542 426 l 350 618 z m 372 132 l 230 277 l 243 298 l 385 156 z m 389 163 l 247 304 l 260 326 l 401 185 z m 487 249 l 326 410 l 344 424 l 488 279 b 487 249 488 267 487 260 z m 405 192 l 265 333 l 278 354 l 417 214 z m 434 243 l 422 222 l 283 362 l 296 380 l 434 244 l 428 260 b 433 252 429 256 432 254 b 434 243 434 248 435 245 z m 382 631 l 401 639 l 568 470 l 559 454 z m 415 645 l 433 653 l 585 498 l 577 484 z m 489 294 l 353 431 l 370 442 l 493 321 b 489 294 491 312 489 302 z m 431 260 l 301 389 b 317 404 303 392 309 397 l 415 308 b 431 260 413 298 425 276 z m 495 333 l 379 450 l 396 462 l 501 357 b 495 333 498 350 497 342 z m 397 478 l 313 563 b 327 572 321 567 327 571 b 304 571 327 575 316 573 l 284 591 l 304 599 l 418 485 z m 317 605 b 337 612 324 607 330 609 l 449 499 l 431 491 z m 423 480 l 517 386 l 506 368 l 406 469 z m 365 464 l 282 547 l 300 557 l 386 472 z m 333 450 l 254 528 l 266 537 l 271 541 l 354 458 z m 450 498 l 534 415 l 527 403 l 524 397 l 434 487 z m 300 436 l 274 463 l 283 469 b 269 466 284 470 279 469 l 228 509 l 245 521 l 322 444 z m 463 667 l 541 589 b 535 572 537 580 534 574 l 447 659 b 463 667 452 662 457 665 z m 244 77 l 198 124 l 207 152 l 262 96 b 244 77 255 89 249 81 z m 310 12 l 264 57 b 272 87 264 63 268 75 l 322 36 b 310 12 317 28 314 19 z m 239 74 b 216 59 233 73 224 67 l 185 90 l 196 119 l 240 74 z m 294 -18 l 263 12 b 266 47 265 27 267 40 l 307 6 z m 548 581 l 604 527 l 594 512 l 536 571 b 548 581 537 571 542 575 z m 569 605 l 621 556 l 611 540 l 559 593 z m 235 455 l 200 490 l 219 503 l 259 463 b 235 455 251 460 244 457 z m 189 131 l 160 160 l 174 184 l 204 154 b 189 131 201 149 196 140 z m 172 104 l 144 130 b 158 156 149 139 153 147 l 187 127 z m 591 630 l 638 583 l 629 569 l 580 618 b 591 630 584 622 588 626 z m 488 207 b 419 302 482 215 434 277 l 487 235 l 487 246 b 488 207 487 228 487 210 z m 279 -50 l 256 -28 l 262 5 l 292 -22 l 288 -30 z m 154 77 l 153 76 l 128 100 b 142 126 132 109 137 118 l 169 99 z m 517 659 l 556 619 l 548 605 l 505 646 z m 613 655 b 623 656 616 655 620 655 b 613 653 620 655 616 653 l 655 611 b 647 598 652 607 650 603 l 601 643 b 613 655 608 651 612 655 z m 194 34 l 178 50 b 179 63 179 54 179 59 b 184 84 179 66 181 75 l 213 56 b 194 34 206 49 200 42 z m 131 52 l 113 69 l 115 73 b 126 96 119 80 122 89 l 150 73 z m 537 683 l 572 650 l 564 635 l 528 671 z m 204 453 b 182 463 201 458 191 462 l 173 472 l 192 485 l 224 453 b 204 453 214 451 206 450 z m 268 422 l 246 446 l 265 457 l 290 432 z m 264 -81 l 250 -66 b 255 -36 252 -56 253 -45 l 255 -33 l 277 -54 z m 235 409 l 216 427 l 236 439 l 259 419 l 240 411 b 235 409 238 410 236 409 z m 645 667 l 673 638 l 665 626 l 630 659 z m 109 28 l 97 38 l 112 65 l 128 49 z m 203 395 l 188 410 b 189 411 188 410 188 411 b 208 423 191 413 199 417 l 225 405 z m 560 707 l 582 684 b 576 669 579 678 577 673 l 549 696 z m 495 682 l 511 666 b 502 650 507 660 504 655 l 479 674 b 495 682 484 676 489 678 z m 250 -113 l 241 -105 l 249 -72 l 263 -85 b 250 -113 259 -95 253 -105 z m 671 686 l 690 667 l 690 666 b 683 654 688 661 686 657 l 660 677 z m 170 381 l 159 392 l 179 405 l 193 392 b 170 381 186 389 178 385 z m 88 2 l 81 9 l 96 36 l 107 25 b 88 2 100 17 94 9 z m 281 567 b 257 572 277 572 267 572 l 251 578 l 271 587 l 291 567 b 281 567 285 566 281 566 z m 576 723 b 583 728 578 724 581 725 l 598 714 b 591 701 595 709 593 705 l 572 719 z m 173 9 l 170 12 l 177 45 l 191 31 z m 137 369 l 130 376 b 152 388 138 380 145 384 l 161 378 z m 701 682 l 685 698 l 696 707 l 709 693 z m 237 -146 l 234 -143 b 240 -108 236 -135 238 -123 l 249 -116 b 237 -146 244 -128 240 -139 z m 719 729 l 729 718 b 721 708 726 715 724 712 l 709 719 z m 104 356 l 100 359 l 123 372 l 129 365 b 104 356 120 361 111 358 z m 525 697 l 528 692 l 519 679 l 510 689 z m 609 748 l 614 741 l 608 730 l 598 738 z m 72 -15 b 80 6 73 -10 76 -2 l 87 1 b 72 -15 80 -6 74 -12 z m 743 750 l 748 746 l 740 735 l 734 741 b 743 750 737 745 739 748 z m 83 348 l 94 355 l 96 353 z m 531 700 b 529 694 532 700 531 698 b 526 697 528 696 527 697 z m 233 -155 b 234 -146 233 -154 233 -151 l 236 -149 b 233 -155 235 -151 233 -153 z m 169 4 l 169 7 l 171 6 z m 162 466 b 165 467 162 466 163 466 l 166 465 b 162 466 163 465 162 466 z m 761 765 b 760 763 760 764 760 763 l 759 763 z "},"2":{"ha":882,"x_min":0,"x_max":0,"o":"m 724 31 l 863 81 l 810 92 b 871 114 847 104 861 108 l 1004 193 l 849 193 b 671 192 817 193 741 193 b 516 181 646 192 551 183 l 623 219 b 715 315 629 221 643 234 b 803 419 752 358 790 401 b 856 495 825 444 843 470 b 882 578 871 524 879 551 b 880 626 884 595 884 611 l 1053 611 l 903 705 b 821 748 876 722 848 736 b 703 779 781 764 741 775 b 632 787 676 784 653 787 b 546 784 601 787 575 787 b 582 938 549 790 551 795 l 481 840 b 372 737 439 799 386 749 b 263 683 333 722 296 704 l 97 580 l 217 595 b 215 593 216 594 216 593 l 213 591 l 212 589 b 191 567 207 582 200 576 b 147 522 179 557 166 542 l 54 423 l 147 437 b 137 422 143 432 139 426 l 54 294 l 196 363 b 384 463 237 384 309 427 b 512 513 449 493 488 506 b 452 462 497 499 476 481 b 294 349 411 431 358 392 b 18 181 196 285 93 224 b -67 129 -16 160 -47 142 l -82 120 b -93 92 -90 96 -92 94 b -118 51 -101 83 -114 71 l -134 4 b -179 -48 -154 -15 -167 -36 l -267 -129 l -125 -109 b -112 -101 -121 -108 -116 -105 b -52 -82 -97 -94 -76 -82 l -50 -82 l -145 -176 l 7 -138 b 259 -93 62 -124 156 -107 l 303 -114 b 365 -146 326 -125 350 -138 l 536 -244 l 421 -84 b 413 -75 420 -82 418 -79 b 589 -52 486 -66 544 -58 b 686 -40 631 -46 663 -42 l 845 -24 z m 410 -127 l 369 -104 l 91 173 b 115 188 99 178 107 184 l 304 0 b 410 -127 334 -37 405 -120 z m 473 -24 l 206 244 b 229 257 214 248 221 252 l 355 130 l 346 125 b 359 127 350 125 355 126 l 506 -20 z m 433 -29 l 177 225 l 200 239 l 466 -25 b 433 -29 455 -27 444 -28 z m 268 -50 l 62 156 l 88 171 l 355 -96 b 268 -50 328 -81 296 -64 z m 391 -34 l 149 208 l 172 222 l 425 -30 b 391 -34 415 -32 403 -33 z m 292 19 l 120 190 l 144 205 l 385 -35 b 377 -36 381 -35 379 -35 b 292 19 360 -38 332 -15 z m 214 -25 b 233 -54 204 -26 243 -53 l 228 -54 l 60 112 b 78 122 69 116 77 121 b 56 116 79 123 69 121 l 33 140 b 59 154 41 144 50 149 l 260 -46 b 214 -25 237 -34 219 -26 z m 187 -61 l 150 -24 b 156 -21 152 -22 154 -21 l 147 -21 l 28 98 l 57 111 l 223 -56 b 187 -61 210 -57 199 -59 z m 490 721 l 768 443 b 759 431 765 440 762 435 l 479 708 z m 520 737 l 788 468 l 779 456 l 502 733 z m -28 -43 b -52 -40 -36 -41 -45 -40 b -142 -69 -95 -40 -130 -64 b -74 -1 -135 -57 -111 -30 b -33 20 -66 5 -49 13 l 25 -37 b -28 -43 -3 -41 -26 -43 z m 560 743 l 807 495 b 798 482 804 490 801 486 l 541 740 z m 486 14 b 516 15 486 14 500 14 l 546 -14 l 515 -19 l 368 128 l 399 132 l 509 22 b 486 14 496 19 486 16 z m 107 -27 l -4 84 b 26 97 4 88 15 92 l 144 -21 z m 65 -32 l -2 35 b 4 42 2 37 4 40 b -11 45 4 43 -1 44 l -35 69 b -21 77 -30 72 -27 75 b -5 83 -17 78 -12 81 l 104 -27 b 65 -32 92 -28 78 -30 z m 603 745 l 823 525 l 816 511 l 583 744 b 603 745 590 744 596 745 z m 256 275 l 384 147 l 361 135 l 234 261 b 256 275 241 266 249 269 z m 284 293 l 411 165 l 390 152 l 263 279 z m 311 310 l 439 182 l 419 169 l 291 297 z m 339 328 l 468 200 l 448 187 l 318 315 z m 365 346 l 495 217 l 475 205 l 346 333 z m 419 384 l 549 254 b 546 252 548 253 547 252 l 531 241 l 402 371 z m 392 364 l 521 235 b 503 223 516 231 510 228 l 374 353 b 392 364 379 357 387 360 z m 632 745 b 649 744 638 745 643 745 l 712 681 l 706 681 b 714 679 708 679 710 679 l 835 558 b 830 543 834 552 832 548 l 628 745 z m 440 137 l 547 29 b 517 24 536 28 527 26 l 408 134 z m 446 403 l 575 272 l 558 261 l 428 390 z m 472 422 l 596 297 b 587 281 593 291 589 285 l 584 280 l 455 409 z m 482 140 l 585 35 b 557 31 577 34 566 33 l 450 138 z m 566 510 l 706 370 l 694 356 l 661 389 l 665 402 l 657 393 l 553 495 b 566 510 559 500 562 504 z m 428 529 l 299 657 l 312 665 l 317 668 l 448 536 z m 496 553 l 362 688 l 380 694 l 425 650 b 425 646 425 649 424 646 l 427 649 l 517 559 z m 581 529 b 589 531 582 530 585 531 l 726 393 l 716 380 l 575 520 z m 462 542 l 330 674 l 347 682 l 481 549 z m 497 442 l 613 325 l 604 308 l 482 429 z m 522 143 l 622 44 b 596 37 616 42 608 40 l 493 141 b 522 143 502 141 513 143 z m 583 559 l 457 685 l 469 698 l 618 548 b 583 559 608 552 596 557 z m 507 451 l 521 463 l 631 354 l 621 337 l 506 450 z m 26 -37 l -33 21 b -3 35 -21 27 -10 31 l 64 -32 b 26 -37 50 -33 37 -35 z m 372 552 b 362 550 372 552 368 552 l 298 613 l 312 627 l 416 524 l 396 515 l 365 547 z m 544 485 l 649 381 b 638 365 645 376 642 371 l 531 472 z m 646 519 l 748 418 l 736 405 l 613 530 b 646 519 623 528 635 524 z m 543 562 b 534 561 540 562 537 562 l 437 659 b 448 673 440 662 443 668 l 559 561 b 543 562 553 562 548 562 z m 566 145 l 623 90 b 597 83 611 88 601 85 l 536 144 b 566 145 546 144 557 145 z m 610 147 l 661 95 b 635 91 653 94 643 93 l 580 146 b 610 147 590 146 600 147 z m 327 537 l 275 591 b 279 595 276 592 278 593 l 290 605 l 348 545 b 327 537 342 543 334 541 z m 770 668 l 840 597 l 840 582 b 839 580 840 581 839 580 l 746 673 b 770 668 754 672 763 670 z m 146 -66 l 113 -33 l 146 -24 l 184 -61 z m 654 150 l 701 103 b 674 97 693 100 684 99 l 624 149 b 654 150 635 149 644 150 z m -3 -96 l 3 -90 l 3 -76 b 42 -54 2 -71 19 -63 l 67 -80 b -3 -96 42 -85 17 -91 z m 108 -74 l 77 -43 l 111 -33 l 144 -67 z m 294 526 l 250 568 b 266 582 255 574 262 578 l 314 533 z m 68 -80 l 42 -54 l 76 -43 l 106 -74 z m 672 150 l 699 150 l 735 114 b 715 107 728 112 720 109 b 713 106 714 107 713 106 l 669 150 z m 697 737 b 702 736 699 737 700 737 l 755 684 b 736 683 749 684 743 684 l 677 740 z m 261 514 b 260 513 260 514 260 513 l 229 544 l 244 560 l 282 521 z m 560 17 l 585 -9 b 554 -13 576 -11 566 -12 l 526 15 z m 408 712 l 440 679 l 432 663 l 394 701 b 408 712 397 703 403 706 z m 744 151 l 769 124 l 747 118 l 715 150 b 744 151 724 150 734 151 z m 364 501 l 335 529 l 354 540 l 384 510 z m 332 486 l 307 512 b 326 524 313 515 319 519 l 353 496 z m 20 106 l 3 122 l 30 138 l 51 115 b 20 106 42 113 31 109 z m 756 725 l 801 683 b 782 684 794 683 788 684 l 734 731 b 756 725 741 730 749 728 z m 590 18 l 604 18 l 625 -3 b 595 -7 616 -4 606 -5 l 571 17 b 590 18 581 18 589 18 z m 639 74 l 658 53 l 632 47 l 604 76 b 639 74 612 75 624 74 z m 301 470 l 278 494 l 297 505 l 322 481 b 301 470 315 478 309 473 z m 224 502 l 204 521 l 221 536 l 248 510 z m -52 46 b -58 45 -53 46 -56 45 l -65 52 b -36 68 -58 58 -48 63 l -13 45 b -52 46 -27 46 -46 46 z m 672 331 l 649 355 l 656 373 l 685 345 z m 271 455 l 252 474 l 262 483 b 269 488 263 484 265 486 l 292 466 z m 432 734 l 457 708 l 449 693 l 420 722 b 432 734 424 725 427 730 z m 787 152 l 806 135 l 783 128 l 760 151 b 787 152 769 151 779 152 z m 817 706 l 827 702 l 858 670 l 835 676 l 799 714 z m -15 95 l -25 105 b 1 121 -17 110 -7 115 l 17 105 z m 653 15 l 666 1 b 637 -2 657 0 647 0 l 616 17 b 653 15 629 17 641 16 z m 651 307 l 634 323 l 643 342 l 663 321 z m 245 468 l 262 450 l 241 439 l 228 453 z m 451 752 l 455 756 l 473 738 b 471 734 472 736 471 735 l 466 723 l 443 745 b 451 752 446 747 448 750 z m 685 73 l 697 62 l 670 57 l 654 74 b 685 73 665 74 674 73 z m 190 490 l 181 499 l 198 515 l 215 498 z m 212 423 l 203 431 l 220 447 l 233 434 z m 831 153 l 841 144 l 818 138 l 804 153 z m 628 283 l 619 293 l 628 311 l 642 297 z m 482 753 l 467 768 l 478 779 l 489 767 z m 277 635 l 269 642 l 287 652 l 298 640 z m -46 89 l -45 93 l -26 104 l -17 95 b -46 89 -33 90 -46 87 z m 731 73 l 733 69 l 708 64 l 699 73 z m 831 645 l 837 629 l 808 657 b 831 645 822 653 830 647 z m 499 802 l 505 796 b 498 782 503 792 500 787 l 488 791 z m 182 405 l 179 408 l 197 425 l 203 418 z m 701 5 l 677 3 l 668 13 b 701 5 683 11 694 7 z m 605 260 l 603 262 l 612 281 l 620 274 b 605 260 614 267 609 263 z m 241 623 l 238 626 l 257 636 l 263 630 b 241 623 255 627 248 625 z m -77 38 l -76 42 b -65 52 -75 44 -72 48 l -58 45 b -77 38 -64 43 -72 38 z m 916 655 l 900 658 l 886 672 z m 165 481 l 174 493 l 179 486 z m 869 154 b 855 149 866 152 861 151 l 849 154 z m 520 826 l 514 812 l 511 816 b 520 826 514 821 518 824 z m 225 619 l 228 621 l 229 620 b 225 619 226 619 225 619 z m 175 401 b 173 400 174 401 173 400 b 174 402 173 400 174 401 z "},"3":{"ha":842,"x_min":0,"x_max":0,"o":"m 822 262 b 815 322 824 282 822 302 b 788 373 810 340 801 357 b 752 407 778 385 766 396 b 800 452 768 421 785 436 b 847 510 819 471 835 491 b 872 561 858 527 866 544 b 932 605 891 574 920 593 l 1047 720 l 890 676 l 865 670 b 846 698 860 679 854 689 b 787 745 831 716 812 732 b 642 782 748 766 696 779 l 641 782 b 598 783 628 783 613 783 l 596 783 l 722 932 l 533 837 l 527 833 b 429 785 507 824 468 803 b 346 749 366 755 349 750 l 345 749 l 343 748 l 311 736 b 263 720 295 730 279 725 l 114 675 l 228 647 l 225 645 b 207 627 218 639 214 632 l 126 565 l 169 546 l 155 535 l 11 435 b 291 493 126 463 155 454 b 491 528 350 507 432 522 b 467 518 485 525 476 521 b 340 478 424 502 375 487 b 323 472 333 475 328 473 b 196 434 313 470 223 444 l -10 356 l 168 350 l 213 324 b 110 260 183 309 145 287 l 11 183 l 136 183 b 177 193 144 183 146 184 l 234 213 l 240 214 l 246 216 b 442 250 306 233 388 250 b 468 249 453 250 460 250 b 452 239 464 246 458 243 b 361 201 429 226 400 214 b 113 139 298 179 218 159 b -24 113 68 129 -15 114 l -196 91 l -60 41 b -73 28 -64 37 -69 33 l -120 -37 l -132 -41 l -350 -108 l -124 -125 b -71 -126 -110 -125 -93 -126 l -24 -126 b 207 -107 52 -126 129 -120 l 262 -97 l 71 -249 l 343 -140 b 497 -60 389 -122 452 -87 b 609 11 543 -33 589 -4 b 747 108 667 40 713 73 b 822 261 792 154 816 205 z m 689 112 l 578 224 b 537 264 567 243 551 254 l 362 439 l 385 446 l 704 126 z m 714 135 l 399 450 l 420 456 l 726 149 z m 735 159 l 433 460 b 453 468 440 463 447 466 l 576 345 b 575 344 576 344 575 344 l 577 344 l 747 175 z m 178 -6 b 160 -4 178 -4 170 -4 l 98 57 l 99 58 b 97 59 99 58 98 59 l 68 87 l 103 92 l 252 -56 l 218 -62 l 167 -11 b 178 -6 173 -9 177 -7 z m 256 -54 l 108 93 l 122 96 l 141 99 l 290 -48 z m 295 -47 l 146 100 l 179 108 l 326 -40 z m 483 709 l 740 453 l 729 442 l 469 702 z m 357 -32 l 332 -37 l 185 109 l 216 116 l 362 -30 b 357 -32 360 -31 358 -31 z m 513 726 l 765 474 l 753 464 l 499 719 z m 366 -27 l 222 118 b 252 125 232 120 243 122 l 388 -10 z m 536 737 l 546 737 l 787 497 l 777 486 l 529 734 b 536 737 532 736 535 737 z m 549 21 l 496 75 l 402 169 l 425 178 l 569 35 b 549 21 563 31 557 26 z m 392 -6 l 260 127 l 288 134 l 412 10 z m 587 47 l 577 40 l 435 183 l 456 192 l 597 52 z m 606 57 l 466 198 b 486 209 473 201 480 205 l 626 68 z m 635 74 l 494 215 l 509 228 l 510 229 l 654 85 z m 589 740 l 809 520 l 799 510 l 571 739 b 589 740 576 740 582 740 z m 418 14 l 296 136 l 324 144 l 437 31 z m 753 187 l 592 348 l 610 356 l 762 204 z m 663 92 l 521 234 b 567 218 531 236 546 233 l 681 105 z m -24 -52 l -19 -56 l -4 -51 l 15 -46 l 50 -81 b 7 -83 36 -81 21 -82 l 16 -92 l 6 -83 l -24 -83 l -71 -83 b -159 -83 -89 -83 -144 -84 b -20 -56 -139 -77 -67 -68 z m 442 35 l 332 146 b 358 154 341 150 349 152 l 462 51 z m 768 218 l 624 362 l 642 371 l 775 238 z m 506 572 l 368 710 l 386 718 l 421 682 l 410 672 b 425 677 412 672 418 674 l 530 573 b 506 572 522 573 515 573 z m 464 292 l 356 400 l 376 407 l 376 409 l 501 283 b 464 292 491 287 479 291 z m 465 567 l 333 699 l 351 705 l 487 571 z m 468 57 l 368 157 l 392 166 l 487 71 b 468 57 483 67 475 63 z m 635 739 l 763 611 b 752 607 759 610 754 608 l 767 607 l 802 573 l 791 566 l 615 740 b 635 739 622 740 629 740 z m 486 480 l 604 362 b 588 353 597 359 593 355 l 467 472 b 486 480 473 475 480 478 z m 424 562 l 386 601 b 400 609 393 604 399 607 b 376 611 401 611 390 611 l 299 687 l 307 689 l 318 693 l 447 565 z m 418 292 l 322 389 l 344 396 l 448 293 l 442 293 b 418 292 434 293 426 292 z m 519 494 l 634 379 l 616 370 l 501 486 z m 548 509 l 661 396 l 645 387 l 532 500 b 548 509 538 503 544 505 z m 779 265 l 777 255 l 656 377 l 673 384 l 779 278 z m 376 287 l 332 331 b 345 337 338 333 342 334 b 328 335 344 338 338 337 l 286 376 l 310 385 l 404 291 z m 553 572 l 440 686 b 454 693 444 688 449 691 l 583 564 b 553 572 573 568 562 571 z m 569 525 l 575 528 l 690 413 b 674 404 686 410 681 408 l 562 518 z m 115 -5 l 63 46 b 95 56 78 49 89 53 l 155 -4 b 115 -5 143 -4 130 -4 z m 636 513 l 716 432 l 703 422 l 596 528 b 636 513 607 527 621 522 z m 687 734 l 796 624 l 783 620 l 666 737 z m 178 -68 l 129 -20 b 162 -12 143 -17 154 -15 l 214 -63 b 178 -68 202 -65 190 -67 z m 72 -7 l 27 36 l 60 45 l 111 -5 b 72 -7 97 -6 83 -7 z m 137 -74 l 92 -29 l 126 -21 l 174 -69 z m 95 -78 l 54 -37 b 90 -30 65 -34 78 -32 l 134 -74 b 95 -78 122 -76 109 -77 z m 44 -9 b 20 -3 34 -7 28 -5 l -7 25 l -2 28 l 24 35 l 68 -7 b 44 -9 57 -9 47 -9 z m 52 -81 l 17 -46 l 52 -37 l 93 -78 z m 521 4 l 474 50 b 490 68 481 57 485 63 l 542 17 z m 751 716 l 827 640 b 815 632 826 638 822 636 l 723 725 z m 491 -13 l 452 27 l 469 45 l 514 0 z m 697 391 b 775 304 737 369 765 340 l 689 390 b 697 391 692 391 696 391 z m 463 -30 l 429 3 l 447 21 l 486 -17 z m 337 281 l 300 316 l 323 327 l 363 285 z m 291 327 l 254 363 l 277 373 l 316 332 z m 332 608 l 294 646 l 312 654 l 357 610 z m 52 57 l 27 81 l 64 87 l 91 59 b 52 57 82 59 67 58 z m 434 -47 l 407 -20 b 424 -2 412 -14 418 -7 l 456 -34 z m 298 272 l 269 301 l 292 312 l 326 279 z m 10 56 l 4 59 l -13 77 l 25 81 l 49 56 b 10 56 30 54 11 53 z m 371 596 l 408 560 l 385 556 l 350 590 z m 394 -33 b 403 -25 396 -30 400 -28 l 428 -50 l 403 -63 l 384 -44 b 394 -33 387 -40 391 -36 z m 346 548 l 315 579 l 335 585 l 369 552 z m 261 264 l 238 285 b 261 297 246 290 253 294 l 287 270 z m 288 606 l 266 628 l 276 637 l 281 640 l 314 607 b 288 606 303 607 294 606 z m 308 540 l 281 566 l 301 575 l 330 545 z m 417 732 l 446 703 b 433 692 441 699 437 696 l 401 724 z m 348 407 l 327 428 b 333 431 329 429 332 429 l 349 435 l 376 409 b 348 407 373 410 362 409 z m 234 256 l 233 256 l 224 253 l 208 270 b 231 282 216 275 223 279 l 252 262 z m -31 2 l -35 5 b -9 24 -29 11 -18 17 l 17 -2 b -31 2 7 0 -5 1 z m 280 533 l 270 531 l 251 550 l 270 560 l 294 536 z m 373 -78 l 359 -64 l 379 -47 l 399 -66 b 396 -67 397 -66 396 -66 z m 281 659 l 259 682 l 282 685 l 307 660 b 281 659 297 659 286 658 z m 310 401 l 290 420 l 314 425 l 334 405 z m 271 392 l 252 410 l 278 417 l 297 397 b 271 392 287 395 279 394 z m 447 746 l 470 723 l 458 714 l 432 739 z m 255 390 l 229 388 l 216 402 l 241 408 l 259 390 z m 234 520 l 220 536 l 239 545 l 257 528 z m 190 243 l 178 253 l 201 266 l 217 251 b 190 243 207 248 199 245 z m 342 -94 l 332 -84 l 354 -67 l 368 -81 z m 807 613 l 831 589 l 819 582 l 792 610 z m 473 759 b 479 761 474 759 476 760 l 496 744 l 484 734 l 464 754 b 473 759 467 755 470 756 z m 250 598 l 239 609 l 256 621 l 272 604 b 250 598 266 601 257 600 z m 199 511 l 189 520 b 209 531 196 524 202 528 l 222 517 z m 186 385 l 179 392 l 205 399 l 217 387 b 186 385 206 387 197 386 z m 312 -110 l 306 -104 b 328 -87 313 -98 321 -93 l 338 -96 z m 844 621 l 860 606 l 849 599 l 830 618 z m 506 777 l 520 764 l 510 754 l 494 769 z m 155 231 l 151 236 l 173 250 l 183 239 b 155 231 173 236 162 234 z m 535 794 l 545 784 l 534 775 l 524 786 z m -41 74 b -16 76 -38 74 -29 75 l -2 62 b -41 74 -16 67 -36 72 z m 269 327 b 239 357 264 337 255 347 l 245 359 l 278 325 b 269 327 274 325 270 325 z m 163 500 l 160 503 l 179 515 l 188 507 z m 280 -124 l 278 -122 l 302 -106 l 308 -111 b 280 -124 298 -116 287 -121 z m 880 630 l 889 622 l 878 616 l 868 626 z m 214 588 l 213 590 b 229 601 216 592 221 597 l 236 594 z m 564 811 l 569 806 l 559 796 l 551 803 b 564 811 556 807 560 809 z m 913 643 l 918 640 l 907 634 l 902 639 b 913 643 906 640 910 641 z m 826 544 l 821 535 l 811 545 b 826 544 815 545 819 544 z m 156 385 b 170 389 159 386 163 388 l 174 385 z m 136 225 l 144 232 l 149 229 b 136 225 142 226 136 225 z m 591 827 b 583 819 589 824 585 822 l 581 822 z m -19 -56 l 7 -83 l 6 -83 l -20 -56 z m 267 -130 b 275 -124 267 -129 270 -127 l 277 -126 b 267 -130 272 -127 269 -129 z m -35 5 l -32 2 l -38 2 z m 238 677 b 243 678 239 677 240 677 l 246 675 z m 153 497 l 153 496 l 152 496 z "},"4":{"ha":964,"x_min":0,"x_max":0,"o":"m 1079 266 l 888 304 b 903 310 892 307 899 309 b 941 329 916 314 929 318 l 941 330 l 942 330 b 951 342 946 333 949 338 b 1051 373 985 351 1036 366 l 1170 422 l 1045 453 b 990 456 1038 455 1030 456 l 935 456 l 875 453 l 884 465 b 949 561 906 498 931 532 b 951 563 950 561 950 562 l 959 577 b 979 610 969 592 974 601 b 983 618 980 612 981 615 l 1051 739 l 926 676 b 845 610 910 669 888 650 b 822 591 832 597 825 593 l 821 591 b 799 595 816 593 809 595 l 870 743 l 730 637 b 689 609 702 615 691 610 l 679 606 l 671 598 b 541 426 637 564 593 506 l 463 419 b 627 601 513 479 578 549 b 768 754 689 665 754 737 l 905 915 l 717 819 b 651 778 704 814 685 801 b 621 763 640 771 629 768 b 636 829 621 766 620 787 b 530 784 594 821 535 787 l 554 893 l 474 819 b 323 665 450 796 384 726 l 302 832 l 241 657 b 189 560 237 645 221 614 b 132 473 165 520 142 485 l 79 413 l 78 413 l 78 412 b 26 354 67 400 45 374 l 5 330 l -1 323 l -4 314 b 3 272 -7 300 -5 286 b 4 270 3 271 3 271 b -6 264 1 269 -3 267 b -80 212 -44 240 -67 225 l -167 122 l -43 140 l 26 151 l -33 87 l 81 106 b 262 138 126 113 239 135 l 373 154 b 323 63 346 108 328 73 b 317 51 322 59 319 54 b 304 3 310 35 302 20 l 311 -52 l 341 -41 l 341 -42 b 334 -68 338 -51 335 -61 l 308 -197 l 404 -109 b 422 -92 409 -105 415 -99 b 434 -80 425 -88 429 -84 l 422 -135 b 418 -165 418 -157 418 -159 l 418 -371 l 499 -182 b 560 -75 504 -170 536 -119 b 714 199 605 10 618 38 l 830 214 l 833 214 b 850 217 839 216 844 216 b 881 222 860 218 870 219 z m 369 197 l 143 422 l 160 440 l 253 346 b 250 344 251 345 250 344 l 255 344 l 399 200 z m 328 190 l 121 397 l 138 416 l 359 196 z m 287 185 l 99 372 l 111 386 b 116 392 112 388 114 390 l 319 189 b 287 185 309 188 298 187 z m 248 179 l 78 347 l 96 368 l 279 184 l 255 181 b 248 179 254 181 251 179 z m 639 157 l 424 372 l 452 375 l 651 176 b 639 157 646 170 642 163 z m 208 172 l 179 201 b 194 208 188 204 194 207 b 170 209 193 210 184 210 l 104 276 b 123 287 114 281 122 285 b 92 288 112 287 101 287 l 57 324 l 75 344 l 240 178 z m 656 185 l 466 376 l 493 379 l 668 205 z m 825 256 l 818 255 l 614 459 l 624 473 l 796 303 b 791 299 793 301 791 300 b 812 285 787 292 801 288 l 840 259 b 825 256 833 257 828 256 z m 425 204 b 410 202 420 203 415 202 l 266 346 l 295 350 l 434 210 b 425 204 431 206 426 204 z m 533 384 l 685 233 l 673 215 l 507 380 z m 571 40 l 536 75 b 541 89 538 81 541 87 b 531 80 540 89 535 85 l 435 176 l 448 198 l 583 61 z m 588 69 l 452 205 l 465 225 l 600 91 z m 810 310 l 634 486 l 644 500 l 827 316 z m 706 469 b 714 475 706 469 709 471 l 855 334 l 846 327 l 842 324 l 653 512 b 663 525 657 516 660 520 l 708 481 b 706 469 705 473 704 469 z m 607 101 l 605 98 l 469 234 l 481 254 l 616 119 z m 622 128 l 486 263 l 498 283 l 634 147 b 622 128 630 141 625 135 z m 216 520 l 350 385 b 328 376 343 382 335 379 l 203 501 b 216 520 206 507 212 513 z m 440 218 l 304 353 l 332 358 l 455 235 z m 691 243 l 549 386 l 575 389 l 703 261 z m 312 594 l 317 599 l 448 469 l 435 454 l 306 582 z m 198 493 l 317 372 l 294 363 l 185 473 b 198 493 188 479 193 485 z m 301 571 l 426 444 l 413 428 l 294 549 b 301 571 296 557 298 564 z m 341 623 l 469 494 l 456 479 l 327 609 z m 460 243 l 344 360 b 372 364 354 361 363 362 l 475 261 b 460 243 470 255 466 249 z m 396 406 l 393 404 l 281 515 b 290 537 283 522 286 530 l 407 420 z m 363 645 l 490 517 l 478 503 l 349 631 z m 179 466 l 285 360 l 262 350 l 166 446 z m 386 668 l 512 541 l 499 527 l 373 655 z m 493 26 l 401 118 l 415 141 l 507 47 z m 512 53 l 418 147 l 427 163 b 431 169 427 165 429 167 l 526 74 z m 473 0 l 385 89 l 397 111 l 489 20 b 473 0 483 11 478 4 z m 521 551 l 395 677 l 408 690 l 533 564 z m 277 504 l 382 399 l 360 389 l 268 482 z m 709 271 l 590 390 l 615 393 l 721 287 z m 482 268 l 384 366 l 410 371 l 497 283 b 482 268 494 282 488 276 z m 468 -5 l 466 -5 b 443 -16 459 -5 452 -10 l 397 30 b 402 60 402 44 406 59 b 388 40 401 60 394 49 l 369 59 l 381 82 l 469 -5 z m 729 298 l 631 394 l 656 397 l 740 313 b 729 298 736 309 733 303 z m 458 685 l 556 588 l 544 575 l 444 674 z m 128 206 l 73 262 l 99 274 l 163 209 z m 87 203 l 85 203 l 43 246 l 48 249 l 68 260 l 122 205 b 87 203 105 204 90 202 z m 797 415 l 725 487 l 737 499 l 807 428 b 797 415 803 423 799 419 z m 40 244 l 81 202 l 46 197 l 15 228 z m 759 520 l 825 455 b 816 442 822 451 818 447 l 748 510 z m 418 -37 l 390 -10 b 388 1 391 -3 390 1 b 395 24 386 1 391 12 l 438 -19 z m 741 312 l 800 253 l 778 250 l 733 294 z m 827 408 l 861 374 b 856 373 859 373 857 373 b 868 368 851 370 858 369 l 885 349 b 869 343 879 348 874 346 l 806 406 z m 783 543 l 804 520 b 802 509 802 514 801 509 b 812 514 804 509 808 511 l 843 482 l 834 469 l 771 532 z m 233 549 l 268 513 l 265 485 l 221 530 b 233 549 224 536 229 543 z m 484 704 l 485 704 l 533 656 l 525 641 l 470 694 b 484 704 476 700 483 704 z m 554 12 l 524 42 b 533 66 527 51 530 60 l 566 32 z m 537 -18 l 509 10 b 520 34 513 18 517 26 l 550 4 z m 174 199 l 202 171 l 169 165 l 144 190 z m 623 403 l 595 432 l 606 448 l 652 402 b 623 403 643 403 634 403 z m 12 225 l 41 196 l 4 190 l -14 209 z m 521 -48 l 496 -22 b 506 3 499 -14 502 -5 l 534 -25 z m 685 550 l 724 511 l 716 496 l 674 538 z m 130 158 l 109 178 l 139 188 l 162 163 z m 504 -78 l 483 -56 b 493 -29 485 -48 488 -38 l 517 -53 l 510 -69 b 504 -78 507 -72 506 -75 z m 249 578 l 275 552 l 270 527 l 238 559 b 249 578 241 564 246 571 z m 543 646 l 578 611 l 566 599 l 530 636 z m 517 717 l 549 686 l 541 670 l 503 708 b 517 717 509 710 513 714 z m 566 668 l 599 635 l 596 631 l 589 623 l 553 657 b 566 668 558 661 562 665 z m 702 568 b 708 572 703 568 706 571 l 739 541 l 732 526 l 696 562 z m 396 -61 l 381 -46 b 389 -16 385 -35 388 -25 l 415 -42 z m 590 690 l 622 658 l 611 646 l 578 679 z m 91 151 l 80 161 l 90 171 b 105 177 91 172 96 175 l 126 157 z m 489 -109 l 474 -94 l 479 -69 b 480 -62 479 -67 479 -65 l 501 -83 z m 719 262 l 728 281 l 761 248 l 736 245 z m 37 302 l 53 321 l 84 290 b 37 302 54 292 35 297 z m 869 410 l 900 381 l 880 377 l 848 409 b 869 410 856 410 862 410 z m 614 710 l 644 681 l 634 670 l 603 701 b 614 710 607 705 611 708 z m 375 21 b 363 17 372 21 368 19 l 353 27 l 362 46 b 365 53 362 47 363 50 l 385 34 b 375 21 379 27 375 21 z m 834 536 l 862 509 b 854 497 860 504 857 501 l 825 526 z m 263 608 l 280 592 l 276 566 l 254 589 z m 441 677 l 418 701 l 431 714 l 452 692 b 441 677 448 687 443 682 z m 912 412 l 937 389 l 919 385 l 892 411 b 912 412 900 412 906 412 z m 543 738 l 564 717 b 557 701 563 713 560 707 l 531 728 z m 644 728 l 666 704 l 656 693 l 629 720 z m -15 207 l 2 190 l -34 185 l -40 190 b -15 207 -33 196 -25 201 z m 856 560 l 880 535 l 873 525 l 847 550 z m 474 -140 l 466 -131 l 472 -99 l 486 -113 z m 453 736 l 469 720 b 460 705 467 715 464 710 l 441 724 z m 733 592 l 749 576 b 745 560 747 569 745 564 l 722 582 z m 875 579 l 878 582 l 899 562 b 891 551 896 559 894 554 l 870 574 z m 870 275 l 882 262 l 859 260 l 841 278 z m 956 393 l 937 413 l 957 413 l 973 397 z m 375 -87 l 370 -81 l 379 -51 l 393 -65 b 375 -87 386 -73 380 -81 z m 277 641 l 284 632 l 281 607 l 268 621 z m 672 740 b 674 741 672 740 673 741 l 688 728 l 678 718 l 661 735 z m 902 605 l 917 590 l 913 584 l 910 579 l 893 596 b 902 605 896 598 899 601 z m 475 760 l 485 750 l 476 734 l 464 747 z m 579 408 b 588 421 581 412 584 417 l 605 404 b 579 408 589 404 577 405 z m 990 413 l 1003 413 l 1012 404 l 995 401 l 983 413 z m 459 -171 l 456 -168 b 464 -137 458 -159 462 -149 l 472 -145 z m 566 760 l 574 752 l 566 737 l 554 749 z m 701 760 l 709 752 l 701 741 l 690 753 z m 926 626 l 934 618 b 927 607 932 614 931 611 l 917 618 z m 920 269 l 923 265 b 903 263 918 265 910 264 l 893 271 z m 756 613 l 762 609 l 755 594 l 746 604 b 756 613 750 607 753 611 z m 65 145 b 77 159 66 149 72 154 l 87 150 z m 1035 407 l 1029 415 l 1046 415 l 1050 410 z m 498 782 l 500 779 l 494 765 l 487 771 z m 799 552 b 814 549 804 552 809 550 b 811 538 814 548 813 545 l 798 552 z m 912 361 b 903 356 910 359 906 357 l 892 364 b 912 361 904 363 913 362 z m 347 9 b 350 22 346 11 348 16 l 359 15 b 347 9 354 12 349 9 z m 288 672 b 286 647 288 669 287 659 l 281 653 z m 729 778 l 731 776 l 722 766 l 718 771 z m 450 -196 b 455 -173 450 -194 452 -186 l 457 -175 b 450 -196 453 -185 451 -192 z m 714 249 l 720 243 l 710 241 z m -43 189 l -37 184 l -49 183 b -43 189 -47 184 -45 187 z m 372 -89 l 368 -94 b 369 -85 368 -92 369 -89 z m 946 639 b 944 637 944 638 944 638 l 943 638 b 946 639 944 638 944 638 z "},"5":{"ha":905,"x_min":0,"x_max":0,"o":"m 857 278 l 857 279 b 849 357 859 310 856 335 l 951 365 l 859 433 b 765 475 847 442 818 459 b 576 504 710 493 647 502 b 557 505 569 504 563 505 b 564 516 559 509 562 512 b 846 533 691 527 795 532 l 854 533 l 860 535 b 868 537 861 536 865 536 b 939 568 899 543 923 549 l 976 614 b 1184 691 1007 629 1040 634 b 1104 712 1146 702 1123 708 b 1014 722 1068 717 1025 722 b 1089 750 1030 730 1071 743 l 1221 808 l 970 790 b 953 788 965 790 959 788 b 879 784 934 786 908 784 l 830 784 l 909 888 l 740 807 b 703 790 734 803 722 799 l 682 780 b 442 764 614 777 522 772 b 335 781 375 772 347 778 l 163 832 l 294 709 l 307 699 l 321 686 l 283 661 b 201 596 241 634 216 615 l 181 569 b 167 559 175 566 171 562 b 157 551 163 556 160 553 l -25 440 l 186 472 l 225 479 l 203 442 l 185 416 l 170 392 b 37 286 118 360 109 344 l 142 274 b 196 281 151 272 170 278 l 143 224 b 308 252 196 233 244 239 b 439 271 335 257 400 269 l 441 271 b 476 274 453 272 465 274 b 516 270 495 274 507 271 b 340 192 501 255 458 226 b 69 134 239 163 127 143 l 68 134 b 33 113 49 130 40 121 l 11 88 b -60 81 -15 83 -42 81 l -324 81 l -87 2 b -137 -3 -107 1 -125 -1 b -150 -4 -142 -3 -146 -4 l -319 -21 l -162 -87 b -22 -115 -139 -96 -76 -109 b 40 -121 -2 -119 20 -120 b 73 -122 52 -121 64 -122 b 109 -120 89 -122 100 -121 b 232 -106 147 -118 189 -113 l 52 -250 l 324 -140 b 493 -61 364 -123 429 -93 b 645 27 532 -41 604 -2 b 786 134 704 60 752 95 b 857 278 828 178 851 228 z m 757 165 l 459 462 b 485 463 469 462 479 463 l 769 178 z m 662 230 b 575 300 650 260 618 285 l 418 457 b 442 459 425 458 434 459 l 748 154 l 734 140 l 622 252 b 662 230 636 247 650 238 z m 515 314 l 307 521 l 315 533 b 298 531 309 532 303 531 l 272 556 l 293 564 l 397 460 l 387 456 l 401 456 l 550 307 b 515 314 540 310 527 312 z m 778 190 l 504 464 l 530 464 l 788 206 z m 795 218 l 550 463 b 574 462 558 463 566 462 l 577 462 l 802 236 b 795 218 800 230 798 223 z m 476 -17 l 434 25 b 439 32 437 28 438 30 l 431 28 l 317 142 l 345 149 l 499 -4 z m 476 316 l 467 316 l 287 495 l 299 512 l 496 315 b 476 316 489 316 483 316 z m 347 -27 l 225 95 l 226 96 l 224 96 l 205 115 l 236 122 l 371 -12 z m 505 0 l 355 152 l 380 159 l 527 13 z m 438 314 b 423 313 433 314 428 313 l 269 467 b 281 485 274 473 277 480 l 452 315 b 438 314 447 314 442 314 z m 282 -53 l 158 69 l 189 79 l 314 -46 b 312 -47 313 -47 312 -47 z m 244 -61 l 122 61 l 154 68 l 278 -54 z m 204 -67 l 144 -7 b 161 -2 150 -6 156 -4 b 135 1 160 -1 151 0 l 82 53 l 83 53 b 118 60 88 53 101 56 l 238 -61 z m 318 -44 l 193 80 b 221 92 204 84 215 88 l 343 -30 b 318 -44 333 -36 325 -41 z m 548 27 l 534 17 l 390 162 b 415 171 399 165 406 168 l 554 31 b 548 27 552 29 550 28 z m 375 -7 l 244 124 b 274 130 253 126 263 127 l 396 6 z m 562 35 l 423 174 b 448 183 432 177 440 179 l 581 49 b 562 35 575 44 568 40 z m 263 457 l 409 312 l 381 308 l 251 439 z m 403 11 l 281 132 b 310 140 291 135 300 137 l 424 25 b 403 11 418 21 410 16 z m 589 54 l 457 187 l 480 197 l 607 69 b 589 54 600 64 595 59 z m 488 484 b 484 483 487 484 485 483 l 328 639 b 344 650 333 642 339 645 l 497 497 z m 709 119 l 566 263 b 596 262 571 266 582 265 l 725 132 z m 421 659 b 335 723 423 668 373 700 l 316 743 l 347 736 l 536 548 l 526 534 l 394 666 b 421 659 407 661 420 657 z m 317 631 l 467 480 b 447 475 460 479 454 478 l 300 621 b 317 631 306 624 312 627 z m 404 726 l 556 575 l 545 560 l 375 731 z m 614 76 l 489 201 l 506 210 b 510 213 507 210 509 212 l 630 90 z m 369 670 l 517 522 l 505 507 l 355 658 z m 290 613 l 432 471 l 410 465 l 274 603 b 290 613 279 606 284 609 z m 495 726 l 654 566 b 632 565 646 566 640 565 l 473 724 b 495 726 480 724 487 725 z m -16 -73 b -179 -38 -73 -66 -165 -45 b -114 -44 -172 -38 -127 -45 b -60 -40 -99 -42 -81 -41 b -15 -35 -45 -38 -29 -37 l 27 -77 b -16 -73 12 -76 -2 -75 z m 639 97 l 518 218 b 535 232 524 222 530 226 l 654 112 b 639 97 650 107 644 103 z m 661 121 l 544 239 l 559 254 l 675 137 b 661 121 671 131 667 126 z m 696 389 l 812 271 b 808 251 811 265 810 259 l 670 389 z m 442 721 b 453 722 446 721 449 721 l 575 600 l 564 587 l 429 722 b 442 721 434 722 438 721 z m 674 728 l 791 612 b 784 609 786 611 784 610 b 797 606 785 608 790 607 l 827 575 l 808 575 l 662 721 z m 645 712 l 782 574 b 764 573 776 574 770 574 l 632 704 b 645 712 637 706 641 708 z m 105 -77 b 77 -79 98 -78 89 -79 l 22 -25 b 28 -22 24 -24 26 -22 b 59 -18 30 -20 43 -19 l 118 -76 b 105 -77 113 -77 109 -77 z m 120 -76 l 62 -18 b 103 -16 74 -18 88 -17 l 160 -73 z m 300 344 l 233 411 l 246 431 l 328 348 z m 616 694 l 739 572 b 720 571 733 572 726 572 l 604 687 b 616 694 607 689 612 691 z m 162 -73 l 105 -15 b 141 -9 118 -14 129 -12 l 199 -67 b 162 -73 187 -69 174 -72 z m 745 739 l 753 739 l 872 622 b 856 620 866 621 861 620 l 720 755 l 731 762 l 748 745 b 745 739 746 741 744 739 z m 702 745 l 830 618 l 813 615 l 691 738 z m 588 677 l 697 569 b 676 568 690 568 683 568 l 575 670 z m 42 -78 b 28 -77 36 -78 32 -77 l -13 -34 b 21 -25 0 -32 12 -29 l 75 -79 l 73 -79 b 42 -78 64 -79 52 -78 z m 743 388 l 814 316 b 814 291 814 308 815 299 l 717 389 b 743 388 726 388 734 388 z m 87 4 l 43 47 b 79 52 56 49 67 51 l 130 1 z m 796 740 l 905 632 l 894 627 l 780 740 z m 35 7 l 1 42 b 5 43 3 42 4 43 b 41 47 17 44 29 45 l 82 4 z m 667 392 l 599 460 l 627 457 l 687 397 b 667 392 681 396 673 394 z m 448 -34 l 410 2 l 429 19 l 470 -21 z m 722 400 b 707 399 717 400 712 399 l 651 455 l 677 452 l 730 400 z m 418 -50 l 387 -19 l 406 -1 l 441 -37 z m 262 335 l 226 372 l 250 380 l 288 341 b 262 335 280 340 270 338 z m 342 302 l 310 334 b 332 344 319 338 327 342 l 371 307 b 342 302 361 304 350 303 z m 18 11 b -24 21 11 14 -4 18 l -44 42 l 0 42 l 32 7 b 18 11 25 9 19 10 z m 224 328 l 194 357 l 201 361 l 217 368 l 252 333 b 224 328 239 330 230 328 z m 536 729 l 580 685 b 569 675 576 682 572 678 l 516 728 b 536 729 524 729 530 729 z m 401 -59 b 387 -65 396 -61 392 -62 l 362 -41 b 382 -24 369 -34 376 -29 l 411 -53 z m 735 440 l 775 400 l 752 400 l 704 447 z m 302 295 l 277 321 b 301 330 284 324 293 326 l 331 300 z m 887 697 l 938 646 l 926 641 l 869 699 z m 356 -81 l 337 -62 l 357 -44 l 381 -68 b 356 -81 374 -72 364 -76 z m 183 323 l 166 340 l 187 353 l 213 327 b 183 323 202 325 192 324 z m 184 90 l 167 108 l 200 114 l 218 95 z m 265 285 l 253 297 b 253 307 255 301 255 303 b 268 316 251 308 259 312 l 292 293 l 291 293 z m 144 83 l 128 100 l 161 107 l 178 89 b 144 83 168 88 156 85 z m 325 -96 l 311 -82 b 332 -64 318 -77 325 -71 l 351 -83 z m 104 78 l 89 93 l 123 99 l 140 83 z m 579 732 l 606 706 l 594 697 l 560 731 b 579 732 566 731 573 731 z m -81 33 l -91 42 l -46 42 l -26 22 z m 256 526 l 238 545 l 260 551 l 282 529 z m 803 417 l 824 397 b 799 399 815 399 808 399 l 767 431 z m 683 99 l 668 115 l 676 136 l 700 112 z m 590 561 l 574 577 l 580 595 l 611 563 b 590 561 605 563 597 562 z m 260 568 l 247 582 b 263 595 251 587 256 591 l 286 572 z m 938 690 l 971 658 l 959 654 l 921 692 b 938 690 927 692 933 690 z m 216 520 l 203 533 b 214 538 206 535 209 537 b 225 542 215 538 220 540 l 243 524 z m 793 378 b 809 343 800 368 806 356 l 766 385 b 793 378 781 382 791 380 z m 859 709 l 827 741 l 842 741 l 871 712 z m 294 -111 l 285 -104 l 308 -85 l 321 -98 z m 846 599 l 866 580 l 851 577 l 828 601 z m 879 741 l 888 741 l 910 718 l 896 716 l 873 741 z m 142 316 l 139 321 l 159 335 l 173 322 z m 995 665 l 972 687 l 987 687 l 1005 668 z m 90 78 b 65 85 80 82 67 84 b 77 92 67 88 69 91 b 84 93 79 92 82 92 l 99 78 b 90 78 94 77 91 77 z m 622 734 l 631 724 l 620 716 l 604 733 b 622 734 610 733 616 733 z m -136 44 b -91 42 -129 44 -112 43 l -82 33 b -136 44 -108 37 -129 42 z m 929 745 l 944 730 b 939 726 941 729 940 728 l 935 724 l 917 744 b 929 745 921 744 925 744 z m 654 81 l 651 84 b 662 105 653 90 658 96 l 673 93 z m 263 -126 l 260 -124 l 283 -106 l 291 -113 b 263 -126 280 -118 270 -123 z m 761 760 l 749 772 l 760 778 l 769 768 b 761 760 766 766 764 763 z m 226 404 l 243 388 l 221 392 b 226 404 216 392 222 399 z m 1033 687 l 1043 677 l 1031 674 l 1019 687 z m 897 595 l 902 591 b 890 587 899 589 894 588 l 878 597 z m 970 749 l 979 741 l 968 738 l 958 747 z m 179 515 b 194 527 185 518 190 522 l 203 518 z m 240 277 b 250 291 241 280 246 285 l 257 282 z m 783 784 l 779 788 b 788 795 782 791 786 793 l 792 792 z m 1011 754 l 1013 751 l 1004 748 l 1000 752 z m 859 392 b 850 393 856 392 854 393 l 844 401 z m 249 -132 l 257 -125 l 260 -127 z m 235 571 b 237 574 235 572 236 573 l 243 568 b 235 571 239 568 236 569 z "},"6":{"ha":974,"x_min":0,"x_max":0,"o":"m 962 316 b 940 425 965 357 958 393 b 915 456 933 436 924 447 b 1001 515 946 483 972 499 b 809 526 935 530 828 527 b 770 524 794 525 778 524 b 715 530 752 527 734 529 b 768 561 731 538 747 548 b 810 582 780 567 794 575 b 935 649 863 612 912 638 l 1053 699 l 926 728 b 908 730 921 729 916 730 l 903 730 l 946 777 l 875 764 b 1024 868 924 813 973 838 b 608 749 863 865 669 779 b 434 650 534 714 486 685 b 390 759 420 657 392 725 b 310 561 374 747 324 601 b 278 535 294 549 293 548 b 158 415 232 496 193 455 b 96 378 141 406 110 390 l 5 303 l 74 303 b 66 297 72 300 68 298 b 59 290 64 295 62 292 b 43 279 56 287 50 283 b -50 215 2 252 -35 226 l -162 118 l -14 141 b 30 147 -9 141 11 144 b 29 114 29 137 29 125 b 87 -56 29 48 56 -4 b 151 -138 101 -78 124 -110 l 293 -281 l 240 -119 b 281 -120 256 -121 263 -120 b 415 -110 313 -120 361 -119 b 498 -91 443 -105 473 -98 l 465 -183 l 574 -105 b 660 -33 600 -83 631 -59 b 709 11 676 -18 692 -3 b 878 145 776 49 834 96 b 934 228 902 172 920 200 b 962 316 950 257 958 287 z m 640 301 b 611 254 639 290 629 272 b 532 199 592 236 564 216 b 435 157 502 182 468 167 b 361 142 405 147 379 142 b 344 149 354 142 346 145 b 343 151 343 150 343 150 b 370 204 344 168 354 185 b 435 253 388 222 405 236 b 432 217 436 244 435 229 b 505 286 439 220 489 263 b 607 309 547 301 584 309 b 640 303 628 309 638 304 z m 429 -64 l 98 266 l 121 281 l 462 -58 z m 390 -72 l 120 199 b 147 210 134 203 146 208 l 424 -66 z m 467 -56 l 126 285 b 131 291 128 286 130 288 b 124 300 138 297 125 297 b 134 314 124 301 128 308 l 249 199 b 347 99 255 154 285 106 l 496 -47 b 467 -56 486 -50 476 -53 z m 349 -76 l 85 186 b 115 197 93 189 104 193 l 384 -72 b 349 -76 372 -74 360 -75 z m 304 -78 l 75 151 b 80 182 76 161 78 172 l 82 184 l 343 -76 b 304 -78 329 -77 316 -78 z m 257 -77 l 74 106 b 75 143 73 118 74 130 l 75 147 l 299 -78 l 281 -78 b 257 -77 272 -78 265 -78 z m 862 194 l 582 474 l 604 480 l 873 209 z m 842 170 l 759 253 b 670 342 756 288 721 325 l 545 467 l 566 471 l 854 184 z m 881 222 l 623 482 b 644 484 630 483 637 484 l 890 237 z m 356 546 l 557 345 b 533 340 549 344 542 342 l 351 521 z m 145 329 b 160 334 145 330 152 332 l 308 185 b 306 152 304 174 303 162 l 265 191 b 249 238 257 205 251 221 b 248 209 247 229 247 219 l 138 318 b 145 329 141 322 143 326 z m 216 -71 b 155 18 207 -69 161 12 b 169 -35 155 11 160 -11 l 82 50 b 77 78 80 59 78 67 b 74 103 76 85 74 94 l 253 -77 b 216 -71 239 -76 228 -74 z m 205 346 b 202 347 205 346 203 347 l 174 374 l 187 380 l 194 389 l 344 239 l 332 225 l 329 221 l 204 345 z m 284 481 l 446 321 b 438 304 442 312 439 306 l 432 301 l 268 466 z m 216 413 l 369 261 l 350 245 l 200 395 z m 261 459 l 423 296 b 404 284 417 292 410 287 l 245 443 z m 238 437 l 395 279 l 376 266 l 222 420 z m 502 -45 l 359 99 l 361 99 b 391 101 370 99 380 100 l 529 -35 z m 349 507 l 520 337 l 498 329 l 465 361 b 465 385 466 373 466 384 b 458 368 464 384 462 377 l 344 482 z m 897 252 l 690 458 b 709 463 697 460 703 462 l 905 269 b 897 252 903 264 901 257 z m 196 343 l 324 215 b 311 192 318 207 314 200 l 168 337 z m 536 -32 l 401 104 b 428 110 409 105 419 108 l 552 -13 b 536 -32 546 -21 540 -29 z m 308 502 l 330 480 b 338 446 331 459 334 442 b 342 468 338 448 340 456 l 455 355 l 449 331 l 293 488 z m 636 6 l 504 137 l 527 147 l 653 22 z m 910 285 l 729 467 l 749 470 l 916 303 z m 659 29 l 535 152 l 558 163 l 675 45 z m 557 -6 l 437 112 l 464 121 l 571 13 b 557 -6 566 6 562 0 z m 819 146 l 794 171 b 799 190 799 181 800 187 l 788 176 l 681 284 l 684 298 b 697 296 686 298 690 297 l 832 159 z m 683 52 l 565 168 l 585 181 l 698 68 z m 374 620 l 420 573 b 453 530 433 549 446 529 b 453 540 454 530 454 534 l 519 472 b 500 465 513 470 506 468 l 368 598 z m 576 20 l 472 124 l 497 134 l 591 38 b 576 20 587 34 581 28 z m 183 -76 b 196 -108 186 -85 190 -96 l 134 -45 b 106 3 122 -26 111 -9 b 83 46 96 15 89 29 l 170 -38 b 183 -76 173 -50 178 -63 z m 704 76 l 594 186 l 612 199 l 719 92 z m 362 576 b 363 582 362 578 363 580 l 487 459 b 468 451 479 456 472 453 l 359 560 z m 726 100 l 621 205 l 637 220 l 740 116 b 726 100 735 111 731 106 z m 463 620 l 588 496 l 567 489 l 448 610 z m 485 634 b 491 638 487 635 489 636 l 614 513 l 600 502 l 476 628 z m 748 125 l 644 228 l 650 233 l 658 244 l 761 141 z m 529 463 l 644 348 l 614 351 l 507 458 z m 675 271 l 781 166 l 768 151 l 665 253 b 675 271 669 260 673 265 z m 519 654 l 641 533 l 627 522 l 504 645 z m 493 454 l 596 351 l 572 348 l 470 449 z m 549 671 l 668 551 l 654 542 l 534 662 z m 438 599 l 553 485 b 533 478 547 483 540 481 l 446 565 b 438 599 442 579 438 592 z m 578 686 l 696 568 l 682 561 l 563 678 z m 608 702 l 649 661 b 645 656 645 658 644 656 b 653 657 646 656 649 656 l 725 585 l 710 577 l 594 694 b 608 702 598 697 603 700 z m 831 433 l 918 346 b 918 324 919 340 919 331 l 814 428 z m 114 205 l 72 247 l 88 257 l 94 263 l 147 210 b 114 205 147 210 132 208 z m 684 670 l 754 600 l 741 594 l 670 665 b 684 670 674 666 678 668 z m 75 198 l 44 229 b 68 245 52 235 61 240 l 109 204 z m 771 610 l 703 678 l 716 684 l 784 618 z m 748 698 l 813 632 l 800 626 l 735 691 z m 220 -165 b 150 -71 204 -147 169 -97 l 138 -52 l 197 -111 z m 612 -16 l 582 14 l 593 36 l 629 0 z m 864 441 b 878 432 869 439 874 436 l 893 416 b 913 375 902 405 909 391 l 849 439 b 864 441 857 441 863 442 z m 53 194 l 34 191 l 16 209 l 41 226 l 69 198 b 53 194 62 197 57 194 z m 578 5 l 606 -21 l 589 -40 l 567 -17 b 578 5 571 -9 575 -1 z m 787 476 l 823 442 l 810 433 l 768 473 z m 639 716 l 674 681 b 662 672 670 677 666 675 l 625 709 z m 159 344 l 144 360 l 167 371 l 191 347 z m 478 303 l 462 318 b 464 346 463 327 464 337 l 490 319 b 478 303 487 314 482 309 z m 671 731 l 701 700 l 689 691 l 657 724 z m 566 -62 l 552 -48 b 563 -25 556 -41 560 -33 l 583 -45 b 566 -62 577 -50 572 -57 z m 795 124 l 777 143 l 787 159 l 810 137 z m 827 482 l 850 459 l 838 451 l 810 480 b 827 482 814 480 821 481 z m 701 744 l 728 718 l 717 710 l 688 738 b 701 744 692 740 697 743 z m 686 487 l 703 470 l 687 462 l 663 486 b 686 487 671 486 678 487 z m 780 708 l 783 708 l 808 683 l 799 674 l 768 705 b 780 708 774 707 778 708 z m -5 185 l -11 190 l 13 207 l 30 191 b -5 185 16 189 3 187 z m 770 103 l 757 115 l 769 132 l 785 115 z m 744 729 l 721 752 b 734 757 725 753 730 755 l 755 736 z m 821 670 l 842 649 l 831 643 l 808 667 z m 118 340 l 112 344 b 137 357 119 348 127 353 l 151 344 z m 856 682 l 872 665 l 864 660 l 860 658 l 842 677 z m 765 770 l 783 753 l 772 747 l 753 766 b 765 770 757 768 762 769 z m 868 488 l 879 476 l 866 469 l 848 486 z m 541 -83 l 538 -81 b 549 -56 541 -75 544 -65 l 560 -66 b 541 -83 552 -74 546 -79 z m 384 650 b 401 610 386 644 392 628 l 378 634 b 384 650 379 639 381 644 z m 744 82 l 738 88 l 751 106 l 761 95 z m 893 689 l 905 676 b 893 672 901 675 897 674 l 878 687 z m 786 779 b 798 783 791 781 795 782 l 811 770 l 801 764 z m 818 717 l 830 706 b 822 698 826 703 823 700 l 807 714 z m 332 522 b 330 496 331 515 330 505 l 316 510 z m 734 485 l 737 482 b 719 476 731 481 724 479 l 708 487 z m 831 796 l 839 788 l 829 782 l 819 792 b 831 796 824 794 828 795 z m 458 285 b 459 300 458 288 458 295 b 460 306 459 301 459 302 l 470 295 z m 928 684 l 922 690 l 938 690 l 940 687 z m 855 726 l 857 725 b 847 718 855 723 850 721 l 842 723 b 855 726 846 724 851 726 z m 905 491 l 895 485 l 890 490 b 905 491 895 491 901 491 z m -20 183 b -13 189 -18 184 -16 187 l -9 185 b -20 183 -14 184 -18 183 z m 865 806 l 858 800 l 855 803 z m 104 339 b 107 341 105 339 106 340 l 110 339 z m 733 78 l 735 76 b 733 75 734 76 733 75 b 733 78 731 73 731 75 z "},"7":{"ha":937,"x_min":0,"x_max":0,"o":"m 971 262 l 846 323 l 851 327 l 894 364 l 899 366 b 983 394 937 377 967 387 l 1116 455 l 971 475 b 937 476 964 476 953 476 b 849 474 915 476 884 475 b 919 537 871 495 894 515 b 1003 587 928 544 975 571 b 1069 625 1050 612 1063 620 l 1186 718 l 1043 697 l 1114 754 l 1037 770 b 964 777 1034 771 1027 772 b 893 779 950 778 910 779 l 1007 936 b 713 780 951 921 791 834 b 428 762 609 778 519 772 b 283 732 389 757 316 741 l 69 671 l 268 651 b 216 605 260 644 248 637 l 224 591 b 114 550 158 572 129 561 l -42 449 l 143 472 b 162 474 145 473 154 473 b 280 487 188 476 232 481 l 333 494 b 487 509 384 500 439 505 l 427 449 l 366 443 l 365 443 b 259 428 330 439 292 434 b 178 409 198 418 184 412 l 18 347 l 140 331 l 130 322 b 116 307 124 316 120 312 l 76 254 l 76 253 b 52 238 68 250 60 245 l -76 141 l 83 161 l 186 175 l 168 152 b 27 -44 115 87 57 12 l -73 -223 l 90 -98 l 111 -85 l 132 -73 b 167 -56 141 -67 154 -61 l 188 -77 l 217 -57 l 212 -69 b 182 -156 196 -112 186 -139 l 139 -372 l 260 -188 b 393 -9 280 -158 326 -93 b 585 215 440 50 512 137 b 828 244 639 221 813 243 z m 406 239 l 378 237 l 272 344 l 300 349 l 483 166 l 468 149 l 386 230 b 406 239 395 233 403 236 z m 479 244 b 501 238 475 240 487 239 l 526 214 l 512 198 l 348 361 b 357 365 354 362 358 364 b 342 366 356 366 349 366 l 315 394 l 343 397 l 495 246 b 479 244 486 245 479 244 z m 724 275 l 713 272 l 512 473 l 526 487 l 699 313 b 700 312 698 312 699 312 l 736 276 b 724 275 732 276 729 275 z m 489 173 l 311 351 l 337 358 l 505 190 z m 384 48 l 248 184 b 264 203 253 190 259 196 l 400 67 z m 363 22 l 327 59 b 339 81 334 71 339 79 b 318 66 339 83 330 77 l 228 158 l 244 178 l 379 43 z m 684 641 b 673 636 682 641 678 639 l 577 732 b 596 733 583 732 590 732 l 822 507 l 811 498 l 675 634 z m 548 509 l 684 374 l 672 362 b 687 370 674 362 679 365 l 736 322 l 715 317 l 535 497 z m 404 73 l 271 206 l 301 212 l 421 93 z m 507 248 l 356 399 l 371 401 l 384 402 l 534 251 b 507 248 524 249 515 249 z m 548 252 l 399 403 l 425 405 l 575 256 z m 467 409 l 614 261 l 589 257 l 440 406 z m 631 263 l 483 410 l 509 412 l 656 266 z m 639 735 l 845 529 l 835 519 l 621 734 b 639 735 627 735 634 735 z m 671 267 l 526 415 l 550 417 l 696 270 z m 425 98 l 310 214 b 339 219 319 215 329 217 l 441 118 z m 684 737 l 870 550 l 860 542 l 666 736 b 684 737 671 736 677 737 z m 564 559 l 444 681 b 453 686 450 683 453 685 b 438 686 453 686 447 687 l 409 716 l 429 719 l 579 569 z m 334 235 l 235 334 l 263 342 l 368 237 z m 295 44 l 207 132 l 223 153 l 314 62 z m 572 532 l 706 396 l 694 385 l 559 519 z m 270 22 l 186 107 b 203 127 192 113 198 121 l 292 41 z m 249 7 l 243 4 l 207 40 l 210 47 l 203 43 l 166 80 l 184 104 l 266 19 b 249 7 260 14 253 10 z m 594 554 l 729 419 l 717 407 l 582 543 z m 446 123 l 349 221 l 377 228 l 463 142 z m 616 576 l 751 441 l 739 429 l 605 565 z m 728 738 l 766 700 b 760 692 762 696 760 692 b 770 696 762 692 765 693 l 844 623 b 841 619 842 621 841 620 b 846 620 841 619 843 619 l 894 572 b 891 569 893 571 891 569 l 884 563 l 709 737 b 728 738 716 737 721 738 z m 293 232 l 204 321 l 228 330 l 324 234 z m 592 578 l 450 721 b 470 723 456 721 463 722 l 606 588 z m 768 457 l 764 453 l 628 588 l 640 599 l 775 464 z m 662 622 l 798 486 b 787 475 794 483 791 479 l 652 611 z m 252 226 l 209 269 b 210 270 209 269 210 269 b 202 276 212 272 208 275 l 174 303 b 178 310 176 306 177 308 l 196 317 l 282 231 z m 524 553 l 409 670 b 427 675 416 671 422 673 l 547 554 b 524 553 540 554 532 554 z m 481 551 l 372 659 l 392 666 l 504 552 b 481 551 497 552 488 551 z m 512 726 l 631 607 l 619 597 l 491 725 b 512 726 498 725 505 726 z m 438 548 l 338 649 l 357 655 l 463 550 b 438 548 454 549 446 548 z m 394 544 l 312 628 b 327 640 316 631 322 635 l 421 546 b 394 544 412 546 404 545 z m 645 616 l 534 729 b 554 730 541 729 548 730 l 658 626 b 645 616 654 623 651 620 z m 354 540 l 319 573 b 331 578 326 574 330 576 b 304 588 333 582 319 584 l 284 608 b 300 622 290 613 296 619 l 379 543 z m 740 408 l 778 371 b 775 369 776 370 775 369 b 784 364 774 366 778 365 l 803 344 l 792 337 b 790 335 791 335 791 335 l 726 399 z m 210 220 l 175 256 b 203 266 185 260 196 263 l 244 225 l 229 223 z m 178 22 l 145 54 b 163 77 152 62 158 69 l 200 41 z m 342 -3 l 308 31 l 323 53 l 359 17 b 342 -3 354 10 347 3 z m 323 -30 l 290 2 l 306 27 l 340 -7 b 323 -30 333 -15 328 -22 z m 714 389 l 772 330 b 753 326 766 328 760 327 l 700 378 b 714 389 704 381 708 386 z m 287 0 l 319 -32 l 302 -54 l 274 -27 b 287 0 277 -20 281 -11 z m 798 713 l 871 640 l 860 634 l 787 706 z m 154 0 l 126 29 l 143 51 l 175 20 z m 826 731 l 900 657 l 889 651 l 815 724 z m 158 248 l 168 253 l 203 219 l 171 215 l 145 239 z m 129 -21 l 107 1 l 124 26 l 152 -1 b 129 -21 144 -9 137 -16 z m 919 667 l 847 738 l 863 738 l 928 672 b 919 667 925 671 922 669 z m 212 -11 l 193 6 l 205 35 l 238 2 z m 768 426 l 812 382 l 794 376 l 753 417 z m 292 -71 b 283 -82 288 -74 285 -78 l 262 -61 l 272 -31 l 300 -59 b 292 -71 297 -62 294 -66 z m 754 278 l 720 312 l 745 312 l 778 279 b 754 278 770 279 762 278 z m 313 534 l 284 564 l 307 568 l 339 537 b 328 536 335 537 331 536 z m 513 426 l 489 451 l 502 464 l 542 424 b 513 426 534 425 525 426 z m 810 429 l 845 394 b 827 390 839 392 832 391 l 788 427 z m 111 -36 l 104 -41 l 88 -25 l 96 -14 l 105 0 l 128 -24 z m 272 529 l 247 553 b 250 554 248 553 249 554 l 270 561 l 298 532 l 278 530 b 272 529 276 530 274 529 z m 141 237 l 163 214 l 130 208 l 113 224 z m 909 737 l 957 690 b 948 685 954 688 951 686 l 894 738 b 909 737 897 738 902 738 z m 265 -110 l 248 -93 b 260 -64 252 -83 256 -74 l 281 -85 z m 296 366 l 275 388 l 302 392 l 327 366 z m 797 280 l 765 313 b 785 310 775 312 783 311 b 804 299 788 307 796 302 l 823 281 b 797 280 815 281 807 281 z m 878 632 l 922 589 l 911 582 l 866 627 z m 912 644 l 952 605 l 941 599 l 900 640 b 912 644 906 643 911 644 z m 394 683 l 370 708 l 386 712 l 391 712 l 418 685 z m 232 524 l 212 543 l 235 550 l 257 527 z m 351 679 l 329 702 l 351 705 l 376 682 z m 250 365 l 235 381 l 263 386 l 283 366 b 250 365 269 365 259 365 z m 853 432 l 879 405 l 863 401 l 832 431 b 853 432 839 431 846 431 z m 247 -139 l 235 -127 b 247 -96 239 -118 244 -107 l 263 -112 z m 757 754 l 787 724 l 779 715 l 747 747 z m 79 -63 l 69 -52 l 87 -27 l 101 -43 z m 190 518 l 176 532 b 201 540 185 534 192 536 l 219 521 z m 946 646 b 955 647 949 646 952 646 l 981 621 l 970 615 l 940 645 b 946 646 941 645 943 646 z m 108 222 l 124 207 l 91 202 l 82 210 b 108 222 91 215 99 219 z m 957 734 l 987 705 b 978 701 984 703 981 702 l 942 735 b 957 734 948 735 953 735 z m 302 683 l 291 696 b 313 700 297 697 304 699 l 332 679 l 327 679 z m 151 281 l 169 299 l 191 278 b 151 281 177 279 159 279 z m 784 771 l 809 748 l 801 739 l 775 765 z m 896 433 l 915 416 b 907 413 911 415 909 413 l 899 410 l 877 433 z m 230 -168 l 223 -160 l 235 -129 l 246 -141 b 230 -168 240 -150 234 -159 z m 150 513 l 142 520 l 167 529 l 178 516 z m 202 368 l 197 374 l 224 379 l 237 366 b 202 368 230 368 216 368 z m 812 791 l 830 771 l 823 763 l 802 784 z m 56 -85 l 51 -81 b 68 -53 57 -74 62 -63 l 78 -63 b 56 -85 69 -71 62 -79 z m 994 653 l 1010 637 l 1000 632 l 982 651 b 994 653 986 652 989 653 z m 545 234 l 533 221 l 516 238 b 545 234 533 238 547 237 z m 937 434 l 941 434 l 951 423 l 935 420 l 922 434 z m 193 -21 b 191 0 188 -16 198 0 l 192 3 l 209 -13 z m 839 808 l 851 795 b 844 787 849 793 846 791 l 830 802 z m 213 -197 l 212 -196 l 222 -162 l 229 -169 z m 1007 731 l 1017 720 l 1009 716 l 993 732 b 1007 731 998 731 1003 731 z m 467 428 l 480 441 l 494 427 b 467 428 485 428 476 428 z m 78 208 l 85 201 l 59 197 b 78 208 64 201 71 204 z m 1020 657 b 1033 659 1025 658 1030 659 l 1041 653 l 1030 647 z m 866 826 l 873 818 l 866 812 l 858 821 b 866 826 861 822 863 824 z m 112 507 b 132 517 115 510 123 513 l 138 511 b 112 507 125 510 115 507 z m 984 436 l 987 433 b 972 428 983 432 978 431 l 966 435 b 984 436 973 436 979 436 z m 259 689 l 260 690 l 275 692 l 280 686 z m 170 366 l 187 372 l 191 366 b 170 366 182 366 172 365 z m 824 359 l 817 354 l 809 361 b 824 359 815 361 822 360 z m 42 -98 l 51 -82 l 54 -85 b 42 -98 48 -92 43 -96 z m 271 596 l 276 599 l 284 591 b 271 596 278 592 272 594 z m 893 840 b 889 835 892 840 891 838 l 887 838 b 893 840 889 839 891 840 z m 1065 666 l 1061 662 l 1059 665 b 1065 666 1062 666 1064 666 z m 846 282 b 843 281 845 282 844 281 l 840 284 b 846 282 842 283 844 282 z m 213 -198 b 210 -201 212 -199 210 -200 b 212 -197 210 -200 210 -198 z "},"8":{"ha":991,"x_min":0,"x_max":0,"o":"m 916 123 l 1089 282 l 874 196 b 881 240 878 210 881 225 b 829 359 880 283 862 324 b 787 395 817 372 803 384 b 881 460 826 419 857 440 b 964 585 933 503 959 544 b 965 608 965 593 965 600 b 1088 545 996 600 1032 589 b 824 791 1019 694 872 772 b 754 809 802 799 779 804 l 754 810 l 811 935 l 693 863 b 623 813 667 846 646 827 b 409 752 554 806 479 784 b 326 744 401 749 361 744 l 314 744 l 179 752 l 277 674 b 212 607 251 653 229 630 b 176 497 185 569 173 532 b 190 448 178 480 183 464 b 217 408 197 434 205 421 b 235 390 222 402 229 396 b 95 302 181 360 135 331 b 53 279 88 297 71 288 b -207 91 22 263 -97 205 l -56 131 b -67 66 -63 110 -67 88 b 14 -94 -67 12 -40 -44 b 104 -160 38 -118 69 -140 b 222 -215 139 -181 178 -199 l 426 -292 l 270 -147 b 620 -48 371 -146 500 -109 b 916 123 687 -17 848 61 z m 93 191 l 377 -91 b 344 -97 366 -94 355 -96 l 63 183 z m 59 182 l 339 -98 b 303 -103 327 -100 315 -101 l 29 171 b 59 182 37 174 47 178 z m 264 -105 l 260 -105 l 2 151 l 11 163 l 25 170 l 298 -103 b 264 -105 286 -104 275 -105 z m 128 203 l 247 84 b 263 58 249 75 254 66 b 298 31 268 51 282 42 l 413 -82 l 382 -90 l 99 193 b 128 203 110 197 121 200 z m 210 -103 l -13 121 l 1 149 l 254 -105 b 210 -103 238 -105 224 -104 z m 513 197 b 454 161 498 185 476 172 b 310 125 403 139 349 125 l 300 125 b 307 130 302 126 304 128 b 357 166 318 141 335 153 b 496 240 395 189 446 216 b 521 223 506 234 515 229 l 533 214 b 513 197 530 209 524 204 z m 194 -136 l 248 -189 b 157 -141 218 -175 183 -156 l -20 36 b -25 66 -24 47 -25 57 b -24 82 -25 72 -24 77 l 100 -42 b 194 -136 125 -77 171 -116 z m 580 325 l 573 321 l 454 439 b 472 448 459 442 466 444 l 783 137 l 763 129 l 576 317 b 580 325 580 321 582 324 z m 799 145 b 796 142 798 144 798 143 l 486 454 l 504 463 l 809 157 z m 267 608 l 435 440 b 422 427 429 436 425 432 b 440 434 425 427 432 431 l 560 315 l 540 307 l 254 593 b 267 608 259 597 262 603 z m 247 583 l 528 301 b 509 293 521 299 515 295 l 235 565 b 247 583 238 572 243 577 z m 230 554 l 497 287 l 475 278 l 222 533 b 230 554 224 540 226 547 z m 193 -101 b 83 3 181 -100 94 -36 b 94 -32 81 -6 85 -18 l -24 84 b -14 119 -21 96 -18 107 l 206 -103 b 193 -101 202 -103 198 -101 z m 816 169 l 517 468 l 534 476 l 826 185 z m 384 338 l 347 361 l 221 488 b 219 501 220 493 219 497 b 219 519 218 506 218 513 l 466 274 b 457 269 462 271 458 269 l 446 263 l 366 341 b 384 338 375 338 381 337 z m 831 200 l 548 483 l 562 489 b 566 491 563 489 564 490 l 837 219 b 831 200 835 213 833 206 z m 454 -69 l 304 81 b 310 82 306 81 308 82 b 338 83 318 82 328 82 l 482 -60 b 454 -69 471 -64 463 -67 z m 141 209 b 128 210 137 209 132 210 l 91 248 l 118 259 l 250 125 b 248 119 249 123 248 121 b 245 94 246 111 245 103 l 134 205 b 141 209 137 206 140 208 z m 728 119 l 548 298 l 565 309 l 749 125 z m 449 -15 b 490 -22 455 -19 471 -21 l 516 -48 l 489 -58 l 346 84 l 376 91 l 482 -15 z m 691 110 l 576 224 b 533 267 571 239 556 253 l 522 279 l 538 291 l 714 115 b 691 110 706 113 699 111 z m 831 476 l 753 556 b 755 554 753 554 754 554 b 708 600 745 574 728 590 l 584 724 b 595 733 588 726 591 731 l 843 486 z m 316 651 l 463 503 b 474 490 466 499 469 495 l 481 484 l 488 478 l 471 468 l 301 639 z m 291 630 l 460 460 l 444 449 l 277 618 z m 420 -80 l 319 19 b 360 5 333 13 347 7 b 293 63 338 24 293 46 b 299 78 293 68 295 74 l 448 -72 l 447 -73 z m 151 271 l 268 153 b 253 132 262 145 256 139 l 124 261 b 151 271 132 264 141 268 z m 223 334 l 347 210 l 326 198 l 202 322 z m 644 17 l 516 146 l 535 159 l 667 26 b 644 17 659 24 652 20 z m 678 30 l 544 166 b 560 179 549 170 554 174 l 699 40 z m 574 -3 l 454 115 l 478 126 l 599 3 z m 252 350 l 376 226 l 355 215 l 231 339 z m 610 6 l 486 130 b 506 141 494 134 500 138 l 635 14 b 610 6 626 11 619 9 z m 620 753 l 832 541 l 824 530 l 610 746 z m 290 172 l 274 158 l 158 274 b 184 282 167 277 175 280 l 293 174 z m 282 366 l 405 243 l 385 232 l 261 355 z m 706 395 l 834 266 b 839 240 837 257 838 249 l 839 239 l 644 434 z m 534 -10 l 421 103 l 446 112 l 563 -5 b 534 -10 553 -7 544 -9 z m 491 -14 l 385 93 b 412 100 393 95 403 97 l 524 -11 b 491 -14 513 -12 502 -14 z m 478 553 l 319 713 l 348 709 l 490 566 z m 135 -128 b -19 32 49 -80 -4 -24 l 152 -138 z m 644 775 l 853 567 l 845 557 l 635 766 z m 219 292 l 319 193 b 298 178 312 188 304 184 l 192 284 z m 344 350 l 436 259 l 415 247 l 293 370 b 344 350 302 368 324 358 z m 399 703 l 516 585 l 502 576 l 371 706 z m 369 642 l 469 542 b 462 525 466 536 463 530 l 333 652 b 369 642 344 650 357 645 z m 532 751 l 566 717 b 564 712 564 714 562 712 b 569 714 565 712 567 713 l 665 619 b 640 623 655 622 646 623 l 515 747 z m 653 101 l 567 188 b 578 206 572 194 576 200 l 677 107 z m 669 796 l 689 775 b 690 774 689 774 689 774 l 691 774 l 732 733 b 718 732 726 733 722 732 b 739 725 724 730 731 729 l 827 638 b 807 642 819 640 812 641 l 659 787 z m 497 740 l 616 622 l 598 619 l 481 735 b 497 740 486 737 491 739 z m 778 439 l 663 552 b 674 563 668 556 671 559 l 791 448 b 778 439 786 444 782 441 z m 749 421 l 638 532 l 651 542 l 763 429 z m 705 419 l 610 515 l 624 524 l 734 412 b 705 419 729 411 718 415 z m 452 694 l 546 601 b 530 594 541 598 535 596 l 424 700 z m 592 553 b 514 515 565 536 535 522 l 506 520 l 512 528 b 544 552 519 536 531 545 b 629 580 569 568 601 578 b 592 553 620 573 608 563 z m 806 457 l 688 575 b 697 577 690 576 692 577 b 706 576 699 577 703 577 l 817 466 z m 501 685 b 450 723 509 688 442 720 b 463 729 454 724 458 728 l 578 613 b 562 608 573 612 567 610 l 482 689 b 501 685 488 688 494 686 z m 637 441 l 580 498 b 596 506 585 500 591 503 l 669 433 b 637 441 655 437 643 441 z m 684 99 l 730 54 l 710 45 l 654 100 b 684 99 662 99 673 99 z m 88 205 l 60 234 b 85 246 66 237 75 241 l 121 210 z m 726 103 l 760 71 l 740 60 l 700 100 z m 811 698 b 873 632 815 681 873 645 l 864 632 l 861 632 l 784 710 b 811 698 799 704 810 699 z m 49 197 l 29 217 l 53 231 l 81 204 b 49 197 72 202 60 200 z m 882 718 l 936 665 b 907 679 926 669 917 674 l 853 733 b 882 718 863 729 874 723 z m 755 108 b 765 110 757 108 762 109 l 788 87 b 784 84 786 85 785 84 l 770 76 l 741 105 z m 740 768 l 784 725 b 764 730 777 728 770 729 l 722 771 z m 14 186 l 0 201 l 25 215 l 45 196 z m 794 756 l 801 753 l 847 707 l 838 712 l 825 715 l 780 761 b 794 756 784 760 788 757 z m 534 -22 l 548 -36 l 522 -45 l 500 -22 z m 182 295 l 173 304 l 194 317 l 218 294 b 182 295 210 295 200 296 z m 842 532 l 868 506 l 857 498 l 830 524 b 842 532 834 526 839 529 z m 799 121 l 816 104 l 800 94 l 779 114 z m 865 553 l 890 529 l 880 519 l 857 544 z m -20 175 l -29 184 b -3 199 -20 188 -12 193 l 10 185 z m 568 761 l 587 741 l 578 732 l 552 757 z m 279 409 b 229 464 256 425 239 443 l 297 395 z m 887 579 l 909 556 l 903 545 l 879 569 z m 831 134 l 845 121 b 828 110 840 116 833 113 l 813 126 z m 284 -205 l 255 -193 l 213 -151 b 284 -205 244 -175 276 -198 z m 904 606 l 922 589 l 918 575 l 899 595 z m 276 717 b 297 715 283 716 290 715 l 326 685 b 276 717 302 700 279 714 z m 863 147 l 873 138 l 857 128 l 845 140 z m 577 -19 l 581 -24 b 557 -33 574 -26 565 -29 l 545 -21 b 577 -19 556 -21 567 -20 z m 851 610 b 851 596 855 605 854 600 l 819 629 b 851 610 833 621 850 612 z m -54 162 l -58 166 b -32 182 -51 171 -42 175 l -25 174 z m 693 817 l 705 804 l 699 795 l 685 810 z m 894 162 l 900 156 l 886 146 l 877 155 b 894 162 882 157 889 159 z m 606 768 l 607 766 l 599 755 l 590 765 z m 717 823 l 709 831 l 717 838 l 723 832 z m 924 177 l 926 174 b 912 165 923 171 918 168 l 908 170 z m 811 313 l 771 353 b 811 313 787 340 800 328 z m 157 294 l 167 300 l 172 295 b 157 294 168 295 162 294 z m 915 632 b 920 621 917 629 918 625 l 913 627 b 915 632 913 628 913 630 z m -71 157 l -60 165 l -58 161 z m 593 -18 b 590 -19 592 -18 591 -19 l 589 -18 z "},"9":{"ha":932,"x_min":0,"x_max":0,"o":"m 940 515 l 940 516 l 944 541 l 955 599 l 900 591 b 934 636 896 601 917 637 b 925 649 931 642 927 645 b 1101 613 974 645 1032 634 b 983 717 1066 645 1046 671 b 728 792 917 765 800 792 b 572 771 673 792 626 785 b 483 806 554 777 515 793 l 341 863 l 433 740 l 438 733 b 360 703 416 725 389 715 b 162 598 284 671 218 636 l -45 457 l 142 506 b 134 495 139 503 137 499 b 83 349 104 447 87 399 b 162 197 79 286 110 233 b 229 160 186 181 214 167 l 240 155 b 202 151 228 154 215 153 b 155 145 187 150 171 147 l 24 136 l -100 127 l 2 58 b 22 48 9 53 14 51 b 17 47 20 48 19 47 b -28 29 -1 42 -16 38 l -94 -27 l -111 -30 b -138 -34 -121 -31 -130 -32 l -341 -71 l -140 -118 b -2 -126 -114 -124 -69 -126 b 114 -124 44 -126 90 -125 l 127 -124 b 160 -123 138 -124 150 -123 l 11 -276 b 425 -83 158 -214 301 -151 b 562 -33 474 -71 520 -53 b 676 42 604 -12 642 13 b 839 243 740 93 793 159 b 941 333 854 259 923 318 l 1084 446 l 910 409 b 940 515 924 451 935 488 z m 460 239 l 194 506 b 208 522 199 512 203 517 l 360 370 b 403 327 368 356 381 339 l 483 248 b 460 239 475 245 468 241 z m 425 229 l 175 480 l 188 498 l 449 236 z m 389 219 l 157 450 l 169 470 l 413 225 z m 350 212 l 142 419 b 153 442 145 426 149 435 l 377 217 b 350 212 368 215 359 213 z m 324 -84 l 286 -47 b 301 -33 293 -41 298 -35 b 280 -41 297 -33 290 -36 l 138 101 l 159 103 b 172 104 163 103 168 104 l 348 -71 z m 321 208 b 297 218 317 207 308 212 l 131 385 b 139 409 134 393 136 401 l 339 209 b 321 208 332 209 327 208 z m 544 462 b 462 425 518 447 489 434 b 422 417 448 422 435 419 b 429 424 424 419 426 422 b 513 485 451 444 480 466 b 612 535 546 505 580 522 b 636 544 621 538 629 541 b 544 462 607 505 573 479 z m 354 -68 l 179 105 l 213 109 l 376 -54 z m 249 -57 l 94 98 l 130 100 l 275 -44 b 249 -57 267 -47 257 -51 z m 382 -51 l 221 110 l 253 113 l 405 -37 b 382 -51 397 -43 390 -47 z m 331 171 l 338 165 b 292 177 322 168 306 173 l 125 344 b 126 347 125 345 126 346 b 129 375 126 356 127 365 l 240 264 b 331 171 241 235 306 189 z m 411 -33 l 263 114 l 294 120 l 433 -20 z m 440 -16 l 302 121 l 331 127 l 460 -2 z m 581 26 l 551 56 b 552 61 554 60 556 61 b 549 59 551 60 550 59 l 442 166 b 463 176 449 169 456 172 l 601 38 z m 626 739 l 855 512 b 849 497 853 506 851 501 l 611 736 z m 198 -79 b 181 -80 191 -79 186 -80 l 126 -26 b 129 -24 127 -25 128 -24 b 122 -21 130 -22 127 -21 l 77 22 b 106 35 83 26 95 30 l 215 -74 b 198 -79 207 -77 201 -79 z m 218 -72 l 109 36 b 135 51 121 42 130 47 l 245 -59 b 218 -72 235 -63 225 -67 z m 468 1 l 341 129 l 366 136 l 488 14 z m 610 45 l 472 182 l 490 194 l 627 57 z m 517 214 l 653 77 l 637 64 l 500 201 z m 662 84 l 526 221 l 541 235 l 677 98 z m 252 193 b 212 212 238 199 224 204 l 137 287 b 126 332 130 301 126 316 l 272 185 b 252 193 264 189 256 191 z m 218 533 l 234 542 l 363 412 b 356 390 359 405 357 397 l 216 531 z m 496 19 l 376 139 l 402 147 l 515 33 z m 708 130 l 572 267 l 584 283 l 721 144 z m 686 107 l 549 244 b 563 257 554 248 559 252 l 700 121 z m 708 199 l 713 199 l 741 170 b 730 155 738 165 734 160 l 592 293 b 603 309 595 298 598 303 l 710 201 z m 524 38 l 410 151 b 427 158 416 153 422 155 l 434 161 l 542 52 z m 818 343 l 659 503 l 669 515 l 832 351 z m 848 363 b 846 361 848 362 847 362 l 679 530 l 687 542 l 854 376 b 848 363 851 372 849 368 z m 731 293 l 585 438 l 599 448 l 745 303 b 731 293 737 299 732 295 z m 265 557 l 382 438 l 370 422 l 246 547 z m 759 311 l 612 458 b 625 469 616 462 621 465 l 774 319 z m 788 327 l 637 480 b 647 490 640 483 644 486 l 803 335 z m 860 395 l 697 558 b 704 572 699 562 702 566 l 865 409 b 860 395 863 404 861 400 z m 469 509 l 333 644 l 350 652 l 484 518 z m 415 678 l 543 550 l 527 543 l 397 672 z m 381 666 l 513 535 l 498 527 l 365 659 z m 533 741 l 678 596 l 661 594 l 495 760 z m 296 569 l 405 460 l 391 448 l 277 561 b 296 569 283 564 290 567 z m 638 364 l 761 240 l 747 230 l 629 349 z m 721 210 l 611 321 l 621 335 l 735 221 z m 448 691 l 574 565 b 558 558 568 563 563 561 l 431 685 z m 528 265 l 420 374 b 442 377 427 375 435 375 l 546 274 z m 328 583 l 431 482 l 416 470 l 310 576 z m 872 428 l 721 579 l 738 582 l 876 443 b 872 428 875 438 874 434 z m 481 703 l 606 578 l 591 572 l 465 697 z m 556 282 l 457 380 l 480 387 l 569 296 b 556 282 564 292 560 286 z m 362 595 l 457 500 b 441 489 452 496 447 494 l 343 589 z m 579 306 l 494 391 l 513 399 l 592 318 z m 613 698 b 601 718 618 699 609 708 l 726 594 b 705 595 719 594 712 595 l 589 713 z m 561 662 b 443 783 559 671 451 772 l 450 780 l 640 589 l 625 584 l 526 683 b 561 662 542 672 557 661 z m 135 -80 l 90 -35 l 123 -27 l 176 -80 b 135 -80 162 -81 153 -80 z m 666 746 l 718 693 b 716 692 717 692 716 692 b 719 691 717 692 718 691 l 784 627 b 770 623 779 626 775 625 l 651 744 b 666 746 655 744 660 745 z m 601 329 l 527 405 l 544 413 l 614 342 z m 91 -82 l 50 -42 l 85 -35 l 131 -81 l 126 -81 b 91 -82 119 -81 106 -82 z m 495 252 l 429 316 b 464 312 440 313 451 312 l 515 260 z m 45 -83 l 10 -48 l 48 -43 l 88 -82 b 45 -83 75 -83 61 -83 z m 625 354 l 558 421 l 573 429 l 636 365 z m 75 -20 l 44 10 b 72 20 53 13 64 16 b 74 21 72 20 73 20 l 116 -21 b 75 -20 106 -20 91 -20 z m -25 -56 b 9 -49 -19 -53 -6 -51 l 43 -83 l -1 -83 l -28 -57 b -25 -56 -27 -56 -26 -56 z m 282 -51 l 318 -88 l 294 -100 l 263 -71 z m 75 71 l 49 96 l 82 97 l 88 97 l 125 61 b 75 71 110 64 87 67 z m -161 -74 b -67 -63 -143 -69 -103 -67 l -48 -82 b -161 -74 -93 -81 -142 -78 z m 813 595 b 826 583 817 589 822 584 l 827 583 l 865 545 b 861 532 864 542 863 536 l 783 610 b 813 595 800 605 811 598 z m 264 -118 l 239 -92 l 260 -74 l 290 -104 z m 391 372 l 403 372 l 459 316 b 391 372 403 332 385 372 z m 26 -17 b 19 -11 25 -15 22 -13 l 7 0 b 41 9 16 3 29 5 l 71 -20 b 26 -17 48 -20 27 -19 z m -47 -82 l -66 -63 b -29 -57 -52 -62 -40 -59 l -2 -83 b -47 -82 -15 -83 -31 -83 z m 339 593 l 302 629 l 319 638 l 361 596 b 339 593 356 596 347 594 z m 749 299 l 787 261 l 774 250 l 732 293 b 749 299 734 293 740 296 z m 770 686 l 822 635 l 808 631 l 751 688 z m 707 749 l 756 700 l 741 698 l 691 748 b 707 749 697 748 702 749 z m 216 -115 b 236 -95 223 -109 230 -103 l 260 -119 b 234 -132 251 -124 243 -128 z m 300 585 l 271 613 l 272 614 b 288 623 278 616 283 620 l 322 590 z m 552 10 l 529 33 l 545 48 l 573 21 z m 781 312 l 813 280 l 800 270 l 765 306 z m 753 748 l 800 702 b 784 701 795 702 790 701 l 737 749 b 753 748 743 749 748 749 z m 263 576 l 240 598 l 259 607 l 284 581 z m 804 743 l 847 700 b 830 701 842 700 835 701 l 786 745 b 804 743 793 745 798 744 z m 520 -4 l 504 12 l 521 27 l 544 5 b 520 -4 536 1 528 -1 z m 826 290 l 797 318 l 813 326 l 840 299 z m 863 729 l 904 689 l 886 692 l 845 734 b 863 729 851 732 858 731 z m 203 -149 l 193 -139 b 214 -119 200 -131 205 -126 l 230 -135 z m 228 566 l 210 582 l 229 592 l 249 573 z m 844 340 l 865 318 l 853 309 l 829 332 z m 745 212 l 761 197 l 750 182 l 728 204 b 745 212 733 206 739 208 z m 863 502 l 887 479 b 882 464 886 474 885 469 l 856 490 z m 835 666 l 856 645 l 843 642 l 807 678 b 835 666 817 675 827 671 z m 4 96 l 44 96 l 65 76 b 4 96 49 83 7 93 z m 488 -18 l 480 -10 l 497 5 l 512 -9 z m 190 556 l 181 566 l 199 577 l 213 562 z m 879 329 l 861 346 l 876 353 l 891 338 b 879 329 888 334 884 332 z m 880 530 l 896 514 l 893 500 l 874 519 z m 172 -163 l 170 -162 b 191 -141 174 -157 183 -150 l 201 -151 b 172 -163 190 -156 179 -160 z m 894 360 l 908 366 l 918 357 l 906 348 z m 155 545 l 151 550 l 170 561 l 178 552 z m 955 682 l 964 674 b 947 678 957 675 952 676 l 925 700 z m 776 226 l 779 224 l 769 208 l 759 219 z m 855 601 l 858 598 b 858 582 857 592 857 588 l 845 594 b 855 601 848 597 851 599 z m 933 368 l 927 374 l 940 379 l 943 376 z m 473 -15 l 480 -21 b 465 -27 474 -22 470 -25 b 473 -15 460 -28 465 -24 z m 894 547 b 903 548 897 547 900 548 l 901 538 l 893 546 z m 0 -4 l 5 -1 l 12 -7 b 0 -4 9 -6 4 -4 z m 131 538 l 140 544 l 143 542 b 131 538 139 540 134 538 z m 169 -163 l 170 -165 l 165 -168 b 169 -163 165 -167 168 -165 z "},"m":{"ha":1149,"x_min":0,"x_max":0,"o":"m 1277 803 l 1353 962 l 1210 859 l 1183 838 l 1150 812 l 1176 888 l 1080 843 b 892 735 1068 838 956 782 b 630 533 835 696 708 590 b 625 583 628 549 626 566 b 627 694 622 626 623 668 l 639 760 l 590 747 b 625 949 594 779 598 827 l 525 839 l 501 811 b 472 777 493 801 483 788 l 466 814 l 409 766 b 311 660 381 743 341 696 b 230 556 285 628 257 593 l 179 666 l 156 532 l 155 530 b 122 402 152 511 142 462 b -62 112 21 253 -35 170 b -83 40 -68 99 -75 80 l -123 -125 l -11 2 b 16 24 -5 7 6 17 b 14 10 15 18 14 14 l 14 -56 l 74 -30 b 83 -25 77 -29 80 -27 b 82 -30 83 -27 82 -28 l 65 -82 b 49 -142 53 -120 49 -131 l 46 -306 l 129 -165 b 229 19 152 -126 225 13 l 230 21 b 393 271 357 218 376 247 b 403 176 397 233 402 196 l 408 71 l 478 151 b 500 176 483 157 491 166 l 488 116 l 595 182 b 700 266 634 210 667 237 b 686 221 690 238 696 249 b 625 44 668 174 644 104 b 585 -108 600 -33 588 -84 l 568 -298 l 666 -139 l 693 -90 b 718 -47 702 -72 713 -54 b 733 -22 722 -38 729 -31 l 740 -11 l 755 -58 l 804 -16 b 819 2 810 -12 813 -6 l 832 20 b 833 -9 832 11 832 0 l 854 -190 l 916 -25 l 982 149 b 1094 415 1020 251 1050 317 l 1167 318 l 1167 440 b 1171 522 1167 458 1168 490 b 1185 593 1175 562 1181 585 b 1193 610 1186 598 1189 604 b 1198 619 1196 612 1197 615 b 1228 661 1209 637 1220 651 l 1237 675 l 1272 733 l 1239 737 b 1251 759 1245 745 1248 752 z m 650 282 l 324 608 l 337 624 l 666 296 z m 316 598 l 641 275 l 625 262 l 303 581 z m 675 303 l 344 634 l 357 649 l 626 379 b 630 369 628 374 629 370 l 630 376 l 690 316 z m 248 130 l 93 284 l 109 308 l 263 154 z m 230 101 l 185 147 l 196 166 l 182 150 l 75 256 l 90 280 l 245 126 z m 265 158 l 111 312 l 127 335 l 281 182 z m 606 246 l 599 240 l 418 422 l 413 457 l 616 254 z m 284 187 l 130 341 b 145 362 135 348 140 355 l 298 208 z m 302 215 l 149 368 l 159 382 l 162 391 l 316 237 b 302 215 311 230 307 222 z m 319 243 l 165 397 b 173 424 168 407 171 416 l 206 392 l 206 386 b 207 390 206 386 207 388 l 334 264 z m 419 634 l 608 443 l 619 405 l 410 614 z m 376 325 l 230 471 b 235 487 233 480 234 486 l 239 494 l 391 344 z m 402 357 l 396 350 l 246 502 l 259 520 l 406 373 b 402 357 405 365 403 359 z m 1025 370 l 907 487 b 910 491 908 489 910 490 b 906 487 909 490 908 488 l 791 603 l 802 612 l 1031 384 z m 228 462 l 371 317 l 358 298 l 220 435 z m 218 426 l 353 291 l 339 270 l 210 400 z m 433 665 l 592 505 l 595 491 b 600 470 595 488 597 481 l 424 646 z m 408 386 l 265 529 l 278 547 l 410 415 b 408 386 410 405 409 394 z m 142 97 l 83 155 l 87 160 l 82 157 l 38 201 l 54 225 l 159 121 z m 162 124 l 57 229 l 73 253 l 179 146 z m 943 173 l 775 343 l 781 360 l 951 191 z m 803 385 l 964 224 l 956 206 l 791 372 b 803 385 794 376 798 380 z m 969 239 l 813 395 l 826 407 l 976 256 z m 411 428 l 284 556 l 297 573 l 413 457 z m 861 116 l 803 174 b 804 176 803 175 804 176 b 803 175 804 175 803 175 l 739 239 l 747 261 l 871 136 z m 528 266 l 424 369 b 420 405 423 381 422 394 l 537 287 b 528 266 535 281 531 271 z m 1038 402 l 857 582 l 870 590 l 1045 415 z m 452 689 l 584 559 b 588 530 585 549 585 540 l 439 677 b 452 689 442 679 447 684 z m 877 147 l 751 274 l 757 294 l 886 166 z m 892 177 l 762 309 l 769 328 l 902 194 z m 983 272 l 837 418 l 848 429 l 989 288 z m 997 304 l 860 441 l 872 452 l 1003 321 z m 1053 433 l 886 600 l 897 608 l 1059 446 z m 749 369 l 636 482 l 651 493 l 762 380 l 757 376 z m 474 714 l 547 641 b 548 637 547 639 548 638 b 549 639 548 636 549 637 l 581 607 b 582 580 581 598 581 589 l 463 701 z m 774 390 l 661 501 b 675 512 666 505 671 509 l 788 401 z m 827 428 l 713 542 l 726 552 l 841 438 z m 800 409 l 687 521 l 701 532 l 814 420 b 800 409 809 417 804 412 z m 1068 465 l 913 619 l 925 625 l 1074 476 z m 724 346 l 626 444 b 625 471 626 457 625 467 l 738 359 z m 504 243 l 431 316 b 426 353 429 329 428 341 l 520 259 z m 894 474 l 1017 353 l 1011 338 l 884 464 z m 751 572 l 866 457 b 854 448 862 454 859 451 l 739 563 b 751 572 743 566 747 568 z m 123 71 l 67 126 b 82 154 72 136 77 145 l 141 95 z m 880 467 l 765 582 l 777 592 l 892 476 z m 1079 500 l 942 636 b 953 643 946 638 949 641 l 1077 519 b 1079 500 1078 512 1079 505 z m 104 44 l 52 95 l 66 124 l 122 68 b 104 44 115 59 109 50 z m 700 325 l 629 395 l 627 424 l 714 338 z m 1129 542 l 999 672 l 1009 677 l 1131 554 b 1129 542 1131 550 1130 546 z m 482 219 l 437 264 l 433 302 l 498 236 z m 785 146 l 726 206 l 734 226 l 797 165 z m 213 74 l 169 118 b 183 143 173 126 177 135 l 228 98 z m 167 113 l 210 71 l 194 45 l 154 85 b 167 113 157 94 162 104 z m 59 135 l 20 172 l 36 199 l 80 155 b 59 135 74 150 66 142 z m 769 118 l 714 172 l 721 194 l 780 136 b 769 118 776 130 772 124 z m 1076 548 l 970 654 l 981 660 l 1077 564 b 1076 548 1076 559 1076 553 z m 178 15 l 141 53 b 153 83 144 62 147 72 l 193 43 b 191 40 192 42 191 41 b 178 15 191 40 186 29 z m 752 89 l 702 138 l 709 160 l 763 107 z m 37 110 l 3 144 l 19 171 l 58 132 z m 84 24 b 79 22 82 24 80 24 l 60 40 b 61 49 61 44 61 46 b 49 89 59 63 52 85 b 51 93 49 90 50 91 l 103 43 b 84 24 93 30 85 22 z m 846 90 b 843 89 845 90 844 90 l 794 139 l 800 160 l 856 106 b 846 90 850 96 846 90 z m 162 -15 l 129 18 b 140 50 130 25 135 36 l 177 13 z m 1136 581 l 1028 689 b 1037 694 1031 691 1034 693 l 1138 593 z m 734 59 l 690 104 l 698 126 l 746 79 z m 17 84 l -13 114 l 2 142 l 36 109 b 17 84 29 100 22 92 z m 719 37 l 715 32 l 678 69 l 686 93 l 729 51 z m 495 737 l 543 690 b 545 665 543 682 544 673 l 484 724 b 495 737 488 729 491 733 z m 573 221 l 545 248 b 543 261 545 253 544 257 b 542 284 541 265 542 276 l 591 234 z m -2 63 b -5 61 -3 62 -4 61 l -28 83 l -24 94 l -14 113 l 16 83 b -2 63 6 73 0 64 z m 828 79 b 816 69 824 77 819 74 l 782 103 b 790 126 784 110 787 118 l 833 82 b 828 79 831 80 829 79 z m 697 4 l 668 34 b 675 60 670 43 672 51 l 709 25 b 697 4 706 18 702 12 z m 146 -45 l 127 -26 b 129 10 132 -6 135 9 b 128 15 128 10 128 12 l 161 -16 z m 378 674 l 410 642 b 406 618 408 635 407 626 l 365 658 z m 184 460 l 209 435 b 207 403 208 423 207 412 l 176 434 b 184 460 178 443 182 452 z m 880 126 l 915 93 l 906 72 l 874 104 z m 891 160 l 926 125 l 919 105 l 885 139 z m 904 193 l 938 158 l 932 139 l 896 173 b 904 193 899 179 901 187 z m 460 196 l 442 212 l 439 250 l 476 213 b 460 196 470 206 465 201 z m 1065 712 l 1129 647 l 1123 640 l 1057 706 z m 681 -21 b 678 -24 679 -21 679 -22 l 656 -1 b 665 25 659 6 661 15 l 692 -3 b 681 -21 688 -9 685 -15 z m 857 583 l 816 623 b 828 631 821 626 825 628 l 866 593 b 857 583 861 589 858 584 z m 795 45 l 777 63 b 775 78 777 71 776 78 b 779 92 775 78 776 83 l 809 62 b 795 45 803 57 799 50 z m 92 -143 b 116 -62 92 -136 105 -98 l 129 -76 z m 1096 728 l 1150 673 l 1144 666 l 1087 723 z m 870 75 b 871 90 870 77 870 83 l 902 60 l 893 38 l 875 57 b 870 75 875 65 873 72 z m 543 713 l 505 750 l 516 762 l 543 735 z m 129 -75 l 116 -62 l 127 -28 l 145 -46 z m -42 30 b -28 82 -36 51 -32 71 l -6 60 b -42 30 -19 51 -34 38 z m 854 652 l 892 613 l 881 605 l 843 643 z m 1126 499 l 1088 537 l 1081 560 l 1127 514 b 1126 499 1126 509 1126 503 z m 907 625 l 870 663 b 880 671 873 666 877 668 l 918 634 z m 662 -53 l 645 -36 l 654 -10 l 674 -30 z m 933 645 l 895 683 l 906 690 l 942 653 b 933 645 939 651 936 649 z m 192 497 l 207 482 l 209 457 l 209 447 l 186 470 z m 933 709 l 969 673 b 959 666 966 670 963 668 l 923 702 z m 400 698 l 419 678 b 413 658 417 672 415 666 l 387 684 z m 1127 741 l 1170 698 l 1165 691 l 1119 736 z m 959 726 l 995 692 l 986 686 l 950 720 z m 561 672 l 581 652 b 580 628 581 644 580 637 l 554 654 z m 988 745 l 1020 712 l 1012 705 l 979 738 z m 645 -82 l 636 -73 b 643 -45 638 -64 640 -54 l 658 -60 z m 1017 761 l 1046 732 l 1037 725 l 1007 755 z m 54 1 l 52 3 b 60 38 53 10 59 26 l 77 21 b 54 1 69 16 61 5 z m 536 786 l 551 772 b 547 754 550 767 549 761 l 527 775 b 536 786 531 779 533 783 z m 1182 721 l 1147 754 b 1154 760 1150 756 1152 759 l 1185 729 b 1184 726 1184 728 1184 726 b 1182 721 1183 724 1183 722 z m 1124 455 l 1110 469 b 1099 497 1106 478 1103 487 l 1124 471 z m 1065 749 b 1063 747 1065 748 1064 748 l 1037 772 l 1046 777 l 1068 755 b 1065 749 1066 752 1065 750 z m 545 202 l 543 204 b 545 234 544 212 545 222 l 564 216 z m 1146 618 l 1124 639 l 1132 645 l 1152 626 b 1146 618 1150 623 1147 621 z m 875 41 l 889 27 l 880 5 l 875 11 z m 422 720 l 429 713 l 423 694 l 409 707 b 422 720 413 713 418 717 z m 578 701 l 584 694 b 582 673 583 688 582 681 l 567 688 b 578 701 572 696 575 701 z m 1197 751 l 1173 774 l 1181 779 l 1201 757 z m 777 18 l 775 19 b 777 48 775 24 776 36 l 788 36 b 777 18 782 28 779 20 z m 629 -112 l 628 -112 b 634 -80 629 -105 630 -93 l 642 -90 z m 1163 645 l 1150 659 l 1157 666 l 1169 654 b 1163 645 1167 652 1166 649 z m 1076 793 l 1087 782 l 1081 775 l 1067 787 z m 1205 798 l 1218 786 l 1214 780 l 1200 794 z m 198 525 b 204 497 199 521 202 511 l 194 506 z m 446 178 b 443 199 446 183 444 190 l 454 189 z m 1182 674 l 1175 679 l 1183 686 l 1187 682 z m 557 810 b 554 794 556 807 556 801 l 548 800 z m 1231 818 l 1234 815 l 1231 810 l 1225 814 z m 437 734 l 435 728 l 433 731 z m 52 0 l 52 2 l 53 0 z m 1100 804 b 1099 802 1100 803 1099 803 l 1098 803 b 1100 804 1099 803 1099 804 z m 875 -4 l 876 -5 l 876 -7 b 875 -4 876 -6 875 -5 z "},"n":{"ha":969,"x_min":0,"x_max":0,"o":"m 1014 717 b 1019 822 1017 729 1015 739 b 966 785 1001 812 973 790 l 947 774 b 998 975 946 795 984 944 b 850 825 964 949 906 905 b 601 432 750 679 638 496 b 572 632 588 474 571 568 b 651 917 573 719 612 849 b 464 755 585 886 480 785 b 429 745 432 746 431 745 l 469 905 l 349 788 b 193 578 315 754 247 654 l 156 678 l 121 550 b 104 478 114 526 109 500 b 91 423 99 457 95 438 b -76 134 30 324 -45 191 l -77 132 l -77 131 b -89 109 -80 124 -84 116 b -115 51 -97 92 -107 73 l -119 44 l -119 35 b -110 4 -119 20 -113 10 b -109 2 -110 3 -110 3 l -118 -29 b -124 -83 -125 -57 -122 -68 l -137 -184 l -51 -99 b -26 -66 -42 -91 -34 -78 b -15 -52 -22 -62 -19 -57 l 5 -73 l 18 -60 l 15 -71 b 6 -104 10 -88 7 -97 l 5 -106 l 5 -108 b 11 -188 4 -130 11 -187 l 31 -329 l 92 -200 b 255 112 128 -124 193 1 b 343 262 288 171 318 222 l 343 259 b 342 153 339 228 343 162 l 327 30 l 389 92 l 394 71 b 424 -33 401 42 411 3 b 455 -110 433 -59 446 -94 l 507 -196 l 533 -98 l 538 -73 l 538 -71 l 549 -71 l 549 -78 b 554 -142 552 -134 552 -136 l 588 -256 l 635 -147 b 681 -37 658 -92 674 -54 b 708 20 689 -16 699 2 l 713 29 b 881 339 744 92 809 215 b 923 375 894 349 908 361 l 987 429 l 1107 526 l 984 509 b 1153 807 1037 599 1101 717 z m 701 99 l 370 431 b 369 454 369 443 369 453 b 362 438 366 451 364 446 l 236 563 l 248 580 l 709 118 b 701 99 706 111 704 105 z m 717 130 l 255 591 b 267 607 259 596 263 601 l 608 264 b 623 241 613 254 619 246 b 622 250 623 243 623 246 l 725 147 z m 685 68 l 373 380 b 371 411 373 390 372 401 l 694 88 z m 285 632 l 575 343 l 592 299 l 275 618 z m 674 47 l 669 38 l 591 116 l 592 126 b 589 119 591 126 590 123 l 450 256 l 459 278 l 679 58 z m 77 136 b 69 129 75 135 73 132 l 5 193 l 19 218 l 177 61 l 163 35 l 73 127 z m 179 65 l 22 223 l 36 247 l 193 90 z m 197 95 l 40 252 l 52 276 l 209 119 z m 213 124 l 57 282 l 69 304 l 226 149 z m 87 332 l 243 176 l 230 154 l 74 311 z m 247 184 l 91 340 l 104 361 l 260 206 z m 143 457 l 194 406 b 197 403 196 405 196 403 b 198 404 197 403 198 403 l 311 290 l 298 269 l 138 432 b 143 457 140 439 141 449 z m 264 213 l 108 369 l 121 390 l 277 234 z m 281 241 l 125 397 l 130 405 l 135 421 l 294 263 z m 365 598 l 559 406 b 566 373 561 394 563 382 l 361 576 b 365 598 363 582 364 590 z m 568 3 l 567 2 l 421 147 l 425 175 l 575 27 b 568 3 573 14 569 5 z m 370 640 l 548 462 b 553 429 549 451 551 440 l 368 618 b 370 640 368 625 369 632 z m 576 38 l 427 187 b 435 212 429 194 432 203 l 580 65 b 576 38 579 57 578 47 z m 582 78 l 438 222 b 447 246 440 230 443 237 l 587 106 b 582 78 584 97 583 89 z m 350 357 l 202 505 b 207 521 203 513 205 518 l 210 527 l 353 385 b 350 357 351 374 350 364 z m 335 326 l 201 459 l 201 490 l 348 343 z m 355 399 l 217 536 l 229 553 l 359 424 b 355 399 357 416 356 407 z m 547 -25 l 532 -10 b 520 21 528 3 525 21 b 516 6 519 21 517 15 l 433 90 l 423 132 l 561 -4 z m 316 298 l 200 415 b 202 444 201 423 202 433 l 329 316 z m 603 349 l 607 357 l 757 206 b 749 190 754 201 751 196 l 604 333 b 603 349 603 342 601 347 z m 376 659 l 386 668 l 541 514 l 544 486 l 374 657 z m 765 220 l 615 370 b 624 385 619 374 621 379 l 774 236 b 765 220 770 231 767 225 z m 132 -25 l 87 20 b 97 50 93 35 98 50 b 76 30 91 46 83 38 l 37 69 l 53 95 l 146 2 b 132 -25 141 -6 137 -16 z m 149 5 l 56 98 l 71 122 l 161 30 z m 733 160 l 616 276 b 609 309 614 286 612 298 l 741 177 z m 744 583 l 906 420 l 895 412 l 736 572 z m 726 556 l 879 401 l 869 392 l 719 543 b 726 556 721 547 723 551 z m 413 686 l 451 649 b 452 637 451 642 451 637 b 456 644 453 637 454 640 l 534 566 l 536 541 l 400 677 z m 709 527 l 854 381 l 842 373 l 701 514 z m 815 354 l 684 485 l 692 499 l 828 363 z m 675 470 l 801 343 l 788 334 l 667 455 z m 900 454 l 754 600 l 761 611 l 907 466 z m 658 441 l 776 325 l 763 314 l 650 427 z m 778 640 l 885 533 b 882 528 884 531 882 529 l 886 531 l 924 494 l 917 482 l 771 629 z m 641 412 l 749 304 l 736 295 l 632 399 z m 49 104 l -11 165 b 3 189 -5 172 -1 181 l 66 126 z m 30 77 l -27 135 l -13 160 l 47 100 b 30 77 42 93 35 85 z m 510 -27 b 506 -30 509 -27 507 -28 l 450 26 l 437 73 l 514 -3 b 510 -27 513 -14 511 -26 z m 447 261 l 377 330 b 374 363 375 343 374 354 l 458 279 z m 11 50 l -43 104 b -38 113 -41 107 -40 110 l -29 131 l 28 75 z m -7 22 l -59 74 b -44 101 -53 83 -48 92 l 9 47 b -7 22 2 38 -3 30 z m 654 7 l 589 72 l 590 101 l 663 28 z m -20 7 b -29 -1 -24 4 -26 1 l -56 25 b -42 52 -49 37 -41 51 b -61 30 -42 54 -52 40 l -73 42 l -60 72 l -10 21 b -20 7 -15 14 -18 9 z m 116 -56 l 73 -11 b 84 17 75 -5 80 5 l 130 -28 b 116 -56 125 -36 121 -46 z m 641 -21 b 640 -25 640 -22 640 -24 l 585 29 l 588 59 l 649 -2 z m 893 552 l 788 657 l 795 668 l 900 564 z m 431 231 l 385 276 b 379 312 382 288 381 301 l 441 251 b 431 231 437 245 434 237 z m 100 -85 l 64 -49 b 73 -15 67 -36 72 -25 l 115 -58 b 105 -78 111 -64 108 -71 b 100 -85 104 -80 101 -82 z m 813 696 l 916 593 l 909 582 l 807 686 z m 56 5 l 19 41 l 35 66 l 74 28 z m 304 658 l 355 609 l 355 582 l 294 644 z m 85 -116 l 54 -85 l 64 -52 l 99 -88 b 85 -116 95 -96 90 -106 z m 469 675 l 530 615 b 532 591 530 608 531 599 l 464 659 b 469 675 466 665 467 671 z m 626 -58 l 589 -19 b 587 15 588 -3 588 11 l 636 -35 z m 496 -65 l 471 -41 l 454 11 l 502 -36 z m 72 -149 l 48 -126 l 48 -111 b 53 -87 48 -107 50 -97 l 84 -118 z m 151 495 l 179 467 l 189 425 l 145 469 z m 413 201 l 386 230 l 386 260 l 425 221 z m -49 -27 l -68 -9 b -66 5 -67 -3 -66 1 b -57 24 -66 6 -62 14 l -30 -2 b -49 -27 -37 -10 -43 -18 z m 60 -184 l 66 -190 l 60 -184 b 51 -218 56 -196 52 -207 b 48 -173 50 -215 49 -194 l 57 -181 l 48 -173 l 48 -127 l 72 -151 b 60 -184 67 -161 63 -173 z m 487 703 l 531 659 b 529 640 530 652 529 645 l 479 690 z m 44 5 b 16 -1 36 5 27 4 l 6 9 l 18 38 l 52 4 b 44 5 51 5 48 5 z m 612 -89 l 591 -67 b 590 -34 591 -56 590 -45 l 623 -66 z m 325 684 l 356 653 b 355 631 356 646 355 639 l 355 630 l 314 671 z m 756 298 l 790 265 l 781 250 l 740 291 z m 831 723 l 879 675 b 875 663 877 671 876 667 l 825 714 z m -83 -72 b -78 -46 -84 -68 -81 -59 l -69 -54 l -78 -45 b -68 -10 -75 -33 -71 -20 l -50 -28 b -83 -72 -62 -44 -73 -59 z m 503 732 l 537 699 l 534 682 l 497 719 z m 888 667 l 932 622 l 926 611 l 880 658 z m 848 750 l 891 707 l 887 697 l 843 741 b 848 750 845 744 846 748 z m 908 556 l 941 521 l 935 512 l 900 546 z m 399 171 l 386 184 l 386 215 l 409 191 z m 907 691 l 944 655 b 940 644 942 651 942 647 l 901 684 z m 786 314 l 806 294 b 798 280 803 288 800 284 l 771 306 b 786 314 776 309 781 311 z m 344 709 l 363 691 b 359 671 361 684 360 677 l 334 697 z m 521 761 l 544 736 l 541 720 l 514 749 z m 928 580 l 958 549 l 953 541 l 921 572 z m 949 606 l 975 577 b 970 568 974 574 971 572 l 941 596 b 949 606 944 599 947 603 z m 896 734 l 862 769 l 868 777 l 897 747 b 896 734 897 743 897 738 z m 160 531 l 166 525 b 175 485 169 515 172 501 l 154 506 b 160 531 155 515 158 522 z m 442 702 l 451 694 l 454 688 b 453 670 455 686 454 678 l 428 694 z m 598 -122 l 593 -116 b 592 -81 593 -107 592 -96 l 608 -97 z m 932 713 l 958 686 l 954 676 l 924 707 z m 918 454 l 934 438 l 922 431 l 903 451 z m 971 627 l 994 606 l 988 596 l 964 622 z m 363 736 l 374 725 b 369 707 372 719 371 713 l 354 722 z m 541 787 l 553 774 l 549 759 l 532 777 z m 887 802 l 905 784 l 903 774 l 881 796 b 887 802 882 798 886 800 z m 816 330 l 823 324 l 814 309 l 800 322 z m 1005 625 l 989 642 l 996 649 l 1011 634 z m 956 733 l 971 718 l 968 709 l 951 728 b 956 733 953 729 954 732 z m 952 466 l 962 456 b 951 449 958 454 955 451 l 939 462 z m 382 764 l 387 759 l 380 741 l 373 750 z m 491 -88 b 478 -58 488 -82 483 -72 l 495 -75 z m -71 20 b -76 35 -73 26 -76 30 l -74 40 l -62 28 b -71 20 -66 24 -69 19 z m 1019 670 l 1029 660 l 1024 653 l 1014 665 b 1019 670 1016 667 1017 669 z m 561 811 l 566 807 l 560 793 l 552 801 z m 906 828 l 916 818 l 913 811 l 902 823 z m 4 -12 b 5 6 1 -9 2 -2 l 15 -3 b 4 -12 11 -5 7 -7 z m 385 147 b 386 170 385 150 386 159 l 393 161 z m 1043 691 l 1047 687 b 1043 681 1046 685 1045 683 l 1037 686 b 1043 691 1040 688 1041 690 z m 925 844 l 922 847 l 927 854 l 928 851 z m 985 473 l 978 468 l 974 471 z m 399 784 b 394 775 396 781 395 778 l 392 777 z m 981 751 b 980 745 980 749 980 747 l 975 748 z m 1064 710 b 1062 707 1063 709 1062 708 l 1061 708 z m 60 -184 l 57 -181 z m 832 340 b 831 338 831 339 831 339 l 830 339 b 832 340 831 339 831 339 z m 577 826 l 576 825 l 575 825 b 577 826 576 826 576 826 z "},"o":{"ha":1004,"x_min":0,"x_max":0,"o":"m 1124 300 b 926 293 1072 306 942 297 b 1010 543 973 376 1001 458 b 997 689 1014 596 1006 652 b 956 807 986 734 970 776 b 856 980 923 879 897 909 b 877 786 870 928 881 855 b 865 792 873 787 870 790 b 692 828 831 808 776 828 b 467 794 608 828 524 809 b 76 624 394 774 214 713 b 269 645 154 635 214 641 b 154 575 229 623 176 592 l 61 509 l 130 501 b 35 380 98 465 69 435 b -49 155 -11 308 -40 226 b -127 36 -77 103 -101 65 l -229 -73 l -91 -33 b -30 -10 -77 -29 -54 -20 b -12 -45 -25 -21 -18 -33 b 40 -110 3 -72 21 -94 l 41 -111 b 110 -150 65 -127 88 -140 b 194 -170 136 -161 165 -168 b 237 -206 202 -175 223 -193 b 327 -276 265 -232 297 -261 l 468 -351 l 386 -213 b 361 -162 375 -198 366 -179 l 359 -154 b 444 -127 388 -146 417 -138 b 550 -76 486 -112 511 -98 b 770 -78 646 -80 759 -85 b 654 -12 743 -72 644 -18 b 746 65 693 16 709 32 b 834 128 751 71 782 94 b 989 222 866 149 928 187 z m 640 373 b 460 192 596 307 531 241 b 362 136 427 168 393 149 b 283 116 332 123 306 116 b 263 124 274 118 266 120 b 259 139 262 125 259 128 l 259 140 b 292 251 260 171 270 207 b 400 348 326 286 362 318 b 473 397 437 377 464 392 l 579 456 l 493 471 b 535 499 506 482 521 491 b 657 540 582 526 624 540 b 685 535 669 540 678 537 b 694 514 689 533 694 530 b 640 373 694 469 681 433 z m 355 -112 l 38 203 l 45 214 l 53 228 l 385 -104 b 355 -112 374 -107 364 -110 z m 319 -169 l 64 87 l 65 88 b 63 87 65 88 64 88 l 3 146 l 19 171 l 315 -125 b 319 -169 312 -134 314 -150 z m 349 -237 b 326 -222 342 -233 334 -229 l 40 64 l 61 83 l 322 -176 b 349 -237 327 -196 337 -217 z m 322 -119 b 317 -121 319 -119 318 -120 l 21 175 l 36 199 l 349 -113 z m 153 141 b 248 77 171 113 205 87 l 419 -93 b 391 -101 409 -96 401 -99 l 57 232 l 69 255 l 220 105 b 153 141 212 104 170 129 z m 553 770 l 932 392 b 926 379 929 388 927 384 l 537 767 z m 246 -155 b 143 -57 228 -139 152 -57 b 187 -125 153 -78 193 -126 l 183 -125 l 14 45 l 36 62 l 308 -208 b 246 -155 286 -191 264 -171 z m 216 141 b 219 116 216 131 217 123 l 73 262 l 74 263 l 73 263 l 37 297 l 49 321 l 217 155 b 216 141 216 150 216 145 z m 156 -119 b 114 -103 141 -114 127 -109 l 15 -3 b 2 32 10 7 5 20 b 11 43 1 34 4 37 l 178 -124 b 156 -119 170 -123 162 -121 z m 282 74 l 297 74 l 452 -80 b 433 -88 446 -82 439 -84 l 425 -90 l 260 75 b 282 74 267 74 275 74 z m 178 214 b 196 220 176 210 185 214 l 224 192 b 218 163 221 183 219 173 l 53 328 l 66 349 l 190 225 z m 337 80 l 484 -66 b 458 -77 475 -71 467 -74 l 306 75 b 337 80 316 76 326 78 z m 938 411 l 666 685 l 685 685 l 943 425 b 938 411 942 421 940 417 z m 371 91 l 512 -49 b 511 -54 512 -51 511 -53 l 490 -63 l 345 82 b 371 91 354 84 362 88 z m 433 119 l 590 -36 b 545 -26 576 -33 560 -30 l 411 108 z m 165 479 l 311 332 l 293 318 l 150 463 z m 186 502 l 337 353 l 318 339 l 171 486 z m 122 429 l 261 292 l 243 276 l 108 411 z m 143 455 l 285 312 l 268 298 l 128 437 z m 531 40 b 637 -45 540 26 619 -24 b 607 -41 630 -45 620 -43 l 441 124 l 462 137 l 587 11 b 531 40 564 22 533 41 z m 299 412 b 319 415 306 412 312 413 l 362 371 l 345 359 l 194 510 b 209 525 200 515 204 520 l 314 420 b 299 412 306 417 300 413 z m 488 155 l 628 15 l 610 1 l 470 142 z m 219 254 l 89 385 l 103 404 l 237 270 z m 514 174 l 653 35 l 637 21 l 497 161 z m 196 232 l 71 357 l 83 377 l 214 249 z m 403 104 l 530 -22 b 499 -15 517 -19 506 -16 b 514 -41 510 -25 513 -33 l 379 94 z m 538 196 l 677 57 l 662 43 l 522 182 b 538 196 528 186 533 190 z m 562 217 l 701 78 l 686 64 l 547 203 z m 733 682 l 954 460 l 950 447 l 714 683 b 733 682 720 683 726 683 z m 719 95 b 710 87 716 92 714 89 l 572 225 l 585 239 l 724 99 z m 607 263 l 751 119 b 735 108 746 114 740 111 l 594 249 z m 628 287 l 722 192 l 706 185 b 728 188 710 185 718 186 l 778 137 l 762 126 l 616 274 z m 677 580 l 499 760 l 515 763 l 703 575 b 677 580 694 577 686 579 z m 736 496 l 903 331 l 894 317 l 734 478 b 736 496 735 484 736 489 z m 730 457 l 886 301 l 878 288 l 725 441 b 730 457 728 447 729 452 z m 718 424 l 869 274 b 861 263 866 269 863 266 l 859 261 l 712 409 z m 703 393 l 845 251 l 830 243 l 694 379 z m 327 424 l 219 532 b 238 541 223 534 230 537 l 348 432 b 327 424 341 428 333 426 z m 499 528 l 420 608 l 433 612 b 417 611 427 612 422 611 l 371 656 b 387 665 376 659 381 662 l 514 537 z m 361 436 l 250 546 b 270 553 256 549 263 551 l 381 443 b 361 436 375 441 369 438 z m 686 365 l 816 235 b 800 228 811 233 806 231 l 676 351 z m 403 452 l 395 448 l 283 559 l 303 567 l 410 459 z m 528 545 l 402 672 l 417 679 l 544 553 z m 560 561 l 432 688 l 447 694 l 576 567 z m 594 573 l 463 703 l 470 707 l 478 710 l 610 577 z m 631 580 l 495 717 l 510 723 l 651 582 b 631 580 644 582 638 581 z m 668 339 l 785 221 l 768 213 l 657 324 z m 420 468 l 317 573 l 337 579 l 435 481 z m 649 313 l 754 207 l 736 199 l 637 298 z m 801 457 b 794 484 799 467 797 475 l 918 361 l 911 347 l 746 512 b 801 457 762 502 791 476 z m 369 591 l 460 501 l 446 489 l 350 584 z m 34 69 l -14 119 l 1 143 l 60 84 z m 471 510 l 385 596 l 403 603 l 486 520 z m 797 661 l 901 559 b 900 543 901 552 900 548 l 770 672 b 797 661 780 670 788 666 z m 3 53 l -33 92 b -16 115 -28 100 -21 108 l 31 68 z m 592 778 l 679 689 l 663 686 l 575 775 z m 704 693 l 616 781 b 631 782 622 781 627 782 l 719 696 b 704 693 714 694 709 693 z m 747 698 l 659 784 b 675 785 665 784 670 785 l 762 698 z m 791 698 l 704 784 l 721 784 l 808 697 b 791 698 802 698 797 698 z m -19 42 l -26 37 l -52 65 b -35 89 -47 73 -42 81 l 1 52 z m 775 776 l 855 697 b 857 693 855 696 856 694 b 841 694 851 693 846 694 l 756 780 z m 763 198 l 806 155 l 790 144 l 743 192 b 763 198 749 193 755 196 z m 48 240 l 24 265 l 34 291 l 67 259 b 48 240 62 254 56 248 z m 359 420 l 390 390 l 373 378 l 334 417 z m 796 209 l 833 172 b 818 163 828 169 823 167 l 778 203 z m 377 605 l 341 640 b 357 649 346 643 351 646 l 397 609 z m 68 -75 b 18 -10 48 -59 31 -35 l 107 -99 b 68 -75 93 -92 80 -83 z m -58 24 l -73 38 b -54 63 -66 47 -60 54 l -28 36 z m 909 550 l 963 498 l 959 483 l 906 537 z m 918 588 l 968 536 b 967 524 968 532 967 528 l 916 574 z m 830 221 l 861 189 l 847 181 l 812 215 z m 340 596 l 311 624 b 327 632 316 627 322 630 l 359 600 z m 26 216 l 12 230 l 21 259 l 45 236 z m 843 753 l 890 706 b 863 719 881 710 872 716 l 817 764 b 843 753 827 761 835 757 z m 921 628 l 969 580 b 970 566 969 576 970 571 l 921 615 z m 302 585 l 281 608 l 298 618 l 325 592 z m 864 641 l 904 601 b 903 587 904 597 903 592 l 860 630 b 864 641 861 634 863 637 z m 399 426 l 417 407 l 400 396 l 374 423 z m 864 233 l 890 206 l 876 198 l 847 226 z m 224 238 l 235 228 b 226 201 232 218 229 209 l 203 224 z m 489 722 l 463 750 b 479 754 468 751 473 752 l 509 724 b 489 722 502 724 496 723 z m 925 671 l 965 630 b 967 614 966 625 967 620 l 925 657 z m 268 575 l 252 591 l 269 600 l 290 581 z m 443 744 l 468 720 l 450 717 l 427 738 b 443 744 433 740 438 743 z m 899 244 l 919 223 l 905 215 l 881 238 b 899 244 887 239 892 241 z m 923 719 l 957 685 l 959 668 l 924 705 b 923 719 923 709 923 714 z m 411 709 l 393 726 l 409 733 l 428 713 z m -91 11 l -94 13 l -74 37 l -59 22 z m 234 563 l 223 573 l 240 583 l 255 571 b 234 563 248 567 240 565 z m 918 768 l 942 744 b 948 725 944 738 947 732 l 920 754 z m 934 253 l 948 239 l 935 232 l 918 249 z m 374 701 l 360 714 l 376 720 l 392 705 b 374 701 386 703 379 702 z m 437 434 l 446 424 b 428 415 440 422 435 418 l 413 429 b 437 434 421 432 429 433 z m 5 191 l 3 193 b 11 225 5 204 7 215 l 22 213 b 5 191 16 205 10 198 z m 335 691 l 328 699 b 344 706 333 702 339 704 l 355 697 z m 971 263 l 978 255 l 964 248 l 953 259 b 971 263 959 261 965 262 z m 200 550 l 196 554 l 213 566 l 221 558 z m 911 819 l 919 813 l 927 793 l 913 807 z m 475 440 l 476 439 l 458 431 l 453 437 z m 298 683 l 314 692 l 318 687 z m 243 246 l 238 235 l 231 243 b 243 246 238 247 244 248 z m 175 541 l 186 548 l 188 546 z m 866 672 b 874 661 869 669 872 666 l 866 669 z m 1002 268 l 995 264 l 993 266 z m -93 10 b -98 9 -94 10 -96 9 l -95 12 z m 2 187 l 2 188 z "},"q":{"ha":1013,"x_min":0,"x_max":0,"o":"m 788 75 b 921 247 813 95 884 186 b 1028 524 972 332 1016 441 b 1030 553 1030 536 1030 546 b 1011 601 1030 563 1031 587 l 1000 610 l 990 635 b 948 685 984 655 968 671 l 1064 687 b 851 804 943 782 917 788 b 763 821 818 812 784 817 b 561 981 698 862 623 933 b 613 816 561 936 600 839 b 384 780 530 808 432 793 l 252 747 l 357 707 b 129 526 272 658 194 595 l 95 486 b -166 326 84 473 -116 347 b -4 321 -127 317 -35 317 b -59 154 -33 276 -50 219 l -59 153 b -56 54 -62 118 -57 61 l -56 53 l -54 52 b -25 -44 -51 30 -40 -5 b 20 -128 -14 -73 12 -115 b 72 -202 35 -153 58 -187 l 159 -276 l 144 -161 b 143 -159 144 -160 143 -160 b 218 -170 168 -167 191 -169 b 299 -169 245 -171 272 -171 l 301 -176 l 327 -240 l 373 -189 b 454 -140 388 -173 415 -158 b 559 -101 491 -129 527 -115 b 581 -141 566 -116 575 -130 b 629 -184 596 -162 610 -179 l 686 -200 b 696 -214 690 -206 693 -209 l 799 -345 l 771 -179 b 770 -173 770 -177 770 -175 l 785 -188 b 831 -232 807 -210 821 -223 l 960 -313 b 788 75 874 -136 810 9 z m 480 396 b 485 295 471 371 479 335 l 493 250 b 493 228 494 234 493 229 l 467 157 b 310 84 424 123 373 89 b 276 93 301 83 285 84 b 267 121 271 98 268 109 b 422 402 260 223 356 337 b 504 472 449 428 476 452 z m 703 456 b 675 397 696 438 685 418 l 670 408 l 637 524 l 590 413 l 577 387 l 572 376 l 562 397 l 560 402 l 524 487 b 564 512 536 496 550 504 b 693 557 613 540 657 557 b 724 548 710 559 719 554 b 703 456 723 531 718 502 z m 375 -131 l 3 240 l 13 268 l 193 88 b 146 125 177 95 161 107 b 230 52 165 89 194 65 l 400 -119 b 375 -131 390 -123 382 -127 z m 350 -152 l 330 -131 b 306 -80 323 -111 313 -88 b 306 -108 302 -80 304 -95 l -6 204 l 1 234 l 371 -136 b 350 -152 362 -141 356 -146 z m 304 -124 b 278 -126 296 -125 287 -126 l -14 166 b -7 199 -13 177 -11 188 l 306 -115 b 304 -124 306 -121 306 -124 z m 233 -127 l 72 34 b 71 46 71 37 71 42 b 69 36 69 43 69 40 l -17 123 l -17 147 l -15 160 l 272 -127 z m 27 300 l 229 97 b 238 78 232 89 236 81 b 207 82 229 78 218 79 l 16 275 b 27 300 19 283 22 292 z m 739 -118 b 735 -121 737 -118 736 -120 l 491 122 l 502 130 b 536 103 506 139 533 95 b 534 108 535 104 535 106 l 738 -94 b 739 -118 739 -107 740 -116 z m 41 330 l 223 149 b 223 126 222 141 222 132 b 224 111 223 121 223 116 l 30 307 b 41 330 33 314 36 323 z m 735 -75 l 530 128 l 525 165 l 731 -42 b 735 -75 731 -49 733 -62 z m 72 346 l 230 187 b 224 159 228 177 225 168 l 47 335 b 72 346 52 339 61 342 z m 406 -115 l 240 48 b 285 41 255 44 270 42 l 431 -104 b 406 -115 421 -108 413 -111 z m 733 65 l 533 266 l 528 297 l 746 80 z m 726 -155 l 726 -159 l 675 -107 b 651 -79 663 -91 654 -79 b 649 -80 650 -79 649 -79 l 562 5 b 546 52 557 21 550 37 l 730 -131 b 726 -155 728 -138 726 -145 z m 184 -124 l 82 -22 b 73 27 78 -6 75 10 l 226 -127 l 220 -127 b 184 -124 207 -126 196 -126 z m 710 42 l 534 217 b 535 244 536 224 536 233 l 723 56 z m 591 319 l 593 324 l 700 217 b 706 202 702 210 704 205 l 704 212 l 786 130 l 775 115 l 588 301 b 591 319 588 311 590 316 z m 438 -100 l 437 -100 l 295 41 b 311 42 300 41 306 41 b 328 44 316 42 322 43 l 465 -92 z m 107 357 l 241 220 b 233 196 238 213 236 204 l 80 348 z m 687 18 l 525 181 b 532 203 529 191 531 198 l 702 33 z m 139 458 l 290 309 b 278 291 285 303 282 297 l 120 447 b 139 458 126 451 132 455 z m 506 -78 l 373 54 b 397 65 381 58 390 61 l 531 -67 b 506 -78 524 -72 515 -75 z m 472 -90 l 338 45 b 365 52 346 47 356 49 l 498 -81 z m 753 90 l 597 246 b 590 281 593 260 591 271 l 766 105 z m 168 475 l 308 335 l 295 317 l 150 465 z m 559 -54 l 540 -64 l 406 68 b 428 80 413 72 421 76 l 560 -52 b 559 -54 560 -53 559 -54 z m 140 368 l 256 252 b 245 229 252 245 248 237 l 114 359 z m 179 483 b 196 493 184 485 189 489 l 328 361 b 314 344 324 356 318 350 l 178 482 b 179 483 178 482 178 483 z m 929 469 l 691 707 l 709 705 l 934 481 b 929 469 933 476 932 473 z m 224 509 l 348 386 l 334 370 l 207 499 z m 559 -37 l 436 84 l 456 96 l 551 2 b 559 -37 554 -12 557 -27 z m 357 581 l 355 581 l 310 626 l 325 637 l 466 497 l 451 485 l 356 580 z m 75 -61 l -2 16 b -14 59 -9 34 -13 49 b -15 71 -14 59 -14 63 l 69 -14 b 75 -61 71 -30 73 -46 z m 834 193 l 690 339 b 699 354 693 343 696 348 l 844 207 z m 353 654 l 491 516 l 476 505 l 338 644 z m 69 -10 l -15 75 b -17 116 -16 87 -17 101 l 69 30 b 69 -10 68 17 68 3 z m 171 382 l 271 281 l 261 261 l 150 371 b 171 382 161 375 169 379 z m 854 221 l 707 368 l 715 382 l 862 234 l 860 231 z m 254 526 l 370 409 l 357 395 l 236 515 z m 595 774 l 788 581 b 762 590 780 584 770 588 l 580 772 b 595 774 585 772 590 774 z m 906 307 l 750 464 l 754 479 l 913 321 z m 504 525 l 366 662 l 380 671 l 518 534 z m 922 338 l 761 500 l 763 516 l 928 350 z m 890 278 l 737 431 l 743 442 b 744 444 743 442 743 443 l 897 292 b 890 278 894 287 892 282 z m 709 25 l 797 -62 b 817 -111 803 -79 811 -95 l 689 17 z m 284 542 l 392 433 b 378 419 388 427 384 423 l 266 532 z m 706 599 l 540 767 b 554 769 544 767 549 768 l 728 597 z m 730 412 l 880 262 l 872 249 l 723 399 z m 815 168 l 689 295 b 686 321 687 304 687 314 l 825 181 z m 760 700 l 946 515 b 941 502 944 511 943 506 l 741 702 b 760 700 748 702 753 701 z m 410 687 l 547 551 l 532 543 l 395 679 z m 440 702 l 576 566 l 562 560 l 426 696 z m 88 -121 l 33 -66 b 15 -29 26 -51 18 -38 b 0 9 9 -15 4 -2 l 76 -66 b 88 -121 80 -87 83 -105 z m 313 558 l 416 455 l 403 442 l 296 548 z m 469 716 b 471 717 469 716 470 717 l 608 580 l 593 574 l 457 710 z m 743 -53 l 830 -141 b 856 -194 840 -162 848 -181 b 853 -193 855 -193 854 -193 l 763 -103 b 743 -53 756 -89 749 -68 z m 512 722 l 642 591 b 626 587 637 590 631 589 l 494 720 z m 343 574 l 440 476 l 425 464 l 326 564 b 343 574 332 568 338 571 z m 795 141 l 700 236 l 693 267 l 806 155 z m 902 404 l 766 538 b 767 557 767 545 767 551 l 907 416 z m 551 726 l 679 598 b 663 596 674 598 669 597 l 534 724 b 551 726 541 725 547 726 z m 620 887 l 790 715 l 777 715 l 626 864 b 620 887 623 873 620 880 z m 548 19 l 465 101 l 484 115 l 545 53 b 548 19 544 51 545 36 z m 115 -103 b 83 -29 110 -99 95 -71 l 176 -123 b 115 -103 155 -119 134 -111 z m 917 436 l 787 564 b 808 561 793 564 800 563 l 921 448 z m 639 -118 l 596 -75 b 572 -18 588 -58 579 -37 l 642 -89 b 639 -118 640 -95 638 -105 z m 143 378 l 91 429 l 111 441 l 171 382 b 143 378 165 381 155 379 z m 685 251 l 599 337 l 608 353 l 669 292 z m 517 354 l 553 317 b 560 310 556 313 558 310 b 590 254 562 308 578 276 l 522 321 b 517 354 520 332 519 344 z m 103 372 l 62 413 b 83 425 68 418 76 421 l 131 376 z m 738 41 l 769 10 l 786 -34 l 721 31 z m 811 693 l 884 623 l 866 623 l 794 696 b 811 693 800 696 806 694 z m 62 368 l 33 396 l 53 408 l 91 371 z m 689 709 l 623 776 b 638 777 628 777 632 777 l 704 710 b 689 709 698 710 693 710 z m 101 -171 b 37 -74 88 -157 59 -112 l 89 -125 z m 322 568 l 283 607 l 298 618 l 340 576 z m 291 554 l 257 587 l 272 598 l 309 562 z m 869 683 l 929 622 b 917 621 925 621 921 621 l 849 687 b 869 683 857 686 863 684 z m 776 775 l 833 717 l 821 717 l 760 777 b 776 775 765 777 770 776 z m 259 540 l 232 565 l 247 578 l 277 548 b 259 540 270 546 265 542 z m 20 362 l 3 380 l 26 392 l 51 366 z m 700 749 b 677 782 698 753 688 766 l 747 713 l 732 713 l 688 756 b 700 749 693 752 699 749 z m 616 370 b 621 386 619 373 620 379 l 640 366 l 655 328 l 615 368 z m 226 526 l 207 544 l 222 558 l 246 534 z m 911 412 l 942 381 l 937 370 l 902 404 b 911 412 905 405 908 408 z m 526 733 l 499 761 l 515 763 l 547 732 b 526 733 541 732 533 733 z m 832 764 l 871 725 l 860 722 l 816 767 z m 903 597 b 918 587 908 592 913 587 l 919 587 l 927 578 l 934 557 l 882 607 b 903 597 892 604 900 600 z m 929 440 l 955 413 l 951 402 l 923 429 z m 748 -226 l 746 -224 b 705 -152 738 -212 716 -167 l 732 -178 b 748 -226 737 -197 746 -219 z m 479 735 l 460 753 l 476 756 l 499 735 z m 944 470 l 967 448 b 963 435 966 443 965 439 l 939 459 z m -21 358 l -28 364 b -4 376 -20 368 -13 371 l 10 361 z m 193 513 l 184 521 l 199 535 l 214 520 b 210 519 213 520 212 519 z m 959 502 l 978 483 l 975 473 b 974 470 975 472 974 471 l 954 490 z m 894 747 l 919 723 b 907 724 913 723 908 724 l 905 724 l 878 752 z m 517 399 b 536 354 521 390 529 372 l 515 375 b 517 399 515 385 515 392 z m 641 -143 b 609 -100 634 -141 622 -124 l 639 -131 z m 431 736 l 422 746 l 438 749 l 452 736 z m 972 533 l 985 520 b 983 507 984 516 983 512 l 968 524 b 972 533 969 527 970 530 z m 627 423 b 631 397 627 420 629 409 l 624 406 b 627 423 625 413 626 421 z m 984 566 l 986 564 b 987 549 987 561 987 556 l 981 557 z m 755 53 l 760 38 l 749 48 z m 342 -160 b 335 -145 340 -157 338 -152 l 345 -156 z m 171 509 l 176 514 l 181 509 b 171 509 173 505 168 505 z m -47 356 l -34 361 l -30 357 b -47 356 -37 357 -44 356 z m 393 738 b 402 740 395 738 399 739 l 406 737 b 393 738 399 737 394 737 z "},"s":{"ha":877,"x_min":0,"x_max":0,"o":"m 978 718 b 965 754 978 728 976 741 l 936 783 b 922 1013 957 870 959 928 b 814 804 904 951 827 822 b 799 815 807 810 799 812 l 787 901 l 737 810 b 647 803 703 807 679 808 b 476 760 600 797 515 778 b 182 698 423 741 208 701 l -12 698 l 166 615 b 209 599 167 615 184 608 b 118 493 176 569 141 530 b 73 468 98 483 88 476 l 62 462 l -93 374 l 82 381 b 91 377 84 381 88 379 b 115 332 95 361 104 346 b 168 288 128 317 145 302 b 288 226 204 264 249 245 l 297 223 b 365 198 318 214 342 206 l 376 194 b 321 172 358 187 339 178 b 36 92 224 134 152 110 b -247 72 14 90 -181 74 l -265 72 l -394 79 l -294 -1 l -288 -5 b -135 -44 -268 -21 -230 -29 b -108 -49 -111 -47 -130 -45 l -169 -90 l -63 -108 l 4 -120 l -126 -192 b 183 -163 104 -186 105 -179 l 72 -326 l 240 -224 l 468 -85 l 476 -81 b 688 26 563 -48 635 -12 b 767 98 721 49 748 74 b 804 189 790 127 802 158 b 781 264 807 215 799 239 b 726 317 768 282 750 299 l 692 340 l 794 395 b 892 498 821 410 854 444 b 959 611 921 538 949 584 b 978 690 972 641 976 671 b 978 718 979 703 979 713 z m 665 61 l 245 482 l 253 485 b 239 488 254 487 248 488 l 200 528 l 213 543 l 682 74 z m 691 81 l 221 551 l 236 565 l 706 95 z m 715 104 l 246 574 b 261 585 250 578 255 582 l 728 118 b 715 104 724 113 720 109 z m 637 43 l 209 472 l 232 479 l 655 54 z m 432 219 b 405 229 424 222 416 225 l 173 462 l 197 468 l 471 193 b 432 219 455 206 438 216 z m 493 400 l 747 144 b 736 128 744 139 740 134 l 438 426 b 493 400 452 418 471 409 z m 335 252 l 137 451 b 161 458 145 454 153 456 l 382 236 z m 267 -94 l 176 -3 l 186 2 b 172 0 186 2 181 1 l 111 62 l 143 68 l 291 -79 b 267 -94 281 -84 274 -90 z m 554 423 l 551 418 l 506 440 b 478 455 496 446 486 450 l 493 466 b 552 499 511 479 532 490 b 611 520 567 505 588 513 b 603 504 609 515 606 510 b 554 423 587 475 568 446 z m 250 291 l 101 440 l 126 448 l 311 263 z m 295 -75 l 149 69 b 178 78 159 73 169 76 l 316 -60 b 295 -75 309 -65 302 -71 z m 588 350 l 761 177 l 753 158 l 534 378 b 588 350 549 370 568 360 z m 337 132 l 346 136 l 493 -9 l 474 -25 l 324 127 b 337 132 328 128 332 130 z m 323 -57 l 186 80 b 215 89 196 82 205 85 l 343 -41 z m 500 -3 l 357 140 l 380 150 l 518 11 z m 410 163 l 543 31 l 525 16 l 388 153 z m 348 -36 l 221 91 b 248 99 230 93 239 96 l 369 -21 z m 834 493 l 701 627 b 701 632 702 629 702 632 b 699 629 700 631 699 630 l 579 748 l 593 751 l 843 503 z m 374 -16 l 255 101 l 281 111 l 393 0 z m 551 37 l 419 169 b 438 182 426 173 433 177 l 568 51 z m 854 519 l 618 756 b 631 759 622 757 627 759 l 861 529 b 854 519 859 526 857 522 z m 198 -118 l 104 -22 b 137 -15 115 -20 126 -18 l 231 -109 z m 400 4 l 290 114 l 315 124 l 418 20 z m 161 -126 l 131 -97 b 153 -87 144 -92 154 -88 b 121 -85 151 -84 138 -84 l 64 -30 l 73 -27 l 99 -24 l 194 -119 z m 248 -105 l 235 -108 l 141 -14 b 171 -4 153 -11 163 -7 l 263 -96 b 248 -105 255 -101 250 -104 z m 519 531 l 417 632 b 434 639 425 636 433 638 b 412 637 432 639 423 638 l 362 688 l 381 692 l 535 538 z m 551 545 l 401 696 l 418 700 l 567 550 z m 436 474 l 308 604 b 327 609 314 605 321 607 l 450 487 z m 576 58 l 449 185 b 510 144 460 182 488 163 b 498 167 507 152 503 159 l 593 73 z m 585 557 l 437 704 b 455 708 443 706 450 706 l 601 562 z m 622 567 l 475 714 l 490 718 l 638 571 z m 376 507 b 388 478 375 498 380 487 l 271 593 b 292 599 274 594 281 597 l 418 473 b 376 507 403 480 382 494 z m 654 580 l 509 726 l 522 731 l 666 590 b 654 580 661 585 657 583 z m 672 764 l 775 660 l 771 652 b 779 657 772 652 776 654 l 845 590 l 841 578 l 657 762 z m 462 496 l 344 613 l 364 619 l 475 505 z m 678 603 l 543 737 l 559 743 l 687 613 z m 489 514 l 380 623 l 400 628 l 504 524 z m 60 -15 l 49 -15 l -10 44 b 28 47 5 45 19 47 l 88 -12 b 60 -15 74 -14 62 -15 z m 694 287 l 696 287 l 754 226 b 763 196 760 217 763 206 l 629 328 b 694 287 652 315 675 302 z m 4 -16 l -53 42 l -14 44 l 45 -15 b 4 -16 32 -15 18 -15 z m -41 -17 l -96 38 l -57 41 l 1 -16 b -41 -17 -17 -16 -33 -17 z m 91 -11 l 32 48 b 43 49 37 48 42 49 b 67 53 51 50 59 51 l 127 -5 b 91 -11 114 -7 103 -10 z m 815 467 l 737 544 l 739 550 b 735 547 738 550 737 549 l 686 595 l 692 608 l 823 478 b 815 467 819 474 817 470 z m 132 -5 l 73 54 l 106 61 l 167 0 z m -97 -6 l -140 35 l -98 38 l -43 -17 b -48 -18 -45 -17 -48 -18 b -97 -6 -63 -14 -80 -10 z m 75 -87 l 29 -41 b 61 -31 42 -37 53 -34 l 116 -87 b 75 -87 103 -87 88 -88 z m 690 342 b 637 373 672 353 655 363 l 645 380 l 666 400 l 667 399 b 698 377 673 387 685 379 l 704 376 z m 449 -45 l 403 0 l 419 19 l 468 -30 z m 59 -85 l 20 -79 l -7 -51 l 27 -42 l 72 -87 b 59 -85 67 -87 63 -85 z m -152 2 l -183 33 l -141 35 l -98 -6 b -152 2 -116 -3 -135 0 z m -263 29 b -184 33 -255 29 -224 30 l -153 2 b -263 29 -204 10 -250 17 z m 422 -64 l 381 -24 l 397 -5 l 442 -49 z m 729 526 l 802 452 l 794 441 l 722 512 z m 129 399 l 224 303 b 129 399 175 330 135 360 z m 376 -29 l 415 -67 l 392 -81 l 359 -47 z m 771 417 l 763 426 b 763 437 765 432 765 437 b 752 436 760 437 756 437 l 707 482 l 714 495 l 781 427 z m 354 -51 l 387 -84 l 364 -99 l 335 -71 z m 371 634 l 324 681 l 344 684 l 392 636 b 371 634 386 635 378 634 z m 123 -135 l 99 -111 l 129 -98 l 157 -127 b 123 -135 144 -129 134 -132 z m 306 676 l 350 631 b 328 629 343 631 335 630 l 285 673 z m 285 627 l 246 666 b 267 670 252 667 260 668 l 309 628 b 285 627 296 627 286 627 z m 797 684 l 859 622 l 855 611 l 792 675 b 797 684 794 677 795 681 z m 608 26 l 581 53 b 594 72 587 61 592 67 l 628 37 z m 331 -75 l 359 -103 l 335 -116 l 312 -93 z m 814 713 l 872 654 l 868 643 l 809 703 b 814 713 810 706 813 709 z m 714 521 l 672 563 l 672 565 b 677 578 672 566 674 572 l 722 532 z m 735 746 l 787 694 l 783 683 l 728 738 b 735 746 730 740 733 743 z m -9 -51 l 18 -78 l -35 -68 l -43 -60 z m 229 636 l 204 660 l 229 663 l 262 630 b 229 636 251 631 239 634 z m 290 -116 l 309 -97 l 330 -119 l 307 -134 z m 82 -141 l 72 -130 b 89 -118 78 -126 84 -122 l 97 -112 l 120 -135 b 82 -141 106 -138 94 -140 z m 830 741 l 879 693 b 880 681 879 688 879 684 l 880 678 l 826 733 z m 83 412 l 68 427 l 92 437 l 124 404 b 83 412 115 408 101 411 z m 194 486 l 179 501 l 192 518 l 222 487 b 194 486 213 487 203 486 z m 578 10 l 560 29 b 574 45 565 34 569 40 l 598 20 z m 693 496 l 661 527 l 668 542 l 702 506 z m 754 766 b 760 767 756 766 757 766 l 798 729 l 795 717 l 749 763 b 754 766 751 765 753 766 z m 673 469 l 646 495 l 654 510 l 682 481 z m 285 -120 l 302 -136 l 278 -151 l 266 -139 z m 846 772 l 881 736 l 878 725 l 841 763 z m 638 480 l 661 456 l 651 446 l 630 466 z m 873 546 l 845 575 b 853 582 847 577 850 579 l 879 556 z m 547 -4 l 537 5 l 552 21 l 569 5 b 547 -4 562 1 554 -1 z m 891 574 l 865 599 l 872 609 l 897 583 z m 861 801 l 890 774 l 887 763 l 857 793 z m 908 603 l 885 628 l 890 637 l 913 612 b 908 603 912 609 910 606 z m 628 422 l 613 437 l 622 451 l 639 434 b 628 422 635 431 632 426 z m 170 650 l 161 657 l 188 659 l 205 641 b 170 650 191 643 179 646 z m 263 -142 l 274 -153 l 249 -168 l 243 -161 b 263 -142 248 -155 255 -149 z m 717 425 l 706 436 b 710 450 708 441 710 447 l 710 454 l 733 432 b 717 425 728 429 722 428 z m 906 666 l 926 645 l 923 635 l 902 657 z m 604 400 l 595 408 l 605 423 l 616 411 z m 878 830 l 899 810 l 896 800 l 874 824 b 878 830 875 826 876 828 z m 723 743 l 702 765 l 717 765 l 725 756 b 723 743 724 751 723 747 z m 47 -144 l 71 -131 l 80 -141 b 47 -144 68 -143 57 -144 z m 921 698 l 933 684 b 932 672 933 681 933 676 l 917 688 b 921 698 918 691 919 694 z m 36 412 l 60 424 l 69 413 b 36 412 60 415 48 413 z m 894 859 l 907 846 b 905 838 907 843 906 841 l 890 851 z m 515 -19 l 513 -17 l 530 -1 l 537 -9 z m 777 791 b 807 753 782 787 801 755 l 807 752 l 774 784 z m 239 -165 l 246 -170 l 220 -186 l 219 -185 b 239 -165 222 -181 230 -174 z m 579 378 l 578 380 l 587 395 l 593 389 b 579 378 588 384 582 380 z m 910 888 l 917 882 b 915 875 916 879 915 877 l 907 881 z m -45 -61 l -37 -68 l -56 -65 b -45 -61 -53 -64 -49 -62 z m 931 732 l 934 729 b 935 716 934 724 935 720 l 928 721 z m 171 489 b 173 493 171 490 172 491 l 179 486 b 171 489 173 486 169 487 z m 751 401 b 754 408 751 402 752 405 l 757 405 z m 143 657 l 144 657 l 145 656 b 143 657 144 656 143 657 z m 798 775 b 797 776 797 775 797 776 z "},"t":{"ha":776,"x_min":0,"x_max":0,"o":"m 472 776 l 457 775 b 208 753 354 767 249 759 l 89 736 l 158 694 b 120 675 143 686 128 678 b 110 670 115 672 112 671 l 42 638 l 98 604 l 101 600 l 79 584 l 24 547 b -27 511 -15 522 -21 518 l -147 422 b 6 439 -99 431 -20 435 b 100 453 52 447 76 450 l 280 475 b 207 359 257 439 232 400 l 185 330 b 120 265 170 312 147 287 b 5 179 81 236 43 208 l 99 177 b 40 58 76 136 71 123 l -52 -144 l 73 -26 l 73 -36 l 72 -131 l 149 -58 b 183 -24 153 -54 166 -40 l 187 -20 b 170 -90 182 -43 174 -69 b 158 -197 163 -122 158 -172 b 181 -332 158 -237 169 -285 b 501 263 221 -255 318 -36 l 554 169 l 569 299 b 594 417 574 338 589 403 b 658 506 609 444 639 484 b 837 529 705 514 793 527 l 986 537 l 863 605 b 870 607 865 606 868 607 l 938 632 l 891 673 l 919 679 l 1007 698 b 1089 715 1051 705 1076 710 l 1259 769 l 1082 797 b 1063 798 1079 798 1075 798 b 943 796 1030 798 950 796 b 771 794 892 795 869 799 b 810 870 798 837 806 856 l 854 999 l 738 907 b 627 813 719 892 670 845 l 653 923 b 489 777 593 872 540 827 b 472 776 483 776 478 776 z m 327 722 l 519 530 l 578 472 b 567 456 574 467 571 462 l 303 719 z m 265 256 l 261 254 l 223 292 l 243 308 l 390 159 b 378 138 386 152 382 144 l 262 254 b 265 256 263 254 264 255 z m 412 197 l 271 337 l 282 348 l 268 340 l 253 355 b 267 375 257 362 263 368 l 424 217 z m 283 402 l 441 246 l 429 225 l 271 382 z m 298 151 b 287 135 295 145 292 140 l 204 219 l 228 233 l 358 101 b 344 78 354 93 348 85 l 290 132 b 298 151 294 140 296 146 z m 301 429 l 457 275 l 446 254 l 290 411 b 301 429 294 418 298 423 z m 394 167 l 248 313 b 265 330 254 318 260 325 l 407 188 z m 538 347 l 484 402 l 481 412 l 481 405 l 362 522 l 374 540 l 542 371 l 542 368 z m 463 283 l 308 439 l 319 457 l 474 302 z m 370 725 l 559 535 l 537 532 l 347 723 b 370 725 354 723 361 724 z m 489 327 l 480 312 l 326 467 l 338 485 l 489 333 z m 412 729 l 598 542 l 578 538 l 389 726 z m 361 108 l 233 236 b 255 250 240 241 249 246 l 374 130 z m 545 388 l 381 550 l 392 566 l 549 409 z m 556 435 l 552 425 l 400 577 l 410 593 l 560 443 z m 251 80 l 149 183 l 155 193 l 169 201 l 266 103 z m 232 53 l 132 153 l 145 177 l 248 76 z m 337 528 l 315 525 l 248 592 b 261 596 255 593 261 595 b 239 599 261 598 252 599 l 181 658 l 191 665 b 200 668 192 666 196 667 l 339 530 z m 658 550 l 495 715 l 504 725 l 678 553 z m 487 353 l 344 496 l 354 510 l 355 512 l 482 386 b 487 353 483 375 485 364 z m 237 675 l 362 551 l 347 537 l 215 671 b 237 675 221 672 229 674 z m 225 47 b 201 37 219 47 210 43 l 154 84 b 156 98 157 91 158 97 b 149 90 155 98 153 95 l 118 121 l 129 147 l 229 49 b 225 47 226 47 225 47 z m 582 736 l 585 736 l 757 563 b 739 561 751 563 746 562 l 573 728 b 582 736 577 733 581 736 z m 484 702 l 638 547 l 619 545 l 473 689 z m 562 714 l 718 559 l 698 556 l 552 703 z m 269 108 l 174 203 l 198 216 l 284 130 z m 276 683 l 386 573 l 372 560 l 253 678 b 276 683 261 679 268 681 z m 314 690 l 409 594 l 395 581 l 292 685 b 314 690 300 687 308 688 z m 683 685 l 799 568 b 791 567 796 568 793 567 b 781 566 787 566 784 566 l 673 674 z m 312 18 l 260 71 l 272 96 l 326 44 b 312 18 321 35 316 27 z m 257 66 l 310 14 l 296 -11 l 246 40 z m 234 589 l 300 521 l 275 518 l 208 583 b 234 589 218 585 226 587 z m 196 581 l 261 516 l 234 512 l 170 576 b 196 581 178 578 187 580 z m 287 127 l 342 73 b 329 49 337 64 333 57 l 276 103 b 287 127 280 111 283 120 z m 158 573 l 221 511 l 193 506 l 134 566 z m 280 -42 l 236 2 b 240 26 238 14 240 22 b 244 35 240 27 241 30 l 294 -15 b 280 -42 288 -24 284 -33 z m 724 733 l 760 698 b 749 696 753 697 749 696 l 764 693 l 827 631 l 812 626 l 716 723 z m 153 501 l 105 549 l 122 562 l 123 563 l 182 505 z m 703 708 l 794 620 b 780 614 788 618 784 615 l 694 698 z m 174 18 l 140 53 l 153 80 l 198 35 b 174 18 190 31 182 25 z m 264 -72 l 228 -35 b 235 -2 231 -24 233 -12 l 278 -45 z m 170 653 l 222 600 l 192 600 l 150 643 z m 97 544 l 141 500 b 111 496 130 498 121 497 l 77 531 z m 228 -40 l 262 -74 l 248 -101 l 220 -74 b 228 -40 222 -61 224 -50 z m 615 751 l 674 693 b 667 679 672 688 669 684 l 603 744 b 615 751 607 747 611 749 z m 128 65 l 103 90 l 115 118 l 146 88 z m 228 243 l 199 271 l 218 287 l 253 251 b 228 243 245 248 236 245 z m 150 -3 l 128 17 b 132 35 130 24 131 30 b 138 49 132 37 135 43 l 171 16 z m 233 -132 l 212 -111 l 219 -76 l 247 -105 b 233 -132 240 -115 237 -123 z m 642 770 l 689 722 l 683 710 l 631 762 z m 565 529 l 596 499 l 585 484 l 541 530 b 565 529 548 530 557 530 z m 535 303 l 515 325 b 507 343 512 332 509 339 l 494 374 l 536 331 b 535 303 536 323 535 313 z m 72 491 l 49 513 l 69 526 l 101 495 z m 814 689 l 860 642 l 847 638 l 795 690 b 814 689 801 690 808 689 z m 121 57 b 103 43 118 57 111 50 l 88 58 b 97 78 92 67 95 75 l 101 87 l 126 62 z m 191 232 l 173 251 b 193 267 179 255 186 261 l 220 240 b 191 232 210 237 201 234 z m 159 601 b 118 629 138 614 130 624 l 139 639 l 177 600 b 159 601 169 600 162 600 z m 754 749 l 800 703 l 784 701 l 738 748 b 754 749 744 748 749 748 z m 699 740 l 657 781 l 668 790 l 705 753 z m 798 751 l 841 707 b 826 706 837 707 831 706 l 781 750 b 798 751 787 751 793 751 z m 210 -113 l 232 -135 l 217 -162 l 203 -149 b 210 -113 206 -138 208 -126 z m 549 705 l 516 739 l 526 750 l 556 721 z m 454 731 l 474 712 b 467 696 471 706 469 701 l 433 730 b 454 731 440 730 448 731 z m 841 752 l 879 714 l 878 714 b 866 712 875 713 872 712 l 827 752 z m 126 -26 l 116 -16 l 127 14 l 146 -4 b 126 -26 139 -12 131 -19 z m 905 719 l 871 752 l 887 752 l 918 721 b 905 719 913 721 909 719 z m 693 810 l 721 782 l 715 770 l 684 802 b 693 810 687 804 690 807 z m 154 222 l 144 233 b 168 247 153 237 160 243 l 184 230 z m 280 699 l 262 716 b 286 718 269 716 278 717 l 306 698 b 280 699 298 699 290 699 z m 30 486 l 21 495 b 43 509 27 499 34 503 l 61 489 z m 80 19 l 73 28 l 87 56 l 100 41 z m 202 -193 l 196 -187 l 203 -151 l 216 -165 z m 562 741 b 561 739 562 741 562 740 l 537 764 l 547 775 l 564 757 b 562 741 561 749 560 744 z m 932 752 l 956 728 b 944 725 952 728 949 726 l 918 752 z m 231 701 l 220 710 l 245 714 l 260 699 b 231 701 249 699 238 700 z m 717 830 l 737 811 b 732 801 735 808 733 804 l 708 823 z m 984 733 l 963 753 b 976 754 967 753 971 754 l 995 734 b 984 733 991 734 987 733 z m 118 214 l 112 218 b 139 231 121 222 129 225 l 149 221 z m 562 792 b 568 799 563 794 566 796 l 579 788 l 572 775 l 559 788 z m 236 325 l 236 326 l 248 346 l 260 335 b 236 325 250 330 244 327 z m 59 -4 l 57 -2 b 72 26 60 5 66 15 l 79 18 b 59 -4 71 10 64 1 z m 616 525 l 605 511 l 589 528 z m 740 853 l 752 841 l 747 831 l 733 845 b 740 853 736 847 738 849 z m 835 576 l 843 569 l 825 569 l 812 581 b 835 576 818 579 827 578 z m 1019 754 l 1033 741 b 1024 739 1030 741 1027 740 l 1007 754 z m 111 -43 b 115 -18 110 -37 112 -28 l 124 -28 z m 589 823 l 595 817 l 588 806 l 580 813 z m 537 265 b 524 298 535 268 530 282 l 535 286 b 537 265 535 279 536 271 z m 191 -213 b 194 -188 191 -209 192 -201 l 201 -194 b 191 -213 197 -204 192 -210 z m 762 876 l 767 871 l 763 861 l 755 869 z m 1063 755 l 1065 755 l 1073 748 b 1063 747 1069 748 1066 747 l 1054 755 z m 489 734 l 483 725 l 475 733 b 489 734 481 733 485 733 z m 5 483 l 15 490 l 20 485 b 5 483 14 484 9 483 z m 92 209 b 108 216 92 209 98 213 l 111 213 b 92 209 103 210 96 209 z m 610 847 l 611 846 l 605 834 l 601 837 b 610 847 606 841 608 845 z m 783 902 l 784 901 l 779 891 l 776 894 z m 1109 757 l 1111 755 l 1101 753 l 1099 756 b 1109 757 1103 756 1106 757 z m 52 -11 b 56 -3 52 -9 53 -6 l 58 -5 z m 872 569 l 871 569 l 870 569 z "},"u":{"ha":931,"x_min":0,"x_max":0,"o":"m 1003 957 l 946 862 b 861 736 924 828 892 780 b 812 658 844 713 823 671 b 821 717 814 670 825 704 l 791 801 l 744 724 l 708 665 b 650 559 692 634 670 595 l 642 620 b 505 343 579 481 545 399 b 356 178 426 230 386 203 b 291 143 315 146 296 143 b 271 171 277 143 271 155 b 281 217 271 184 277 204 b 324 313 291 246 304 278 b 460 529 358 378 405 453 l 475 547 b 525 615 499 576 517 598 l 576 739 l 463 669 l 418 641 l 431 670 b 479 748 447 700 467 731 l 488 763 l 569 911 l 427 821 b 328 729 409 809 377 778 l 315 717 l 342 795 l 205 646 b 142 564 186 625 165 595 l 123 536 b 40 405 90 494 62 449 l 36 401 b -60 265 12 363 -34 294 l -165 149 l -33 190 b -43 103 -38 161 -43 130 l -43 101 b -119 -7 -43 75 -90 30 b -22 -26 -85 -18 -28 -10 b 12 -101 -14 -52 -2 -78 b 88 -186 26 -125 54 -168 l 272 -288 l 172 -160 b 237 -163 187 -162 221 -163 b 328 -151 264 -163 294 -159 b 568 -59 413 -130 495 -97 b 710 29 616 -33 678 2 l 894 181 l 710 116 b 785 216 736 147 761 181 b 926 451 843 300 891 386 l 948 489 b 1000 608 979 545 997 580 b 1002 619 1001 610 1001 614 b 983 725 1003 639 991 699 b 1003 957 1001 779 1021 862 z m 403 -73 l 61 267 b 79 285 67 274 73 280 l 240 125 b 252 113 244 121 248 116 l 434 -68 b 403 -73 424 -71 413 -72 z m 355 -72 l 37 245 l 57 263 l 393 -73 b 355 -72 380 -74 368 -73 z m 303 -60 b 365 -91 311 -74 350 -85 l 370 -94 b 341 -104 360 -97 351 -101 l 17 220 b 34 240 17 222 25 230 l 346 -71 b 303 -60 330 -68 315 -65 z m 303 -113 l 10 182 l 15 214 l 335 -105 b 303 -113 325 -108 314 -111 z m 264 -119 l 33 111 l 49 126 b 27 118 49 127 38 123 l 3 142 b 9 176 4 153 6 165 l 298 -113 b 264 -119 286 -115 276 -118 z m 237 -121 l 219 -121 l 104 -5 b 106 19 104 3 104 12 b 99 -1 103 14 100 6 l 11 88 l 30 108 l 259 -120 b 237 -121 251 -120 244 -121 z m 442 -66 l 271 104 l 275 104 b 313 98 287 100 300 98 l 467 -56 l 456 -61 b 442 -66 452 -62 447 -64 z m 159 365 l 154 361 l 95 419 l 108 440 l 262 285 l 252 262 l 155 360 b 159 365 157 362 159 364 z m 98 -75 b 101 -95 98 -80 99 -88 l 17 -11 b -11 17 14 -1 3 9 l -33 40 l -13 62 l 97 -48 b 98 -75 97 -59 98 -68 z m 474 -52 l 324 98 b 355 101 333 98 343 99 l 499 -42 z m 125 467 l 276 315 l 266 295 l 112 448 z m 104 308 l 230 182 b 231 151 229 171 229 160 b 232 143 231 149 232 145 l 84 291 z m 144 494 l 292 345 l 281 325 l 131 475 z m 157 512 l 163 520 l 308 375 l 297 356 l 150 502 z m 615 84 l 469 229 b 483 245 474 234 479 239 l 630 99 b 615 84 625 94 621 89 z m 183 547 l 298 429 b 295 418 296 425 295 420 l 300 427 l 325 404 l 313 385 l 170 529 z m 587 66 l 447 205 l 463 221 l 606 76 b 587 66 601 74 595 69 z m 493 255 l 504 269 l 652 121 l 638 107 l 490 253 z m 524 295 l 673 145 l 660 130 l 512 279 z m 544 321 l 694 170 l 682 155 l 532 306 z m 552 52 l 424 182 l 440 198 l 576 62 z m 97 -45 l -12 64 l 9 85 l 99 -5 b 97 -45 97 -18 97 -32 z m 703 181 l 550 332 l 560 349 l 715 196 z m 231 191 l 109 313 l 126 330 l 237 219 b 231 191 234 209 232 200 z m 142 -182 l 58 -97 b 19 -17 42 -74 29 -46 l 104 -100 b 142 -182 113 -131 136 -172 z m 166 -113 l 109 -57 b 104 -10 106 -43 104 -26 l 214 -120 b 166 -113 199 -120 182 -118 z m 743 232 l 606 370 l 612 387 l 753 247 z m 149 353 l 249 253 l 246 246 l 239 229 l 132 335 z m 656 482 l 808 329 l 798 315 l 649 466 b 656 482 652 471 653 476 z m 626 419 l 771 274 l 762 260 l 620 403 z m 781 287 l 634 435 l 641 451 l 790 301 z m 816 344 l 663 496 l 671 510 l 825 357 b 816 344 823 353 819 348 z m 723 206 l 592 338 l 599 355 l 734 220 z m 850 402 l 697 556 b 704 568 700 560 702 564 l 858 415 b 850 402 856 410 854 406 z m 834 373 l 681 527 l 688 540 l 842 386 b 834 373 839 381 837 377 z m 452 16 l 365 104 b 392 110 374 105 382 107 l 476 25 z m 520 41 l 434 126 b 455 137 441 129 449 132 l 544 49 b 520 41 536 46 528 43 z m 486 28 l 402 113 b 425 122 409 115 418 119 l 510 36 b 486 28 501 33 494 30 z m 223 550 l 313 460 l 303 441 l 210 535 b 223 550 212 536 217 542 z m 243 576 l 328 491 l 318 472 l 231 560 z m 263 601 l 344 521 l 334 503 l 251 587 z m 283 626 l 358 551 l 349 533 l 271 612 z m 91 411 l 146 356 b 126 342 140 350 132 346 l 78 389 z m 308 646 l 372 583 b 364 565 371 579 368 573 l 294 635 z m 484 17 l 529 -27 l 506 -38 l 455 13 z m 766 552 l 841 476 l 834 464 l 757 542 z m 99 322 l 61 360 b 75 382 66 368 71 376 l 120 337 b 99 322 112 332 107 327 z m 520 26 l 559 -12 l 537 -24 l 494 19 z m 785 579 l 856 506 l 850 495 l 778 568 z m 803 606 l 872 536 l 866 526 l 796 595 b 803 606 798 599 801 603 z m 73 303 l 43 333 l 57 354 l 93 317 z m 428 131 l 400 159 l 417 175 l 454 138 z m 558 35 l 589 3 b 568 -7 581 0 575 -3 l 532 29 z m 366 609 l 319 657 b 331 669 324 660 327 665 l 370 631 b 366 609 368 623 366 615 z m 828 626 l 886 567 l 881 557 l 819 619 b 828 626 822 620 825 622 z m 594 45 l 619 19 l 598 9 l 567 37 z m 45 284 l 25 306 l 38 327 l 66 299 z m 720 597 l 760 558 l 755 544 l 714 585 z m 849 650 l 894 605 l 891 593 l 842 641 z m 335 484 l 360 459 l 348 442 l 324 467 z m 354 691 l 381 665 b 374 647 378 659 376 653 l 342 679 b 354 691 346 684 350 687 z m 317 456 l 342 432 l 331 415 l 307 438 z m 391 123 l 375 139 l 393 154 l 419 128 b 391 123 408 126 400 124 z m 355 511 l 378 487 l 366 470 l 343 495 b 355 511 346 500 350 505 z m 737 627 l 771 592 b 767 578 769 588 768 583 l 731 615 z m 629 54 l 646 35 b 627 25 641 32 634 29 l 605 47 z m 18 265 l 5 279 l 20 300 l 40 280 b 18 265 32 275 25 270 z m 374 535 l 396 513 l 386 498 l 363 521 z m 870 676 l 905 640 l 902 628 l 863 668 z m 395 560 l 416 540 l 405 525 l 384 546 z m 576 378 l 595 359 l 591 339 l 567 362 b 576 378 571 368 574 373 z m 121 -87 b 110 -61 118 -82 113 -73 l 161 -112 b 121 -87 144 -107 130 -98 z m 848 469 l 874 443 l 868 432 l 840 458 z m 388 679 l 364 703 l 376 715 l 396 694 b 388 679 393 690 391 685 z m 753 656 l 780 628 b 778 614 780 625 779 620 l 747 644 z m 417 583 l 435 565 l 426 554 l 424 551 l 405 571 z m 201 573 l 214 560 b 208 537 209 549 207 542 l 189 557 b 201 573 193 562 198 567 z m 889 702 l 917 673 l 913 663 l 882 693 z m 663 64 l 675 53 l 656 42 l 641 58 z m 869 495 l 890 473 b 889 471 890 472 889 472 l 884 462 l 861 484 z m 444 577 l 426 595 l 441 605 l 455 590 z m 399 738 l 412 724 l 404 709 l 388 726 z m 592 408 l 604 395 b 599 376 603 389 601 382 l 583 392 z m 0 108 b 2 136 0 116 1 126 l 22 115 b 0 108 11 111 0 107 z m 888 521 l 906 503 l 900 491 l 880 511 z m -9 247 l -14 252 b 1 274 -10 259 -3 266 l 13 262 z m 907 728 l 929 706 l 925 697 l 902 720 z m 917 521 l 899 538 l 905 549 l 922 532 z m 922 576 l 938 561 l 933 551 l 917 567 b 922 576 918 571 921 573 z m 221 598 l 226 593 l 218 573 l 208 582 z m 926 755 l 942 739 l 938 730 l 921 748 z m 421 738 l 410 750 l 421 760 l 429 751 z m 948 582 l 934 596 b 939 605 935 599 938 601 l 952 592 b 948 582 951 589 950 585 z m 355 125 b 368 134 359 127 363 130 l 379 122 b 355 125 359 120 347 121 z m 465 603 l 455 613 l 469 622 l 475 616 z m 607 439 l 613 433 l 608 413 l 599 423 b 607 439 603 428 605 435 z m 699 75 l 701 73 l 685 60 l 676 68 b 699 75 685 72 693 73 z m 943 782 l 954 771 l 951 763 l 939 775 z m 443 784 l 449 779 l 440 766 l 434 772 z m 769 684 l 776 678 l 774 663 l 764 674 z m 956 635 l 964 627 l 959 616 l 951 625 z m -43 30 b -35 37 -41 32 -37 34 l -20 22 b -43 30 -27 26 -34 28 z m 465 808 l 468 804 l 459 793 l 455 797 z m 963 810 l 968 803 l 965 796 l 958 803 b 963 810 959 806 960 808 z m 69 -112 l 122 -165 b 69 -112 103 -146 77 -122 z m -28 236 l -18 248 l -14 244 b -28 236 -20 239 -26 236 z m 971 651 l 968 655 l 972 663 l 974 661 b 971 651 973 658 973 655 z m 237 618 l 232 606 l 229 608 z m 619 464 b 616 451 619 462 618 457 l 614 454 b 619 464 616 458 619 464 z m 978 829 l 975 831 b 980 838 978 833 979 835 l 981 837 z m 485 632 b 484 630 485 631 485 630 l 483 631 z m 481 823 b 479 821 481 822 480 821 b 481 823 479 822 480 822 z "},"v":{"ha":879,"x_min":0,"x_max":0,"o":"m 782 386 l 782 387 b 1095 767 890 501 1032 669 l 1209 947 l 1034 825 b 940 751 1015 811 993 794 l 897 716 b 885 705 893 713 889 709 l 912 782 l 817 735 l 893 948 l 743 770 b 381 386 629 638 503 510 b 366 371 376 380 372 375 b 402 500 376 410 388 453 b 452 656 410 533 432 595 b 493 778 469 704 484 750 l 540 932 l 423 822 b 373 760 415 814 403 798 l 353 732 b 251 660 285 688 267 673 l 251 661 b 257 801 251 662 251 663 l 174 692 b 132 607 168 683 155 663 l 105 532 b 95 515 103 527 98 521 b 38 402 78 486 57 450 l -15 264 l 50 312 b 6 52 31 221 11 113 l 6 48 b 0 -58 3 12 0 -30 l 2 -163 l 28 -136 b 48 -321 27 -157 26 -214 l 107 -202 b 157 -98 111 -193 139 -130 b 132 -236 146 -144 140 -189 l 217 -165 l 269 -115 b 369 -22 298 -88 334 -53 b 560 157 422 24 489 88 b 722 255 605 192 677 232 b 767 282 750 271 761 277 l 872 364 l 756 359 z m 361 27 l 90 297 l 96 327 l 286 137 b 287 107 286 125 286 114 l 292 131 l 379 44 z m 341 10 l 335 5 l 82 259 l 89 290 l 356 22 z m 312 -16 l 75 220 l 81 252 l 331 1 z m 287 -38 l 218 30 l 224 54 b 209 40 219 50 214 45 l 67 182 l 74 214 l 308 -20 z m 104 357 l 107 360 l 288 178 l 286 146 l 98 335 z m 124 480 l 306 299 l 299 272 l 113 459 b 124 480 116 467 121 473 z m 126 388 l 293 221 l 290 190 l 112 368 b 126 388 116 374 122 380 z m 141 509 l 314 335 l 308 311 l 129 488 z m 143 416 l 298 262 l 294 232 l 131 395 z m 154 542 l 323 373 l 316 348 l 145 519 z m 188 15 l 97 107 b 99 119 97 111 98 115 b 94 110 97 118 96 114 l 61 143 l 66 175 l 206 35 b 188 15 200 29 193 22 z m 166 575 l 202 537 b 210 522 203 529 206 522 b 214 528 210 522 213 525 l 331 408 l 326 385 l 158 553 b 166 575 160 560 162 567 z m 318 261 l 331 274 l 473 131 l 456 115 l 316 255 z m 485 165 l 496 154 l 480 138 l 339 281 l 354 297 l 475 174 l 459 168 b 485 165 457 166 471 165 z m 433 93 l 308 218 l 314 245 l 450 109 z m 420 365 l 567 217 l 548 207 l 406 350 z m 517 193 l 384 327 l 397 342 l 537 202 z m 485 178 l 361 304 l 376 319 l 506 188 z m 409 71 l 300 179 l 306 207 l 426 87 z m 662 325 l 520 467 l 533 480 l 676 337 l 667 327 z m 511 456 l 647 321 l 628 314 l 498 443 z m 556 502 l 698 360 l 686 347 l 544 490 b 556 502 547 495 551 498 z m 385 48 l 293 140 l 298 169 l 403 65 z m 599 549 l 743 407 l 731 394 l 589 537 z m 578 526 l 720 384 l 708 371 l 566 514 z m 168 -11 l 90 66 l 96 99 l 185 11 z m 488 434 l 613 309 l 593 301 l 475 421 z m 466 411 l 580 297 l 559 290 l 452 397 b 466 411 457 402 460 406 z m 150 -40 l 82 28 l 89 62 l 166 -14 z m 443 388 l 546 285 l 525 278 l 428 374 z m 131 -67 l 76 -11 l 82 24 l 147 -42 z m 264 -61 l 209 -6 b 217 25 212 3 214 14 l 284 -42 z m 224 561 l 295 491 b 292 465 293 481 292 472 l 217 538 z m 114 -95 l 74 -56 b 73 -40 74 -49 73 -44 b 75 -15 73 -37 73 -28 l 130 -69 b 114 -95 125 -78 119 -87 z m 622 573 l 712 482 l 703 469 l 611 561 z m 722 496 l 634 585 b 644 596 637 589 641 592 l 732 507 z m 236 595 l 301 530 b 297 506 299 521 298 514 l 229 575 b 236 595 232 584 234 592 z m 240 -83 l 202 -45 l 208 -12 l 261 -64 z m 666 620 l 751 533 l 743 522 l 656 609 z m 687 643 l 770 559 l 763 548 l 678 634 z m 729 635 b 735 640 729 634 732 637 l 791 585 l 783 575 l 700 657 l 708 668 l 731 644 b 729 635 729 639 728 635 z m 552 280 l 599 233 l 580 223 l 527 277 b 552 280 533 277 542 278 z m 263 614 l 308 568 b 303 546 307 561 306 553 l 247 603 z m 97 -125 l 73 -100 b 74 -59 74 -85 75 -72 l 113 -97 b 97 -125 107 -107 101 -115 z m 297 488 l 341 444 l 335 422 l 292 465 z m 308 524 l 350 480 l 345 458 l 301 502 z m 317 560 l 361 516 b 360 512 360 514 360 513 l 355 495 l 311 538 z m 328 595 l 372 550 l 365 530 l 322 574 z m 217 -106 l 196 -84 b 201 -50 197 -73 199 -61 l 237 -87 z m 81 75 l 54 101 l 60 137 l 91 105 b 81 75 88 96 84 87 z m 339 628 l 382 584 l 376 565 l 332 609 z m 349 659 l 351 661 l 394 619 l 388 599 l 344 644 b 349 659 345 650 347 654 z m 591 285 l 628 248 l 610 238 l 567 282 b 591 285 575 283 582 283 z m 716 479 l 764 429 l 753 418 l 704 468 b 716 479 707 470 712 474 z m 738 501 l 785 453 l 776 442 l 728 490 b 738 501 731 495 734 498 z m 73 38 l 50 61 l 53 96 l 80 71 z m 760 525 l 808 476 l 798 467 l 750 514 z m 757 663 l 810 611 l 802 601 l 749 655 z m 782 548 l 829 501 l 819 490 l 774 538 z m 121 406 l 97 428 l 109 451 l 140 420 b 121 406 132 416 127 410 z m 287 635 l 315 606 b 311 583 314 599 313 591 l 272 623 b 287 635 277 627 282 631 z m 400 635 l 361 673 l 371 687 l 406 652 z m 804 572 l 850 525 l 842 515 l 795 562 z m 628 293 l 658 264 l 640 254 l 607 288 z m 49 49 l 49 56 l 72 34 l 64 0 l 46 18 z m 178 607 l 204 582 b 202 554 203 573 202 563 l 170 587 z m 82 -158 l 71 -145 b 72 -130 71 -140 71 -135 b 73 -103 72 -122 73 -112 l 96 -126 l 96 -127 b 82 -158 92 -135 87 -146 z m 826 595 l 872 549 l 863 540 l 817 585 z m 848 618 l 892 574 l 886 565 l 840 609 z m 57 -30 b 53 -35 56 -31 54 -32 l 41 -22 b 45 14 43 -10 44 2 l 63 -3 b 57 -30 60 -17 58 -29 z m 390 713 l 418 686 l 411 669 l 380 700 z m 866 636 l 872 640 l 913 598 l 906 590 l 863 632 z m 653 299 l 666 302 l 688 280 l 671 270 l 645 297 b 653 299 647 297 650 298 z m 793 673 l 828 637 l 822 627 l 781 669 b 793 673 785 671 790 672 z m 95 385 l 81 399 b 90 411 85 404 89 409 l 93 420 l 113 400 b 95 385 107 395 100 390 z m 191 636 b 192 639 191 637 192 638 l 208 623 b 205 597 208 616 206 607 l 184 620 z m 72 -192 l 63 -214 b 71 -146 62 -209 67 -173 l 82 -158 b 72 -192 78 -170 75 -182 z m 896 659 l 934 623 l 927 615 l 889 653 z m 192 -128 l 189 -125 b 194 -89 191 -112 193 -100 l 215 -108 b 192 -128 206 -116 199 -123 z m 409 739 l 429 720 l 423 703 l 400 726 z m 922 681 l 954 649 l 948 640 l 915 674 z m 701 312 l 717 296 l 701 287 l 681 307 z m 313 655 l 323 643 b 318 623 322 638 321 630 l 298 644 z m 947 701 l 974 673 l 968 666 l 939 694 z m 43 -71 l 37 -65 l 41 -26 l 52 -37 b 43 -71 49 -46 46 -60 z m 71 362 l 62 371 l 76 391 l 89 379 z m 729 692 l 747 674 l 740 663 l 721 683 b 729 692 723 686 725 689 z m 437 744 b 435 737 436 741 435 739 l 419 753 b 427 766 422 757 425 762 l 440 753 z m 205 672 l 213 663 b 209 639 212 655 209 645 l 198 652 z m 967 718 l 971 721 l 994 699 l 989 692 l 965 716 z m 736 321 l 746 312 b 731 303 740 310 736 307 l 718 316 z m 749 717 l 763 704 l 756 692 l 741 708 z m 822 689 l 835 676 l 830 665 l 813 683 z m 1009 718 l 989 736 b 996 741 991 738 994 740 l 1014 724 b 1009 718 1012 722 1010 720 z m 447 793 l 453 786 l 447 771 l 438 781 b 447 793 441 785 444 788 z m 769 743 l 778 733 l 772 722 l 762 734 z m 46 341 l 45 343 l 58 364 l 65 358 z m 1028 745 l 1015 759 b 1020 764 1017 760 1018 762 l 1033 751 z m 219 703 l 220 702 l 216 678 l 209 685 z m 1044 785 l 1053 777 l 1048 770 l 1038 780 b 1044 785 1041 782 1043 783 z m 847 709 l 851 705 b 846 696 850 702 848 700 l 839 702 z m 788 753 l 783 760 l 790 767 l 793 764 z m 36 -88 l 36 -68 l 42 -73 z m 774 328 l 760 321 l 754 325 b 774 328 762 326 769 328 z m 466 819 l 467 817 l 460 804 l 457 808 z m 1068 807 l 1073 801 l 1068 796 l 1063 802 z m 327 665 l 327 661 l 325 663 b 327 665 325 663 326 663 z m 190 -130 b 189 -131 189 -130 189 -130 l 189 -129 z m 503 161 l 501 162 b 503 161 503 162 503 161 z "},"w":{"ha":1128,"x_min":0,"x_max":0,"o":"m 1244 807 l 1230 795 l 1206 775 b 1168 743 1198 766 1183 753 l 1104 732 l 1099 767 l 1118 893 l 1035 790 b 944 677 1024 777 957 696 b 751 436 888 606 810 507 b 764 579 753 487 757 542 l 779 662 l 715 629 b 702 625 710 629 706 627 b 707 642 705 631 706 637 l 732 769 l 637 682 b 418 487 603 651 488 556 b 553 775 472 611 545 754 l 622 940 l 493 832 b 451 793 485 826 476 818 b 415 756 439 781 426 767 l 405 747 l 402 750 l 388 799 l 344 761 b 373 920 346 807 354 857 b 234 731 310 849 256 767 l 179 638 l 159 599 l 112 683 l 98 553 b 73 410 92 490 77 423 b -67 41 18 286 -48 118 l -83 -30 l -46 -20 b -51 -38 -46 -27 -49 -33 b -71 -107 -57 -62 -71 -95 l -83 -223 b 56 -67 -37 -179 21 -107 b 46 -214 56 -69 54 -72 l 119 -119 b 145 -100 124 -115 135 -110 l 233 -7 l 244 -75 b 332 67 301 24 321 46 b 482 189 373 109 440 152 l 485 137 b 498 -36 490 73 494 -5 b 535 -18 501 -35 522 -26 b 529 -84 531 -32 529 -79 l 528 -167 l 595 -121 l 607 -112 b 613 -107 609 -111 611 -109 b 613 -139 614 -118 613 -127 l 608 -315 l 689 -170 b 743 -78 699 -152 726 -107 b 798 11 761 -48 779 -16 l 798 9 l 871 -92 l 884 17 b 944 213 891 69 922 179 b 1169 527 1030 322 1122 456 b 1311 756 1236 628 1293 720 l 1420 975 z m 811 104 b 809 100 810 103 809 101 l 447 462 l 462 474 l 704 232 b 705 220 704 228 705 223 b 707 228 705 220 706 224 l 813 123 b 811 104 812 114 811 107 z m 350 143 l 316 177 l 316 186 l 314 178 l 107 387 l 110 394 b 115 412 110 395 112 402 l 277 251 b 269 229 274 244 271 236 l 281 247 l 369 159 z m 265 44 l 236 72 l 228 98 l 225 82 l 53 254 b 64 282 58 264 61 274 l 277 69 z m 279 75 l 66 287 l 77 314 l 290 101 b 279 75 286 92 283 83 z m 790 74 l 517 345 l 517 373 l 801 90 b 790 74 797 83 793 79 z m 293 108 l 80 321 l 90 346 l 301 135 z m 776 52 l 770 46 l 518 298 l 518 328 l 782 63 b 776 52 779 58 776 53 z m 304 143 l 93 354 l 104 379 l 312 170 b 304 143 310 160 307 152 z m 752 18 l 520 249 b 519 281 520 261 519 270 l 764 36 z m 50 171 b 48 168 50 171 49 169 l 28 188 l 40 217 l 219 36 l 200 16 l 50 167 z m 51 249 l 225 76 l 222 41 l 41 221 b 51 249 45 231 48 240 z m 521 233 l 746 9 l 734 -9 l 524 202 b 521 233 522 213 521 222 z m 486 496 l 703 279 l 703 251 l 471 483 z m 124 449 l 288 284 l 279 260 l 118 421 z m 130 487 l 177 441 b 183 424 179 434 181 428 l 183 436 l 301 318 l 292 294 l 126 459 b 130 487 128 468 129 478 z m 50 160 l 197 13 l 177 -6 l 46 125 b 50 160 48 138 49 150 z m 510 516 l 703 325 l 703 299 l 497 504 z m 95 50 l 85 40 l 36 88 b 45 121 40 98 43 110 l 174 -9 l 154 -30 l 100 24 b 95 50 99 34 98 43 z m 189 566 l 340 413 l 331 392 l 179 545 z m 174 532 b 175 534 174 532 174 533 l 327 382 l 318 360 l 177 500 z m 204 595 l 354 446 l 345 425 l 193 576 z m 534 537 l 704 369 b 703 344 704 360 703 353 l 521 526 z m 217 616 l 221 624 l 368 478 l 359 457 l 210 606 b 217 616 214 610 215 613 z m 655 22 l 560 118 b 559 136 560 127 559 134 b 554 123 557 135 556 129 l 526 152 b 525 185 526 162 525 173 l 667 44 z m 179 485 l 314 350 l 304 327 l 182 450 b 179 485 182 460 181 472 z m 260 625 l 262 628 l 381 509 b 373 489 379 502 376 496 l 228 635 l 238 653 l 259 631 b 260 625 257 627 257 625 z m 479 246 l 350 373 l 351 374 l 366 389 l 495 260 b 479 246 489 255 484 251 z m 453 225 l 333 345 l 345 364 l 470 239 z m 426 205 l 316 315 l 328 335 l 444 219 z m 874 174 l 831 216 b 832 226 831 220 832 224 l 829 218 l 728 321 l 731 341 l 879 193 b 874 174 877 187 875 181 z m 604 506 l 607 510 l 705 411 b 704 389 705 404 705 396 l 546 547 b 559 558 550 551 554 554 l 605 513 b 604 506 604 510 603 507 z m 401 185 l 300 284 b 312 307 304 292 309 299 l 420 200 z m 496 275 l 374 396 b 390 410 379 401 385 405 l 500 300 z m 885 210 l 739 354 l 751 368 l 890 228 z m 375 165 l 284 254 l 297 277 l 394 179 z m 361 576 l 395 541 b 387 521 393 534 390 528 l 269 639 l 281 654 l 358 578 l 351 562 b 361 576 353 562 356 567 z m 928 317 b 923 309 926 315 925 312 l 802 431 l 812 442 l 956 298 l 947 285 l 926 306 b 928 317 926 309 927 313 z m 895 244 l 761 379 l 770 392 l 902 261 z m 831 467 l 975 324 l 967 312 l 823 456 z m 502 314 l 399 419 l 413 432 l 506 339 b 502 314 505 331 504 323 z m 851 493 l 995 350 l 986 339 l 843 482 z m 815 139 l 712 243 b 717 265 714 249 715 257 l 818 163 z m 791 417 l 916 294 l 908 278 l 781 405 z m 640 -7 l 563 68 b 561 103 563 81 562 93 l 651 14 z m 872 517 l 1013 376 l 1005 365 l 864 507 z m 822 179 l 720 282 b 724 303 721 288 722 296 l 826 201 b 822 179 825 194 824 187 z m 892 543 l 1032 403 l 1025 392 l 885 533 z m 1044 420 l 905 559 l 912 568 l 1051 429 z m 510 353 l 423 440 l 437 453 l 515 375 z m 933 593 l 1069 456 l 1063 447 l 925 584 z m 623 -37 l 566 19 b 564 56 566 30 565 42 l 636 -16 b 623 -37 630 -25 626 -33 z m 972 644 l 1107 511 l 1100 501 l 966 636 z m 1082 474 l 946 610 l 952 619 l 1088 483 z m 629 533 l 707 455 b 706 433 707 448 707 440 l 619 521 z m 64 14 l 25 52 b 35 84 29 63 32 74 l 83 37 z m 294 671 b 301 679 295 671 297 674 l 371 610 l 363 592 l 290 666 z m 101 18 l 152 -32 l 131 -53 l 100 -22 b 101 18 101 -7 101 6 z m 325 702 l 385 643 l 377 624 l 311 689 z m 717 -38 l 670 9 b 673 36 671 19 673 29 l 729 -18 b 717 -38 725 -26 721 -32 z m 44 -12 l 13 18 l 25 50 l 62 12 z m 701 -68 l 662 -30 l 668 -3 l 712 -47 z m 597 -58 l 571 -30 b 568 -3 571 -21 569 -12 b 567 6 568 -2 567 1 l 616 -43 b 597 -58 609 -46 603 -52 z m 350 722 l 397 674 l 390 657 l 337 712 z m 993 670 l 1075 588 l 1069 578 l 986 661 z m 25 -38 l 1 -15 l 13 16 l 43 -14 b 25 -38 37 -22 31 -30 z m 689 -89 b 684 -98 687 -92 685 -95 l 655 -68 b 660 -41 655 -67 657 -57 l 696 -76 z m 135 528 l 159 504 l 172 460 l 132 500 b 135 528 134 509 135 518 z m 1012 694 l 1042 666 b 1042 655 1041 660 1041 657 b 1048 658 1042 653 1045 655 l 1091 616 l 1087 608 l 1006 688 z m 863 138 l 830 171 l 830 196 l 869 157 b 863 138 868 151 865 144 z m 583 579 l 619 545 l 611 529 l 572 568 z m 5 -66 l -10 -49 l 1 -17 l 24 -40 z m 108 -76 l 97 -65 l 100 -26 l 129 -54 l 115 -69 z m 378 603 l 409 572 l 402 553 l 369 587 b 378 603 372 592 374 597 z m 326 121 l 311 137 l 315 168 l 344 138 z m 34 136 l 15 154 l 27 184 l 46 163 z m 550 81 l 529 103 b 527 137 529 114 528 125 l 553 111 z m 855 100 l 830 125 l 830 152 l 860 123 b 855 100 858 115 856 108 z m 395 631 l 424 603 l 416 585 l 386 615 z m 20 104 l 3 121 l 14 151 l 32 132 b 20 104 29 123 25 114 z m 682 527 l 710 497 b 709 478 710 490 709 484 l 673 513 b 682 527 676 516 679 521 z m 6 71 l -7 87 l 2 118 l 19 100 z m -29 -111 l -11 -51 l 5 -67 b -29 -111 -7 -85 -20 -101 z m 412 660 l 438 634 l 431 618 l 403 644 b 412 660 406 651 409 655 z m 668 -128 l 656 -115 l 656 -112 b 654 -80 655 -99 654 -90 l 679 -106 b 668 -128 676 -113 672 -121 z m 1081 581 l 1124 537 b 1119 529 1122 535 1121 532 l 1075 574 b 1081 581 1076 576 1079 578 z m 608 599 l 634 575 l 626 560 l 596 590 z m -6 38 l -19 51 l -9 83 l 5 68 z m 1100 607 l 1142 565 l 1137 557 l 1095 599 z m 429 687 l 452 665 b 444 649 450 659 448 654 l 421 673 z m 651 558 l 670 538 b 668 519 669 531 668 524 l 640 546 z m 546 41 l 533 53 l 530 88 l 549 69 z m 1120 634 l 1160 592 b 1156 584 1159 590 1157 588 l 1114 626 z m 847 62 l 831 77 l 831 94 b 830 106 831 97 830 101 l 851 85 b 850 81 850 83 850 82 z m 263 645 l 245 665 l 254 682 l 270 667 b 263 645 267 659 265 652 z m 1139 658 l 1178 619 l 1174 612 l 1134 652 b 1139 658 1136 654 1138 656 z m 1071 678 l 1075 678 l 1107 646 l 1103 638 l 1065 675 b 1071 678 1067 677 1069 678 z m 449 715 l 467 696 b 459 679 465 690 463 685 l 439 701 z m 690 545 b 700 554 692 545 696 548 l 715 540 l 713 519 l 689 544 z m 576 -81 l 572 -78 b 572 -43 573 -66 572 -54 l 592 -63 b 576 -81 584 -69 579 -77 z m 1159 684 l 1197 647 b 1192 641 1194 645 1193 643 l 1155 678 z m 631 622 l 646 607 b 640 593 643 600 640 595 l 621 611 b 631 622 625 614 628 619 z m 263 697 l 271 710 l 283 699 b 275 679 280 692 277 686 l 261 693 z m 468 740 l 482 726 l 474 712 l 458 728 z m 252 20 l 240 61 l 262 38 b 252 20 259 31 254 25 z m 1186 703 l 1214 675 l 1209 669 l 1181 699 z m 136 571 b 153 526 140 562 146 546 l 136 543 z m 843 19 l 837 27 b 833 58 834 35 834 46 l 845 45 z m 1048 692 l 1027 714 l 1032 720 l 1051 702 z m 654 -160 l 650 -156 l 654 -126 l 665 -137 z m 927 259 l 920 266 l 923 286 l 937 272 l 933 267 z m 490 743 l 478 754 l 487 767 l 497 756 z m 1213 723 l 1232 704 b 1228 697 1230 702 1229 700 l 1206 718 b 1213 723 1208 720 1210 722 z m 370 736 b 396 700 376 729 386 705 b 407 697 401 698 404 697 l 404 689 l 363 731 z m 654 645 l 662 637 l 655 623 l 644 635 z m 288 738 l 295 732 l 287 713 l 279 722 z m 673 580 l 676 578 b 673 559 675 574 675 567 l 661 569 b 673 580 667 575 670 578 z m -25 30 b -19 49 -22 35 -21 43 l -7 37 l -9 36 b -25 30 -14 36 -20 31 z m 308 105 b 309 127 307 104 307 113 l 321 116 l 316 112 z m 717 582 l 720 579 l 718 561 l 708 569 b 717 582 712 575 714 579 z m 1052 746 l 1062 735 l 1059 726 l 1047 738 z m 1236 744 l 1237 745 l 1249 733 b 1248 731 1248 732 1248 731 l 1245 726 l 1232 739 b 1236 744 1234 740 1235 743 z m 507 792 l 512 786 l 505 774 l 498 780 z m 537 15 l 534 38 l 544 30 b 537 15 542 21 540 16 z m 1263 754 l 1254 763 b 1260 768 1256 764 1259 766 l 1267 761 b 1263 754 1265 759 1264 756 z m 95 -82 b 96 -67 95 -77 96 -73 l 106 -77 z m 675 668 l 677 667 l 671 654 l 666 658 b 675 668 669 662 672 666 z m 1291 800 b 1280 783 1288 797 1285 791 l 1277 786 b 1291 800 1282 793 1287 797 z m 1071 772 l 1074 768 b 1072 761 1074 766 1073 764 l 1066 766 b 1071 772 1068 768 1069 770 z m 1108 689 b 1107 681 1107 686 1107 683 l 1100 687 z m 646 -181 b 649 -165 646 -177 647 -172 l 651 -168 z m 300 755 b 299 748 300 753 300 751 l 296 750 z m 525 811 b 520 803 524 809 521 807 l 518 806 z "},"x":{"ha":969,"x_min":0,"x_max":0,"o":"m 1020 626 l 1045 653 l 1109 735 l 970 699 b 1058 787 996 726 1038 759 l 1156 933 l 1006 860 b 584 585 893 807 722 684 l 546 558 b 524 745 530 636 522 698 l 529 918 l 444 767 b 428 725 439 759 435 746 l 403 770 l 364 712 l 344 673 b 329 644 340 666 334 656 l 291 817 l 254 600 b 253 541 252 576 252 559 b 275 380 254 497 262 441 l 240 359 b 129 328 207 351 149 334 l -40 277 l 89 253 b -78 127 24 207 -33 166 l -152 65 l -87 57 l -97 47 l -231 -92 l -52 -24 l -47 -24 b -6 -27 -35 -24 -20 -26 l -16 -42 l -50 -84 b -80 -125 -69 -109 -77 -116 l -81 -127 l -82 -128 b -90 -146 -83 -132 -87 -140 l -96 -160 l -155 -300 l -31 -212 b 140 -80 21 -173 79 -128 b 356 84 210 -26 283 32 b 462 -139 382 10 419 -76 l 549 -268 l 540 -124 b 541 -116 540 -122 540 -120 l 544 -116 l 551 -124 b 609 -157 567 -140 584 -157 l 650 -157 l 663 -172 b 721 -215 685 -193 704 -207 l 841 -265 l 775 -154 b 686 71 752 -115 714 -7 b 687 267 681 94 687 137 l 635 229 b 623 268 630 243 626 255 b 988 538 732 355 973 529 l 1143 641 l 1019 624 b 1020 626 1019 625 1020 625 z m 729 -160 l 353 216 l 349 225 b 348 220 348 224 348 222 l 251 317 b 257 318 253 317 255 317 l 271 328 l 703 -103 b 729 -160 713 -125 721 -145 z m 694 -80 l 280 333 l 300 346 l 675 -29 z m 667 -5 l 308 351 l 322 361 l 318 372 l 650 41 z m 520 245 b 534 247 520 243 527 244 l 606 175 l 607 174 b 608 145 608 170 608 159 l 304 448 l 300 482 l 530 252 b 520 245 527 249 522 247 z m 605 101 l 315 391 b 308 427 312 404 310 416 l 607 128 b 605 101 607 121 606 111 z m 601 -79 l 377 144 l 359 196 l 599 -45 b 601 -79 599 -53 600 -66 z m 540 260 l 298 501 b 296 531 297 512 296 521 l 556 272 b 540 260 549 268 545 263 z m 592 300 l 331 560 l 331 565 b 340 577 332 566 337 571 l 550 366 l 552 363 b 551 365 552 363 551 364 l 607 311 z m 565 280 l 331 513 b 331 541 331 521 332 529 l 581 292 z m 186 12 l 152 47 b 159 56 156 51 159 54 l 147 50 l 35 162 l 58 179 l 208 30 z m 213 33 l 62 183 b 84 199 68 188 77 193 l 234 49 z m 238 52 l 89 202 l 111 217 l 260 68 z m 265 73 l 115 220 l 137 235 l 285 88 z m 609 -114 b 552 -73 595 -114 567 -73 b 476 30 552 -73 478 30 b 490 -14 472 29 481 9 l 408 67 b 386 124 401 85 392 105 l 604 -93 z m 291 92 l 143 239 l 162 253 l 166 253 l 312 107 b 291 92 304 101 298 96 z m 318 111 l 174 254 b 205 260 184 256 194 259 l 339 126 z m 118 34 l 33 119 b 46 137 40 126 44 132 l 27 126 l 10 143 l 31 159 l 143 48 b 118 34 136 45 127 40 z m 353 136 l 345 130 l 215 261 b 248 262 225 262 236 262 l 353 156 b 353 136 354 145 354 137 z m 351 170 l 212 310 l 239 315 l 348 206 b 351 170 348 196 350 183 z m 5 -130 b -68 -190 -19 -151 -44 -171 b -42 -143 -65 -182 -45 -153 b -16 -109 -40 -139 -30 -125 l 5 -130 l -15 -108 l 4 -84 l 31 -110 l 5 -83 l 18 -69 l 26 -60 l 56 -90 l 31 -110 b 5 -130 22 -116 14 -123 z m 541 500 l 548 505 l 685 369 l 671 359 l 542 488 b 541 500 541 493 541 496 z m 698 378 l 562 515 l 575 525 l 710 388 z m 88 19 l 13 94 b 31 115 18 101 25 108 l 114 33 z m 724 399 l 589 534 l 600 543 l 737 408 z m 751 418 l 615 553 l 627 562 l 763 426 z m 654 581 l 790 447 l 777 437 l 642 573 z m 57 3 l 35 25 b 43 35 38 29 42 32 b 30 30 38 33 34 31 l -6 67 b -2 73 -4 69 -2 72 b 11 91 0 77 5 83 l 83 17 z m 507 -76 l 505 -76 l 443 -14 b 416 48 434 5 425 27 l 499 -34 b 507 -76 507 -57 514 -76 z m 679 600 l 815 465 l 804 457 l 668 592 z m 644 339 l 546 438 b 544 465 545 447 544 455 l 658 349 b 644 339 654 346 650 342 z m 706 620 l 842 484 l 831 476 l 696 612 z m 446 493 l 347 591 l 356 607 l 437 525 z m 449 514 l 529 433 b 540 399 532 421 535 410 l 451 487 b 449 514 450 494 450 503 z m 832 521 l 722 630 l 733 638 l 842 530 z m 619 319 l 549 388 b 547 416 549 396 548 406 l 632 330 z m 443 566 l 517 491 b 521 470 518 484 519 476 b 524 460 521 467 522 464 l 446 537 z m 857 543 l 750 650 l 761 657 l 865 550 z m 882 564 l 777 669 l 786 675 l 826 637 b 819 629 822 634 819 630 b 830 631 818 627 824 629 l 890 571 z m 439 614 l 507 546 l 512 517 l 441 590 b 439 614 440 600 439 609 z m 371 638 l 422 585 l 431 553 l 362 621 z m 134 -28 l 99 5 l 123 25 l 157 -10 z m 82 -68 l 50 -36 l 73 -16 l 106 -50 z m 109 -48 l 75 -14 b 97 4 82 -7 90 -1 l 131 -30 b 109 -48 124 -35 116 -42 z m 160 -7 l 125 27 l 147 44 l 183 10 b 160 -7 175 3 168 -1 z m -5 19 l -32 46 l -9 65 l 27 29 b -5 19 17 26 6 21 z m 57 -89 l 27 -59 l 48 -37 l 80 -69 z m 450 650 l 498 601 b 502 574 499 592 500 583 l 444 631 z m 201 274 l 172 302 l 201 309 l 245 264 b 201 274 236 267 220 270 z m 566 261 l 585 241 l 598 201 l 547 252 b 566 261 553 255 560 259 z m 497 -113 l 493 -109 b 452 -32 481 -90 466 -63 l 500 -81 b 497 -113 497 -89 499 -105 z m 862 646 l 917 591 l 908 584 l 850 641 z m 614 121 l 641 95 b 643 64 641 83 641 73 l 607 99 z m -43 11 l -58 26 b -33 44 -50 32 -41 37 l -7 18 b -43 11 -19 16 -32 14 z m 459 686 l 490 654 l 494 628 l 454 668 b 459 686 456 673 457 679 z m 934 604 l 882 656 l 892 660 l 943 610 z m 149 280 l 134 295 l 163 301 l 188 276 z m 385 669 l 407 646 l 411 618 l 377 653 b 385 669 380 658 382 665 z m 842 650 l 803 687 l 813 694 l 850 656 z m 24 -10 l 17 -3 b 34 21 20 3 28 13 l 53 2 b 24 -10 42 -3 32 -6 z m -4 111 l -16 123 b 5 140 -10 129 -1 135 l 22 124 z m 296 576 l 312 561 l 322 524 l 296 548 z m 627 154 l 643 138 l 641 111 l 619 134 z m 869 670 l 831 706 l 840 712 l 877 676 z m 868 730 l 904 696 l 895 689 l 859 724 z m 895 748 l 929 715 l 922 708 l 887 743 z m 468 722 l 485 704 l 487 681 l 464 705 b 468 722 465 710 466 717 z m 940 657 l 967 630 l 960 624 l 929 654 z m 849 522 l 869 503 l 858 496 l 837 516 z m 944 732 l 915 761 l 923 766 l 950 738 z m -36 97 l -42 101 l -19 121 l -7 109 b -36 97 -18 104 -29 99 z m -87 0 l -82 3 b -59 24 -77 10 -68 16 l -46 11 b -87 0 -62 6 -77 3 z m 878 537 l 895 521 l 885 514 l 868 532 z m 642 185 l 649 178 l 645 154 l 632 166 z m 951 783 l 972 762 b 967 755 971 760 969 757 l 943 779 z m 98 284 l 96 287 l 125 294 l 138 282 b 98 284 124 283 110 284 z m 907 554 l 922 540 l 912 533 l 896 548 z m 975 668 l 989 655 b 982 647 987 653 984 651 l 965 665 z m 938 569 l 949 558 l 939 551 l 926 564 b 938 569 929 566 934 567 z m 979 800 l 996 784 l 990 779 l 972 796 z m 306 585 l 296 595 l 296 622 l 299 618 z m 400 699 l 401 698 b 405 671 403 691 404 682 l 392 684 z m 478 757 l 483 752 l 483 731 l 473 741 z m 970 583 l 976 576 l 968 571 l 959 579 z m 661 -107 l 719 -165 b 661 -107 700 -151 679 -128 z m 1007 816 l 1016 808 l 1012 802 l 1001 813 z m 1010 679 l 1010 678 l 1004 671 l 1000 676 z m 1003 595 l 1004 594 b 996 589 1002 592 999 591 l 993 592 z m -48 95 l -50 95 l -44 99 l -40 96 b -48 95 -43 95 -46 95 z m 15 -12 b 16 -5 14 -11 15 -7 l 20 -11 b 15 -12 18 -11 16 -11 z m 652 197 b 651 193 652 196 651 194 l 650 194 z "},"y":{"ha":857,"x_min":0,"x_max":0,"o":"m 1123 847 b 994 792 1075 823 1026 802 l 1048 951 l 922 830 b 835 760 902 811 868 783 l 832 756 l 861 875 l 753 767 b 641 660 729 743 667 683 l 640 660 l 639 659 b 410 472 597 622 486 520 b 513 943 403 618 489 877 l 389 822 b 377 802 386 818 384 813 l 358 767 l 353 759 l 344 782 b 276 724 329 772 293 738 l 269 849 l 198 744 b 168 684 187 728 177 706 b 145 637 160 668 153 650 l 132 620 b 108 537 120 591 114 571 b 74 330 100 499 75 377 l 74 216 l 118 266 b 129 219 121 250 125 233 b 18 -18 81 130 42 50 l -4 -87 l 67 -74 b 71 -73 68 -74 69 -74 l 67 -85 l 63 -104 l 36 -261 l 138 -139 b 152 -118 142 -134 145 -128 b 206 -69 166 -99 178 -66 l 206 -82 l 201 -125 b 197 -188 197 -154 194 -172 l 220 -331 l 279 -198 b 442 138 318 -106 379 20 b 594 250 472 158 526 197 l 632 271 b 768 349 671 292 718 316 l 933 455 l 811 438 b 996 634 880 504 942 569 b 1123 847 1076 731 1101 786 z m 462 203 l 146 517 l 150 530 l 153 544 l 480 216 z m 435 184 l 176 441 l 178 444 l 176 442 l 138 480 l 144 506 l 453 197 z m 409 167 b 408 165 408 166 408 165 l 165 408 b 172 432 167 416 169 424 l 427 178 z m 376 104 l 149 331 b 147 338 147 333 147 335 l 153 361 l 388 126 b 376 104 384 119 379 111 z m 161 397 l 403 156 l 392 134 l 155 372 b 161 397 156 379 159 389 z m 360 74 l 158 277 b 151 318 155 291 153 304 l 372 96 b 360 74 369 89 363 81 z m 162 578 l 393 347 b 406 304 397 331 402 316 l 156 556 b 162 578 158 565 160 572 z m 345 43 l 297 90 l 302 99 b 296 91 301 99 299 96 l 175 212 b 176 214 175 212 175 213 b 161 261 171 229 166 245 l 357 67 b 345 43 353 59 349 50 z m 169 596 l 177 608 l 378 408 l 387 370 l 167 591 b 169 596 167 592 168 594 z m 239 9 l 126 122 b 140 147 130 130 135 139 l 255 33 z m 259 37 l 142 153 l 156 177 l 274 60 z m 221 -18 l 144 58 b 151 76 147 67 151 76 b 140 63 146 73 143 68 l 111 92 l 124 118 l 237 4 z m 277 65 l 159 183 l 172 206 l 292 87 z m 410 418 b 413 419 411 418 412 418 l 557 275 l 541 262 l 407 395 z m 595 299 l 452 442 b 468 454 457 446 463 450 l 614 309 z m 569 285 l 566 282 l 424 425 b 441 436 429 428 436 432 l 583 293 b 569 285 578 291 574 287 z m 244 589 l 368 464 l 371 443 b 373 428 371 441 372 436 l 236 567 z m 579 368 b 598 369 582 368 590 368 l 644 324 l 627 315 l 479 463 l 494 474 l 596 372 b 579 368 591 370 584 369 z m 407 379 l 532 255 l 515 243 l 406 350 b 407 379 406 361 406 370 z m 254 624 l 364 512 b 366 483 364 502 365 493 l 247 601 z m 715 410 l 579 547 l 591 558 l 729 420 b 723 415 726 418 725 416 z m 682 397 l 554 526 b 567 536 559 529 563 532 l 700 405 z m 741 431 l 604 569 l 615 580 l 753 442 z m 543 515 l 666 392 l 647 386 l 530 504 z m 639 601 l 777 464 l 765 453 l 627 591 z m 662 623 l 799 486 l 788 475 l 652 613 z m 612 376 l 504 483 l 518 495 l 631 381 b 612 376 625 379 619 377 z m 488 222 l 409 301 b 407 333 408 313 407 324 l 505 235 z m 217 -25 b 186 -30 215 -26 200 -27 l 131 25 l 143 53 l 219 -22 z m 265 657 l 330 592 l 330 580 b 331 590 330 583 331 587 l 366 556 b 364 531 365 547 364 540 l 259 638 b 265 657 261 645 263 653 z m 812 499 l 699 612 l 709 621 l 822 509 z m 835 521 l 724 634 l 734 641 l 845 531 z m 858 545 l 749 655 b 759 662 752 658 756 660 l 868 554 z m 881 569 l 777 673 l 790 678 l 850 616 l 850 614 b 853 614 850 613 851 614 l 889 578 z m 329 12 l 283 58 l 295 83 l 342 36 z m 156 -40 l 153 -42 l 120 -9 l 130 21 l 182 -30 b 156 -40 171 -32 160 -35 z m 314 -18 l 271 25 b 281 52 274 33 277 42 l 327 6 z m 299 -50 l 260 -11 b 269 18 264 0 266 10 l 311 -24 z m 284 -81 l 253 -50 b 252 -34 254 -42 253 -35 l 259 -16 l 297 -54 z m 290 679 l 331 637 b 330 611 330 629 330 621 l 274 668 b 290 679 279 671 284 675 z m 193 638 l 234 598 b 234 568 233 587 234 576 l 184 619 z m 132 -68 l 118 -53 b 113 -38 119 -45 118 -38 b 119 -12 111 -37 113 -27 l 152 -45 b 132 -68 145 -51 139 -60 z m 123 33 l 96 61 l 109 88 l 138 59 b 123 33 132 50 127 42 z m 113 14 l 104 6 l 81 28 l 94 57 l 121 30 b 113 14 116 22 113 14 z m 269 -112 l 249 -92 l 253 -56 l 282 -84 z m 158 415 l 130 442 b 136 468 131 451 135 459 l 170 434 b 158 415 167 428 162 423 z m 638 374 l 674 339 l 657 330 l 616 371 z m 207 669 l 237 640 b 235 614 236 632 235 624 l 199 650 z m 340 628 l 371 597 l 368 574 l 334 607 z m 817 694 l 870 643 l 862 632 l 808 688 z m 348 665 l 378 634 l 374 614 l 343 644 z m 359 699 l 389 670 l 384 651 l 353 681 b 359 699 355 688 357 694 z m 142 384 l 123 404 b 128 432 124 412 126 422 l 154 406 b 142 384 150 400 146 392 z m 845 713 l 889 669 l 882 659 l 835 706 z m 688 346 l 657 377 l 677 380 l 704 355 b 688 346 699 351 693 348 z m 254 -144 l 243 -132 b 248 -96 244 -121 246 -108 l 268 -116 z m 80 -15 l 68 -4 l 80 25 l 101 4 z m 314 699 l 332 681 b 331 656 332 673 332 665 l 300 688 z m 876 637 l 910 601 l 903 593 l 868 628 z m 871 732 l 906 698 b 904 691 905 696 904 693 l 902 687 l 862 725 z m 127 351 l 115 365 l 121 394 l 139 375 z m 925 618 l 890 652 b 897 659 893 654 895 657 l 932 625 z m 380 723 l 400 705 b 394 686 397 699 395 692 l 369 710 b 380 723 372 713 376 718 z m 717 388 l 734 371 l 718 361 l 696 384 b 717 388 703 385 709 386 z m 920 683 l 953 650 l 947 642 l 912 675 z m 686 644 l 707 623 l 698 612 l 675 635 z m 114 -96 l 109 -91 l 118 -57 l 131 -71 z m 967 667 l 937 697 b 947 701 940 697 943 699 l 973 674 z m 709 666 l 730 646 l 720 637 l 700 657 z m 733 688 l 751 670 l 743 660 l 724 679 b 733 688 728 682 730 686 z m 221 701 l 230 692 b 228 667 229 684 228 674 l 213 682 b 221 701 216 688 218 696 z m 240 -176 l 238 -174 b 241 -136 238 -165 239 -151 l 253 -147 z m 988 692 l 966 715 l 973 720 l 994 700 z m 399 751 l 409 740 l 404 722 l 390 737 z m 113 319 l 108 326 l 113 355 l 124 344 z m 896 751 l 915 733 b 911 723 913 730 911 725 l 889 746 z m 753 395 l 763 387 l 748 378 l 734 391 b 753 395 740 393 747 394 z m 756 710 l 768 698 b 765 688 767 694 765 690 b 764 686 765 687 764 687 l 748 702 b 756 710 751 704 754 707 z m 998 740 l 1014 725 l 1007 718 l 990 735 z m 59 -32 b 67 -6 61 -24 64 -15 l 78 -17 b 59 -32 69 -25 62 -31 z m 920 774 l 932 763 l 926 754 l 913 767 z m 413 780 l 419 776 b 413 759 418 770 416 765 l 406 766 z m 779 716 l 771 724 l 780 733 l 785 726 z m 1032 750 l 1028 745 l 1017 755 l 1024 761 l 1033 751 b 1032 750 1032 751 1032 750 z m 943 783 l 936 790 l 942 796 l 949 790 b 943 783 948 787 946 785 z m 790 405 l 791 404 b 778 395 786 401 782 397 l 772 401 z m 105 -111 b 109 -93 105 -108 107 -100 l 113 -98 b 105 -111 110 -104 107 -109 z m 335 713 b 333 700 335 710 334 706 l 326 708 b 335 713 329 710 332 712 z m 106 299 b 107 316 106 303 106 310 l 111 313 b 106 299 109 308 107 303 z m 962 810 l 958 813 l 965 819 l 967 818 z m 233 720 b 232 708 233 717 233 713 l 228 713 z m 797 750 l 795 746 l 794 747 z m 424 798 b 423 795 424 797 423 796 l 423 796 b 424 798 423 796 423 797 z m 238 -178 l 239 -179 l 239 -181 b 238 -178 239 -179 238 -178 z "},"z":{"ha":971,"x_min":0,"x_max":0,"o":"m 1084 718 b 1107 746 1092 729 1100 737 l 1241 905 l 1056 812 l 1006 786 b 967 760 998 781 975 764 l 996 796 l 1074 911 l 909 812 b 850 783 900 806 870 792 b 663 776 785 778 724 779 b 534 816 639 784 561 810 l 379 854 l 472 765 b 302 751 439 763 321 753 l 118 726 l 292 669 b 325 649 297 666 312 657 l 213 597 l 254 587 b 248 582 252 585 250 584 l 214 557 l 89 455 l 247 481 b 446 504 317 493 387 500 b 278 372 391 463 332 416 l 232 335 l 208 395 l 166 310 b 123 248 156 290 139 265 b -63 87 65 200 6 149 l -63 85 b -128 25 -68 81 -116 36 l -193 -40 l -111 -47 b -315 -267 -141 -73 -261 -197 l -89 -155 b -18 -122 -68 -145 -46 -130 l 1 -116 l -63 -198 l 50 -175 l 112 -165 l 168 -156 b 422 -124 245 -143 411 -125 l 514 -118 b 604 -110 547 -115 577 -113 b 638 -109 613 -109 625 -109 b 690 -107 655 -109 673 -109 l 826 -90 l 704 -27 b 639 -13 698 -22 649 -16 b 705 -10 647 -10 698 -12 l 741 2 b 762 10 754 6 759 7 l 851 44 l 804 67 l 835 75 l 993 129 l 837 158 b 749 162 831 159 817 162 b 441 151 667 162 547 158 l 463 169 l 609 294 l 612 210 l 685 304 b 804 441 704 329 766 404 b 1044 600 828 456 974 556 l 1174 686 l 1052 681 b 1084 718 1063 694 1075 707 z m 156 79 l 157 79 l 327 -91 l 293 -95 l 60 138 l 80 156 z m 252 -100 l 60 91 l 61 92 l 60 91 l 35 116 l 56 135 l 287 -96 z m 212 -106 l 38 66 b 58 89 47 75 52 83 l 247 -101 z m 198 83 l 369 -87 b 334 -91 358 -88 346 -89 l 163 80 z m 170 -111 l 109 -50 b 126 -28 119 -41 125 -32 b 97 -38 118 -30 108 -34 l 16 43 l 36 64 l 207 -107 z m 238 88 l 409 -82 l 375 -85 l 204 84 z m 419 -81 l 418 -81 l 247 89 l 280 92 l 450 -78 z m 322 95 l 455 -37 b 449 -40 451 -38 449 -38 b 462 -44 449 -42 453 -43 l 493 -75 l 460 -78 l 290 93 z m 810 496 l 534 772 l 560 764 l 821 503 b 810 496 816 501 813 498 z m 255 298 l 390 163 l 372 149 l 236 283 b 255 298 243 288 249 294 z m 363 98 l 491 -29 l 463 -34 l 332 96 z m 347 128 l 220 253 b 231 278 224 265 229 274 l 365 143 z m 397 170 l 263 304 l 280 318 l 415 185 z m 406 101 l 531 -22 l 501 -27 l 374 99 b 406 101 385 100 395 101 z m 837 514 l 600 751 l 627 743 l 848 521 z m 422 191 l 288 325 b 306 339 294 329 299 334 l 439 206 z m 447 213 l 314 345 l 331 358 l 463 226 z m 448 105 l 568 -14 l 542 -20 l 417 103 b 448 105 427 104 438 105 z m 471 234 l 340 364 l 357 378 l 488 248 b 471 234 483 243 476 239 z m 364 714 b 384 715 371 714 377 715 l 547 551 b 525 550 538 550 532 550 l 361 713 b 364 714 362 713 363 714 z m 312 116 l 209 219 b 218 245 212 228 215 236 l 341 123 z m 236 99 l 135 202 l 153 217 l 154 218 l 193 179 b 192 172 192 177 192 174 b 196 177 192 172 194 174 l 266 106 z m 497 255 l 365 385 l 382 399 l 512 268 z m 491 108 l 601 -2 l 592 -9 l 579 -12 l 460 106 z m 546 297 l 418 426 l 433 438 l 561 310 z m 521 277 l 392 406 l 407 418 l 536 290 z m 199 91 l 109 181 l 129 198 l 229 97 z m 561 560 l 405 717 b 425 718 411 717 419 718 l 575 569 z m 572 318 l 443 447 l 458 457 l 585 330 z m 682 734 l 876 540 b 865 532 872 537 869 534 l 665 733 b 682 734 671 734 676 734 z m 597 340 l 469 466 l 484 478 l 611 351 z m 611 1 l 504 109 b 534 110 514 109 525 110 l 634 11 z m 66 -53 l -5 18 l 14 41 l 95 -40 z m 161 81 l 84 159 l 105 176 l 192 89 b 161 81 178 85 168 83 z m 622 360 l 496 487 l 510 498 l 636 372 z m 274 108 l 198 184 b 206 210 201 191 203 200 l 302 114 z m 689 438 b 686 435 688 437 687 437 l 574 547 l 587 557 l 724 419 l 715 407 l 688 434 b 689 438 688 435 689 438 z m 893 550 l 710 735 l 725 735 l 904 558 b 893 550 900 556 896 552 z m 654 386 l 649 381 l 521 507 b 535 518 526 511 531 514 l 660 392 b 654 386 658 389 655 387 z m 589 579 l 447 720 l 467 722 l 601 587 z m 644 15 l 547 111 l 577 113 l 667 22 z m 34 -67 l -27 -5 l -6 17 l 64 -54 b 34 -67 53 -60 43 -64 z m 736 432 l 599 567 l 612 577 l 747 442 b 736 432 744 438 739 435 z m -41 -84 b -113 -120 -63 -92 -87 -103 b -66 -60 -98 -98 -80 -78 l -41 -84 l -65 -59 b -49 -34 -59 -50 -53 -42 b -48 -32 -48 -33 -48 -32 l -5 -75 b -41 -84 -17 -78 -29 -80 z m 669 406 l 547 527 l 561 537 l 676 421 z m 759 455 l 626 588 l 637 596 l 768 465 z m 782 478 l 652 608 b 662 615 656 610 659 613 l 794 485 z m 620 115 l 662 73 l 663 72 l 701 34 l 678 27 l 592 113 z m 618 597 l 490 724 b 509 725 497 724 502 724 l 629 604 z m 26 -69 b -4 -75 15 -71 5 -73 l -47 -31 b -28 -6 -44 -26 -37 -17 l 31 -67 b 26 -69 29 -68 27 -68 z m 131 -118 l 87 -74 b 108 -52 93 -66 100 -60 l 168 -112 b 161 -113 166 -112 163 -112 z m 646 613 l 533 728 l 537 728 b 557 722 541 728 548 725 l 659 620 b 646 613 655 619 651 615 z m 91 -124 l 64 -97 b 72 -90 66 -95 68 -92 l 84 -75 l 127 -118 l 105 -122 z m 481 548 l 426 601 b 443 608 436 605 442 607 l 504 549 b 481 548 496 548 488 548 z m 770 736 l 804 701 b 803 697 802 699 802 697 b 807 699 803 697 804 698 l 851 654 l 846 644 l 755 736 z m 438 545 l 390 593 l 409 597 l 460 546 b 438 545 453 546 446 545 z m 395 542 l 353 583 l 374 589 l 419 544 b 395 542 410 543 403 542 z m 173 244 l 199 218 l 194 187 l 158 223 b 173 244 163 230 169 236 z m 507 -44 l 536 -73 b 503 -75 526 -73 515 -74 l 472 -44 z m 419 610 l 380 650 l 380 653 b 393 659 379 654 387 656 l 443 609 b 419 610 441 610 431 610 z m 663 118 l 697 82 b 673 78 689 81 679 80 l 636 116 b 663 118 645 116 654 116 z m 353 536 l 318 572 l 325 575 b 338 579 326 576 331 577 l 377 540 z m 33 73 l 11 95 b 32 113 17 101 25 107 l 57 89 b 33 73 49 84 42 79 z m 358 675 l 347 682 l 317 712 b 341 713 326 712 332 713 l 382 670 b 358 675 372 671 361 673 z m 551 -43 l 578 -69 b 547 -72 568 -71 558 -72 l 518 -43 z m 5 52 l -14 73 l 7 92 l 30 71 z m 725 89 l 713 85 l 679 118 b 707 119 689 119 699 119 l 734 92 z m -19 32 l -38 50 l -34 54 l -16 72 l 4 51 z m 312 531 l 287 558 l 288 559 b 306 566 292 561 298 563 l 335 534 z m 565 -44 b 600 -46 578 -44 590 -45 l 621 -66 b 599 -67 613 -66 606 -66 b 590 -68 596 -67 593 -67 l 564 -44 z m -46 13 l -62 29 l -40 49 l -21 31 b -46 13 -30 24 -38 17 z m 906 691 l 957 640 b 949 635 954 638 951 637 l 899 685 z m 857 650 l 902 604 l 893 597 l 848 642 z m 880 670 l 929 622 l 921 616 l 873 663 z m 63 -99 l 89 -124 l 52 -131 l 47 -126 b 63 -99 52 -119 57 -109 z m 190 272 l 203 260 b 200 228 203 251 202 240 l 177 250 b 190 272 182 257 187 265 z m 708 63 b 724 56 710 61 717 58 l 735 45 l 714 38 l 684 67 b 708 63 696 66 706 64 z m -63 2 l -77 -2 l -85 6 l -63 28 l -47 12 b -63 2 -54 6 -60 2 z m 865 671 l 825 712 b 833 717 828 713 831 715 l 872 679 z m 749 120 l 752 120 l 769 103 l 748 96 l 724 120 z m 943 698 l 981 661 b 978 656 979 659 978 657 b 975 654 976 655 976 654 l 935 694 b 943 698 938 694 940 697 z m 271 526 l 257 540 l 276 550 l 296 529 z m 654 -54 l 665 -65 b 634 -66 655 -66 644 -66 l 615 -48 b 654 -54 630 -49 643 -52 z m 681 417 l 703 394 l 693 382 l 674 401 z m 861 735 l 893 704 l 887 697 l 853 730 z m 373 610 l 361 621 b 374 634 366 625 371 629 l 396 610 z m 972 715 l 1001 686 l 996 679 l 965 710 z m 908 597 l 931 576 l 921 569 l 897 593 z m 907 722 l 880 748 b 889 753 884 750 886 752 l 910 732 b 907 722 908 729 907 725 z m 672 357 l 661 368 l 668 385 l 683 370 b 672 357 678 365 675 361 z m 798 119 l 804 111 l 783 106 l 770 120 b 798 119 781 120 790 120 z m 939 611 l 958 594 l 949 588 l 929 607 b 939 611 933 609 936 610 z m 1000 733 l 1022 710 b 1017 704 1021 708 1019 706 l 993 729 b 1000 733 995 731 998 731 z m 231 519 l 226 525 l 246 534 l 256 524 z m 813 738 l 825 726 l 818 718 l 800 737 b 813 738 804 737 808 737 z m 972 625 l 986 612 l 976 606 l 962 621 b 972 625 968 624 971 625 z m 1024 747 b 1029 749 1025 748 1027 748 l 1043 735 l 1038 730 l 1021 746 b 1024 747 1022 746 1022 747 z m 204 304 l 205 303 b 204 271 204 292 204 282 l 194 281 b 204 304 198 288 202 297 z m 920 754 l 909 767 l 916 771 l 926 762 b 920 754 924 759 921 756 z m 1004 638 l 1013 629 l 1004 624 l 995 635 z m -98 -5 l -87 5 l -78 -2 b -98 -5 -87 -4 -94 -5 z m 279 712 l 296 712 l 308 701 b 279 712 293 706 280 710 z m 652 331 l 651 332 b 656 351 651 335 653 343 l 662 345 z m 1057 767 l 1064 759 l 1060 754 l 1050 763 z m 941 779 l 936 785 b 943 790 939 786 941 788 l 948 785 z m 1082 778 l 1078 782 l 1083 785 l 1087 783 z m 685 -64 b 678 -65 683 -64 681 -65 l 672 -59 b 685 -64 677 -61 682 -62 z m 46 -127 l 50 -131 l 43 -134 z m 1041 647 l 1033 642 l 1030 645 z m 348 612 l 351 610 l 343 610 b 348 612 344 610 346 611 z m 827 116 b 822 115 825 115 824 115 l 819 118 b 827 116 823 116 825 116 z m 217 518 l 218 517 l 214 517 b 217 518 215 517 216 518 z "},"e":{"ha":940,"x_min":0,"x_max":0,"o":"m 1110 720 l 1276 790 b 1097 802 1218 794 1145 802 b 902 803 1016 802 959 803 b 690 800 831 803 760 802 b 708 842 699 818 705 833 l 769 1005 l 640 889 b 609 856 631 880 621 870 b 568 814 596 843 583 828 l 580 896 l 488 803 l 479 792 l 472 784 b 324 762 416 779 364 771 b 65 681 285 754 169 733 b 264 658 175 665 253 665 b 251 645 263 657 260 653 b 154 592 240 636 179 601 l 212 582 b 109 520 193 567 143 536 l -64 439 l 145 440 b 175 443 154 440 165 442 l 161 435 b 134 415 144 423 138 420 b 121 387 126 408 121 397 b 91 376 110 384 99 379 b 14 342 38 357 26 347 l -68 303 b 65 254 44 264 56 257 b 58 230 63 240 60 234 l 10 142 b -57 128 -28 136 -49 131 l -223 71 l -97 36 l -127 24 b -198 -11 -167 6 -185 -4 l -358 -88 l -163 -87 b -101 -81 -152 -87 -123 -81 b -91 -82 -95 -81 -92 -81 l -74 -89 l -100 -107 b -109 -113 -104 -110 -107 -111 l -270 -225 l -77 -190 b 46 -162 -19 -179 16 -171 b 81 -154 58 -159 69 -156 l 78 -185 b 78 -230 75 -208 76 -218 l 103 -351 l 168 -228 l 184 -191 l 209 -134 b 498 -98 306 -121 403 -110 b 827 -51 569 -90 690 -81 l 704 -9 b 799 50 712 -3 767 31 b 725 82 788 54 740 72 b 768 90 728 83 766 89 b 801 97 778 93 790 95 b 849 109 817 100 835 103 l 979 169 l 847 190 b 687 196 815 196 738 196 b 361 179 596 196 481 188 l 379 212 l 433 220 b 674 247 505 231 575 240 l 782 253 l 705 317 b 763 350 731 333 756 347 l 829 382 l 790 409 l 813 420 l 829 426 l 971 497 l 813 507 l 798 507 b 631 497 764 507 703 503 b 536 491 604 495 565 494 b 553 514 542 500 548 507 b 859 535 706 534 819 535 b 890 534 871 535 880 535 l 1049 529 l 934 601 b 1105 670 953 614 974 613 l 1027 692 b 1041 697 1032 693 1036 694 b 1110 720 1077 708 1100 716 z m 209 -90 l 149 -29 l 156 -2 b 143 -24 154 -2 149 -11 l 53 65 b 56 67 54 66 56 66 b 48 71 56 68 53 69 l 19 100 l 56 106 l 247 -85 z m 95 111 l 286 -80 b 251 -84 275 -82 263 -83 l 60 106 z m 229 10 b 235 16 230 10 232 12 l 327 -76 b 293 -80 315 -77 303 -78 l 100 112 b 134 118 112 113 124 115 l 233 18 z m 278 119 l 73 324 b 99 333 80 327 90 329 l 288 143 z m 453 266 l 250 470 l 252 474 l 270 479 l 481 270 b 453 266 471 269 463 268 z m 309 124 l 489 -57 l 456 -60 l 294 104 z m 223 225 b 254 223 222 223 237 223 l 303 175 b 293 152 299 168 296 160 l 107 335 l 132 345 l 248 230 b 223 225 235 228 225 225 z m 345 428 b 365 431 351 428 358 429 l 496 300 b 493 298 494 299 493 298 b 498 297 491 297 495 297 l 520 276 l 495 272 l 284 482 l 308 488 l 361 434 b 345 428 351 432 345 429 z m 101 -106 b 90 -108 97 -106 94 -107 l -42 24 b -26 41 -35 29 -30 35 l -19 44 l 112 -88 b 101 -106 107 -98 103 -105 z m 249 54 l 95 208 l 97 213 l 109 232 l 261 80 b 249 54 257 72 253 63 z m 415 261 l 234 440 l 245 460 l 439 264 z m 235 24 l 140 119 b 159 125 149 121 155 123 l 132 127 l 79 179 l 92 203 l 247 48 z m 290 97 l 449 -61 l 417 -65 l 276 76 z m 264 88 l 113 237 b 137 251 119 243 134 246 l 275 111 z m 374 254 l 212 417 b 229 431 220 422 226 427 l 401 259 z m 113 -85 l -17 45 b 14 54 -10 48 2 51 l 127 -57 b 113 -85 122 -67 118 -78 z m 52 -118 l 25 -90 b 50 -72 35 -84 44 -78 b 9 -73 36 -72 22 -72 l -68 3 b -66 4 -67 3 -66 3 b -43 21 -58 9 -50 15 l 88 -108 z m 316 132 b 344 135 326 132 334 134 l 482 -3 l 453 -10 l 313 129 b 316 132 314 131 315 132 z m 272 71 l 408 -66 l 374 -69 l 256 47 z m 386 138 l 519 3 b 491 -1 510 1 500 0 l 355 136 z m 428 141 l 559 11 b 530 5 549 9 540 6 l 397 139 b 428 141 408 139 418 140 z m 128 -54 l 17 56 l 50 64 l 141 -26 z m 257 232 l 140 348 b 165 358 150 351 158 355 l 285 237 b 257 232 276 235 266 233 z m 296 239 l 173 361 b 200 369 181 363 189 366 l 324 245 b 296 239 315 244 306 241 z m 569 12 l 440 142 b 470 144 450 142 460 143 l 596 16 z m 334 247 l 212 371 l 237 376 l 361 252 z m 253 42 l 366 -71 l 334 -75 l 238 20 z m 495 502 l 342 655 l 348 661 l 357 666 l 505 516 b 495 502 502 512 498 507 z m 406 434 l 532 309 l 509 303 l 380 432 b 406 434 389 432 397 434 z m 661 567 l 491 737 l 501 749 l 522 728 l 522 717 l 528 721 l 573 676 b 571 673 572 675 571 674 b 574 675 571 673 573 673 l 679 569 b 661 567 673 568 668 567 z m 553 581 l 403 732 l 424 735 l 563 595 z m 449 438 l 569 316 l 547 312 l 423 436 b 449 438 432 436 440 437 z m 515 529 l 373 671 b 391 676 378 673 385 674 l 525 543 z m 489 441 l 607 324 l 585 319 l 465 439 b 489 441 473 440 481 441 z m 448 458 l 325 580 b 347 584 332 582 340 582 l 467 464 z m -33 -77 b -62 -48 -35 -74 -46 -59 l -99 -11 l -68 2 l 6 -73 b -33 -77 -6 -74 -19 -75 z m 675 755 l 853 578 l 835 578 l 658 754 b 675 755 665 755 670 754 z m 531 446 l 645 332 b 624 327 640 330 632 329 l 509 443 b 531 446 516 443 524 444 z m 543 566 l 534 554 l 407 682 b 424 689 417 685 424 688 l 544 568 b 543 566 544 567 543 566 z m 791 577 l 631 735 l 640 745 l 807 577 z m 475 475 l 363 588 b 381 594 374 590 380 592 l 486 490 z m 746 574 l 609 712 l 618 721 l 764 575 b 746 574 759 575 752 575 z m 573 609 l 443 737 l 463 740 l 471 731 b 478 724 471 725 474 724 l 581 622 z m 574 449 l 674 347 l 659 338 l 550 447 z m 596 698 l 722 573 l 703 571 l 587 687 z m 614 452 l 702 365 l 687 356 l 593 451 b 614 452 600 451 608 452 z m 147 -32 l 206 -91 b 170 -96 193 -92 182 -94 l 138 -64 z m 545 83 l 483 144 l 513 146 l 569 89 b 545 83 561 88 553 85 z m 349 510 l 285 573 b 309 577 293 575 301 576 l 376 511 b 349 510 369 511 359 510 z m 582 91 l 527 147 b 554 149 536 147 546 149 l 609 96 b 582 91 600 95 591 93 z m 307 505 l 252 560 l 255 563 b 271 569 257 565 263 567 l 332 509 z m 587 69 l 590 69 l 637 22 b 610 18 627 20 616 18 l 553 75 b 587 69 561 72 573 69 z m -84 -149 b -5 -105 -63 -130 -33 -118 l 15 -126 b -84 -149 -10 -132 -40 -140 z m 374 438 l 321 491 l 343 497 l 396 444 z m 598 151 l 649 101 l 623 98 l 571 150 b 598 151 580 151 590 151 z m 410 448 l 358 501 l 379 506 l 433 454 z m 488 -11 l 529 -51 l 506 -54 b 499 -56 503 -54 501 -54 l 455 -12 b 488 -11 463 -12 472 -12 z m -80 -41 b -101 -38 -85 -40 -93 -38 b -172 -45 -125 -38 -156 -42 b -99 -11 -162 -37 -127 -22 l -63 -48 b -80 -41 -68 -45 -74 -42 z m 784 674 l 702 756 b 719 757 708 756 714 757 l 799 676 b 784 674 794 676 788 675 z m 806 670 l 873 604 l 873 603 b 891 577 873 592 880 584 b 881 578 888 577 885 578 l 788 671 b 806 670 793 670 799 670 z m 530 -7 l 571 -47 l 540 -50 l 500 -10 b 530 -7 510 -10 519 -9 z m 642 152 l 688 107 l 663 103 l 615 152 z m 573 -4 l 611 -43 l 581 -46 l 542 -6 b 573 -4 552 -6 563 -5 z m 156 -128 l 127 -99 l 137 -67 l 169 -98 z m 243 552 l 292 504 l 266 501 l 226 540 z m 62 150 l 76 174 l 123 128 l 80 131 z m 826 679 l 748 759 l 762 759 l 841 681 b 826 679 835 679 830 679 z m 643 62 l 675 29 l 650 25 l 606 67 b 643 62 618 66 630 64 z m 613 -4 b 632 -18 621 -12 631 -17 l 654 -40 l 624 -42 l 587 -4 b 613 -4 601 -3 612 -3 z m 687 153 l 688 153 l 724 115 b 702 110 718 113 710 112 l 660 153 z m 806 760 l 882 685 l 869 683 l 793 760 z m 354 597 l 316 635 l 330 645 l 380 595 b 354 597 377 596 366 596 z m 298 224 l 318 205 l 307 182 l 265 223 b 298 224 277 223 287 224 z m 142 -160 l 125 -143 b 122 -121 125 -132 124 -124 l 127 -103 l 155 -130 z m 34 -121 b 15 -126 28 -122 22 -124 l -5 -105 l 25 -91 l 51 -118 z m 620 563 l 577 605 b 583 620 579 611 581 615 l 638 565 b 620 563 632 564 626 563 z m 918 690 b 910 688 917 689 913 688 l 838 761 l 851 761 l 920 692 z m 400 689 l 363 725 l 384 730 l 423 689 b 400 689 421 690 411 690 z m 224 495 l 199 521 l 200 522 b 217 533 205 526 212 529 l 251 499 z m -4 78 l -20 94 b 5 98 -10 95 0 97 b 15 99 9 98 12 99 l 43 73 b -4 78 31 75 14 77 z m 656 455 l 694 418 b 677 412 688 416 682 415 l 636 454 b 656 455 643 454 650 455 z m 357 686 l 325 718 l 332 720 l 344 722 l 379 687 b 357 686 370 686 362 686 z m 733 154 l 756 130 b 753 129 755 129 754 129 b 737 121 748 126 743 123 l 706 153 b 733 154 715 153 723 154 z m 885 620 l 835 669 l 851 669 l 895 626 z m 551 741 l 588 705 l 581 692 l 542 733 z m 699 458 l 731 426 b 715 422 728 425 721 423 l 678 457 b 699 458 686 458 692 458 z m 199 382 l 184 399 l 203 411 l 232 382 z m 939 704 l 884 761 l 896 761 l 948 709 z m 707 406 l 733 380 b 716 373 726 378 721 375 l 684 406 z m 538 302 l 560 280 l 534 277 l 512 299 z m 306 598 l 288 615 b 304 627 294 619 298 623 l 333 597 b 306 598 324 598 314 598 z m 186 488 l 168 506 l 188 516 l 212 493 b 186 488 203 491 194 490 z m 315 690 l 308 690 l 285 712 l 307 716 l 332 689 b 315 690 327 690 321 690 z m 574 304 b 582 303 577 304 579 303 l 601 284 b 577 282 593 284 584 283 l 554 303 b 574 304 562 304 568 304 z m 597 722 l 566 754 l 577 763 l 605 735 z m 942 761 l 981 721 l 971 718 l 929 761 z m 704 46 l 713 36 l 688 32 l 663 57 b 704 46 678 53 692 49 z m 741 462 l 763 441 b 747 435 756 439 751 436 l 721 460 b 741 462 729 462 735 462 z m 127 -192 l 121 -186 l 125 -145 l 141 -161 z m 571 588 l 598 560 l 577 558 l 565 571 b 571 588 566 576 568 581 z m 778 154 l 793 139 b 770 135 785 137 778 136 l 750 154 z m 42 310 b 66 321 45 312 53 316 l 97 291 b 42 310 81 300 54 308 z m -54 82 l -61 89 b -24 93 -49 91 -36 92 l -9 79 z m 896 669 l 925 640 b 916 636 922 639 919 638 l 882 669 z m 629 301 l 643 287 b 619 285 635 287 627 286 l 601 303 z m 599 785 l 620 764 l 613 752 l 590 776 z m 257 692 l 246 705 l 267 708 l 286 691 b 257 692 277 691 267 692 z m 146 482 l 137 491 l 158 501 l 173 486 z m 987 761 l 1016 731 l 1007 729 l 974 761 z m 783 466 l 798 452 l 781 447 l 764 464 z m 622 808 l 636 794 l 630 783 l 613 799 b 622 808 616 802 620 804 z m 953 650 b 950 649 952 649 951 649 l 929 668 l 942 668 l 959 652 b 953 650 957 651 955 650 z m 697 -36 b 667 -38 687 -36 676 -37 l 653 -25 b 697 -36 671 -30 694 -34 z m 1031 762 l 1052 740 b 1044 738 1049 739 1046 738 l 1020 762 z m 825 152 l 829 147 b 809 142 823 145 816 143 l 797 154 b 825 152 807 154 816 153 z m 520 774 l 528 765 l 525 750 l 512 763 z m 824 469 l 832 462 b 816 457 827 459 822 459 l 807 468 b 824 469 813 468 818 469 z m 107 474 l 105 478 l 126 487 l 134 480 z m 644 831 l 652 824 l 646 813 l 636 823 b 644 831 639 826 641 829 z m 1075 763 l 1089 751 l 1080 749 l 1065 763 z m -93 84 b -64 89 -91 85 -79 87 l -58 82 b -93 84 -76 83 -90 83 z m 768 390 b 750 386 767 389 759 388 l 738 396 b 768 390 750 393 766 390 z m 163 385 l 175 393 l 185 382 b 163 385 174 382 162 384 z m 988 668 l 997 660 l 986 658 l 975 668 z m 60 145 l 73 132 l 53 135 z m 119 -215 b 121 -187 118 -213 119 -201 l 127 -193 z m 108 277 b 107 280 108 278 108 279 l 130 256 b 108 277 122 262 108 269 z m 328 223 l 323 214 l 311 224 b 328 223 321 224 328 224 z m 215 697 l 230 701 l 236 694 z m 866 473 l 868 472 l 853 468 l 848 471 z m 283 600 b 274 606 281 603 278 604 b 278 609 274 606 276 607 l 286 599 b 283 600 285 599 283 600 z m 1115 759 l 1111 764 l 1121 764 l 1123 761 b 1115 759 1121 761 1119 760 z m 667 855 l 667 854 l 662 844 l 658 847 z m 671 290 b 662 288 668 290 666 288 l 656 295 z m 537 797 l 534 786 l 531 790 z m 96 472 l 95 472 b 96 473 95 472 95 473 z "},":":{"ha":751,"x_min":0,"x_max":0,"o":"m 550 261 l 746 368 l 525 341 l 507 339 b 411 325 485 337 454 333 b 487 370 437 339 463 355 b 584 425 520 390 554 410 l 716 493 l 589 500 b 599 513 592 505 596 510 b 668 548 612 526 631 535 l 906 631 l 654 631 b 489 613 600 631 534 622 b 332 576 433 604 375 590 b 158 502 272 558 215 533 l 1 417 l 155 421 b 162 404 157 416 159 409 b 182 386 167 397 173 391 l 154 354 l 229 341 b 285 323 248 337 267 334 b 304 299 291 318 297 310 b 215 270 276 292 245 282 b 126 229 181 257 151 243 b 58 170 96 209 74 191 l 32 136 l -103 50 l 66 63 b 88 40 72 56 78 47 l 95 33 l 54 -2 l 170 -1 b 206 -11 182 -1 193 -5 b 249 -22 218 -15 233 -20 l 268 -24 l 282 -12 b 451 114 317 20 411 88 l 565 190 l 500 191 l 443 182 b 479 205 443 185 473 199 b 496 223 483 210 488 216 l 507 233 b 550 261 528 247 545 257 z m 295 53 l 181 173 l 157 197 l 179 208 l 314 68 b 295 53 308 63 300 59 z m 319 73 l 186 212 l 208 221 l 338 87 z m 271 35 l 225 82 b 231 92 231 87 233 91 b 218 91 229 92 224 92 l 158 153 b 176 168 166 158 172 163 l 291 50 b 271 35 283 45 277 41 z m 314 490 l 297 487 l 274 511 l 292 517 l 424 381 l 408 372 l 300 484 z m 434 387 l 304 521 l 323 528 l 450 396 z m 345 535 l 355 538 l 474 412 l 460 404 l 335 532 z m 262 465 l 371 351 l 353 343 l 244 455 z m 310 125 l 215 224 l 237 233 l 327 140 z m 290 479 l 397 365 l 381 357 l 271 470 z m 333 144 l 246 236 b 267 244 252 238 260 240 l 351 158 z m 388 547 l 462 469 b 450 459 455 465 451 462 b 469 462 456 459 463 460 l 501 427 l 488 421 b 487 420 487 421 487 420 l 450 459 l 370 543 b 388 547 375 544 381 545 z m 358 162 l 277 247 l 299 253 l 376 175 b 358 162 372 172 364 168 z m 234 450 l 342 339 b 329 334 338 337 333 335 b 303 370 317 342 323 359 b 282 372 300 371 291 372 l 216 440 z m 382 179 l 309 256 l 332 263 l 400 192 z m 185 81 l 131 136 b 154 150 139 140 146 144 l 212 89 b 185 81 204 87 194 83 z m 407 197 l 342 265 b 364 270 349 267 357 269 l 424 209 z m 151 74 l 105 122 b 107 123 105 122 106 122 b 127 134 113 126 121 129 l 179 80 b 151 74 169 77 158 74 z m 474 476 l 403 550 b 421 556 408 552 415 553 l 488 485 z m 253 20 b 241 22 249 20 246 21 l 201 64 l 221 79 l 267 32 z m 454 562 l 516 499 b 502 491 512 496 506 495 l 437 559 z m 115 72 b 101 96 105 81 101 87 l 87 96 l 74 110 b 100 120 84 113 94 116 l 145 74 b 115 72 136 74 125 73 z m 434 217 b 432 216 433 216 433 216 l 376 274 l 399 279 l 441 234 b 434 217 434 226 429 219 z m 489 569 l 543 514 l 528 505 l 471 566 z m 415 282 l 433 285 l 464 253 l 449 241 l 410 281 b 415 282 411 281 413 282 z m 334 132 l 362 104 b 360 103 361 104 360 103 b 344 91 355 98 349 94 l 313 123 b 334 132 317 124 325 128 z m 552 525 l 506 573 l 524 576 l 562 535 z m 363 144 l 387 120 b 369 108 380 116 374 112 l 342 136 b 363 144 349 139 357 141 z m 201 36 l 187 36 l 174 50 b 194 60 183 53 190 57 b 198 62 196 60 197 61 l 232 26 b 201 36 222 30 212 34 z m 149 162 l 131 181 l 152 193 l 173 172 z m 468 291 l 488 270 b 473 261 482 267 476 263 b 472 260 472 261 472 260 l 446 287 z m 560 581 l 587 553 b 574 545 582 551 578 548 l 543 579 z m 507 465 l 531 440 l 515 434 l 486 463 z m 384 150 l 400 150 l 413 136 b 394 124 407 132 401 128 l 373 147 b 384 150 377 149 380 150 z m 263 479 l 243 500 l 262 506 l 283 484 b 263 479 277 483 269 481 z m 231 468 l 212 488 b 231 496 218 490 224 493 l 251 475 b 231 468 244 473 237 470 z m 118 151 l 108 161 b 127 177 113 167 120 172 l 143 160 z m 210 464 l 194 464 l 182 476 l 201 484 l 220 465 b 210 464 216 464 212 464 z m 547 467 l 561 451 l 545 446 l 526 466 b 547 467 533 467 540 467 z m 596 585 l 597 585 l 613 568 b 608 566 611 567 609 566 l 600 562 l 579 583 z m 504 296 l 515 284 b 499 276 510 282 504 279 l 483 293 b 504 296 487 293 496 294 z m 48 94 l 42 100 l 69 109 l 81 96 b 48 94 72 96 59 95 z m 203 431 b 208 435 203 431 205 433 l 234 407 b 203 431 219 412 201 417 z m 146 33 l 142 37 b 170 48 150 41 160 44 l 181 36 z m 236 382 b 248 392 240 387 245 390 l 267 373 b 262 374 265 373 263 373 b 236 382 253 377 245 380 z m 157 458 l 152 464 l 172 472 l 182 462 z m 632 590 l 643 579 b 630 575 639 577 635 576 l 616 588 b 632 590 622 589 627 590 z m 436 154 l 439 151 l 421 140 l 410 151 z m 537 304 l 544 299 l 527 291 l 517 299 b 537 304 525 301 531 303 z m 576 457 l 566 468 l 587 468 l 592 463 b 576 457 587 462 581 459 z m 669 596 l 675 589 l 662 584 l 654 594 b 669 596 659 594 663 595 z m 92 144 l 104 158 l 113 150 b 92 144 101 145 93 143 z m 11 91 b 37 99 12 91 22 95 l 43 93 b 11 91 28 92 14 91 z m 571 313 l 572 313 l 556 304 l 551 309 z m 705 600 l 707 598 l 694 594 l 690 598 b 705 600 696 599 701 600 z m 136 456 l 143 459 l 145 456 z m 134 33 b 139 36 135 33 136 35 l 142 33 z m 451 158 b 448 156 450 157 449 156 l 447 157 b 451 158 449 157 451 158 z "},".":{"ha":736,"x_min":0,"x_max":0,"o":"m 423 -3 b 503 66 450 30 472 47 l 699 173 l 478 146 l 460 144 b 359 129 437 142 404 139 b 168 76 310 120 236 103 b 79 34 134 63 104 48 b 10 -25 48 15 26 -3 l -16 -59 l -150 -144 l 25 -130 b 40 -155 27 -140 32 -149 l 47 -161 l 6 -197 l 122 -196 l 123 -196 b 158 -205 135 -196 145 -200 b 202 -217 171 -209 185 -215 l 220 -218 l 234 -206 b 403 -80 270 -174 363 -107 l 518 -4 z m 249 -137 l 163 -51 b 169 -46 167 -49 169 -47 b 160 -48 169 -46 166 -47 l 110 2 l 131 14 l 268 -123 b 249 -137 262 -128 255 -132 z m 259 -68 l 295 -104 l 276 -118 l 140 18 l 162 28 l 259 -67 z m 205 -174 l 191 -171 l 143 -123 b 146 -118 146 -121 147 -118 b 137 -116 144 -116 141 -116 l 108 -88 l 129 -75 l 217 -162 z m 223 -157 l 137 -71 l 157 -57 l 243 -142 b 223 -157 236 -147 230 -153 z m 265 -60 l 173 32 l 196 41 l 283 -47 b 265 -60 276 -51 269 -57 z m 292 -41 l 206 45 l 230 52 l 311 -29 b 292 -41 304 -32 298 -37 z m 319 -22 l 240 56 l 263 62 l 339 -12 z m 348 -4 l 277 66 l 299 73 l 364 6 b 348 -4 359 2 354 -1 z m 127 -61 l 81 -15 l 103 -2 l 152 -51 z m 386 22 l 375 14 l 314 76 b 335 81 322 77 329 79 l 386 31 b 386 22 384 27 384 24 z m 94 -74 l 56 -36 b 75 -20 61 -31 67 -26 l 120 -64 z m 368 88 b 374 89 370 88 372 88 l 408 53 l 394 41 l 350 84 z m 293 -57 l 321 -84 l 302 -98 l 270 -65 z m 54 -81 l 35 -62 l 44 -50 b 51 -42 46 -47 48 -44 l 84 -75 b 54 -81 78 -76 66 -78 z m 327 -46 l 348 -67 b 330 -79 342 -72 335 -75 l 304 -53 b 327 -46 313 -50 321 -47 z m 412 96 l 435 73 l 428 68 l 420 62 l 390 92 z m 94 -121 l 81 -107 l 101 -92 l 126 -116 z m 126 -153 l 124 -151 b 127 -141 127 -146 128 -143 b 138 -128 126 -139 131 -132 l 175 -166 b 126 -153 160 -160 144 -153 z m 18 -91 l 11 -83 b 30 -66 17 -78 25 -73 l 47 -83 z m 451 103 l 464 89 l 447 80 l 429 98 z m 370 -43 l 379 -52 b 359 -62 373 -56 365 -58 l 342 -45 b 370 -43 353 -45 361 -44 z m 490 108 l 495 105 l 478 96 l 469 105 z m 80 -122 b 68 -123 77 -122 73 -123 b 76 -111 66 -121 69 -116 l 85 -122 z m 407 -37 l 390 -46 l 385 -41 b 407 -37 397 -40 406 -37 z m -5 -95 l 6 -88 l 11 -92 b -5 -95 4 -94 -2 -95 z m 510 111 l 509 110 l 509 111 z "},";":{"ha":784,"x_min":0,"x_max":0,"o":"m 361 124 b 349 146 355 135 350 142 l 349 151 b 348 162 348 154 348 160 l 348 228 l 288 202 b 226 182 272 194 244 171 l 191 239 l 155 176 b 38 13 128 129 88 73 b -61 -99 -3 -37 -41 -79 b -107 -147 -82 -121 -97 -138 b -111 -152 -108 -150 -109 -151 l -203 -252 l -69 -222 l -38 -212 l -38 -214 b -157 -321 -54 -235 -88 -270 b -166 -328 -161 -324 -163 -325 l -364 -482 b -9 -341 -159 -411 -44 -360 b 57 -302 13 -330 35 -316 b 99 -272 75 -292 91 -279 b 149 -229 114 -261 134 -240 l 143 -301 l 244 -191 b 322 -97 259 -175 293 -139 b 397 56 362 -40 388 12 l 419 151 l 364 119 z m 592 447 b 672 516 619 480 641 497 l 868 623 l 646 596 l 629 594 b 528 579 606 592 573 589 b 337 526 479 569 405 552 b 248 484 302 513 272 498 b 178 425 217 465 194 447 l 153 391 l 19 306 l 193 319 b 208 295 196 310 201 301 l 216 288 l 175 253 l 291 254 l 292 254 b 327 245 303 254 314 250 b 371 233 340 240 354 235 l 389 232 l 403 244 b 572 370 439 276 532 343 l 687 446 z m 143 -181 l 30 -63 l 46 -45 l 162 -165 z m 167 -161 l 50 -40 l 65 -22 l 183 -145 z m 201 -129 l 189 -140 l 69 -16 b 83 0 75 -11 79 -5 l 204 -124 z m 207 -116 l 89 6 l 103 25 l 218 -95 z m 92 -149 b 79 -157 91 -149 85 -153 l 46 -123 b 51 -103 51 -112 53 -104 b 37 -112 50 -103 45 -107 l 11 -85 l 26 -67 l 140 -184 l 121 -200 l 83 -161 z m 238 -44 l 233 -57 l 153 26 l 168 41 l 283 -78 b 270 -95 280 -83 275 -90 l 238 -62 b 238 -44 239 -54 239 -48 z m 221 -87 l 108 31 l 121 48 l 230 -65 z m 188 62 l 300 -53 l 291 -68 l 288 -71 l 174 48 z m 208 84 l 284 6 l 316 -28 l 306 -46 l 194 69 z m 433 323 l 298 463 l 312 469 l 444 331 b 433 323 440 329 437 326 z m 427 381 b 435 382 427 380 431 381 l 468 348 b 457 341 465 346 460 344 l 328 475 l 341 482 l 431 387 b 427 381 428 385 427 382 z m 220 95 l 231 104 l 299 33 l 288 15 l 216 91 b 220 95 217 93 219 94 z m 312 382 l 396 295 l 386 286 l 299 375 b 312 382 303 378 308 380 z m 253 123 l 312 61 l 303 44 l 238 110 z m 409 304 l 325 392 b 335 401 330 395 334 399 l 420 313 b 409 304 416 311 412 308 z m 346 283 l 308 323 b 315 332 313 327 317 331 b 298 333 312 333 306 333 l 274 359 l 286 366 l 374 276 b 346 283 364 276 356 279 z m 444 399 l 358 488 b 370 493 362 489 365 490 l 455 405 z m 276 141 l 324 92 b 317 73 323 88 322 81 l 262 130 z m 470 415 l 389 499 l 402 503 l 480 421 z m 97 -220 l 64 -185 b 80 -166 71 -179 76 -173 l 116 -204 z m 434 513 l 506 437 l 496 431 l 422 510 z m 74 -238 l 43 -206 b 61 -188 49 -201 56 -194 l 94 -222 z m 50 -255 l 21 -226 b 40 -209 27 -220 33 -215 l 71 -240 z m 522 448 l 453 518 l 466 521 l 531 454 z m 34 -266 l 24 -272 l 0 -248 b 15 -233 5 -243 10 -237 l 18 -230 l 46 -257 b 34 -266 43 -261 38 -263 z m 319 397 l 271 448 l 284 455 l 334 403 z m 53 -173 l 30 -150 b 44 -127 35 -142 40 -134 l 75 -159 z m 290 386 l 246 431 b 257 439 250 434 253 437 l 303 391 b 290 386 299 390 294 388 z m 14 -132 l -10 -108 b 6 -89 -4 -103 1 -95 l 33 -115 z m 554 472 l 546 466 l 487 527 l 500 529 l 553 473 b 554 472 553 472 553 472 z m 259 375 l 257 375 l 222 411 l 234 422 l 274 380 b 259 375 266 377 259 375 z m -2 -288 l -22 -268 l -2 -250 l 21 -275 z m -10 -151 l -31 -129 l -13 -111 l 10 -136 z m 236 -73 l 265 -103 l 252 -120 l 230 -96 z m 138 72 l 163 46 l 152 28 l 125 54 z m 308 24 l 331 0 l 322 -18 l 293 12 z m 155 96 l 178 72 b 168 54 175 66 172 60 l 143 79 z m -28 -302 b -30 -303 -28 -302 -29 -302 l -45 -287 l -25 -270 l -5 -291 b -28 -302 -13 -295 -20 -299 z m -24 -160 l -37 -165 l -51 -151 l -33 -131 l -13 -154 z m 172 122 l 193 99 b 184 81 192 95 188 89 l 160 105 z m 27 -189 l 14 -176 l 28 -154 l 49 -175 z m 226 -105 l 247 -126 l 234 -143 l 218 -127 z m 533 536 l 571 498 l 564 491 l 521 534 b 533 536 526 535 530 536 z m -58 -318 l -68 -308 l -46 -288 l -31 -304 b -58 -318 -40 -310 -49 -314 z m 222 369 l 204 388 b 213 400 208 392 212 396 l 214 401 l 240 372 z m 482 359 l 453 389 b 466 393 457 391 462 392 l 493 366 z m 330 44 l 344 29 l 337 10 l 316 31 z m 188 147 l 202 134 l 197 111 l 177 130 z m 300 159 l 306 154 b 307 139 306 147 307 141 b 316 116 308 134 312 125 l 285 149 b 300 159 291 153 296 157 z m 215 -135 l 229 -150 l 215 -168 l 204 -157 z m 497 404 l 518 382 l 507 376 l 485 401 b 497 404 489 402 494 404 z m 261 328 l 248 342 l 261 350 l 280 331 z m -85 -332 l -92 -326 l -69 -309 l -59 -319 z m 588 511 l 558 542 b 567 543 561 542 564 543 l 594 516 b 588 511 592 515 590 513 z m -68 -177 l -73 -173 l -54 -154 l -42 -167 z m 0 -204 l -4 -200 l 12 -179 l 22 -191 z m 189 359 l 182 368 b 194 378 186 371 190 374 l 207 364 z m -122 -339 l -113 -347 l -116 -344 b -93 -327 -109 -338 -100 -332 l -87 -333 l -113 -347 l -136 -358 b -116 -344 -129 -353 -123 -348 z m 202 -163 l 210 -173 l 196 -190 l 190 -185 z m 612 528 l 593 548 b 603 549 596 548 599 549 l 620 532 z m 351 63 l 355 61 l 348 41 l 338 51 z m 535 406 l 545 396 b 535 391 542 394 538 392 l 521 405 b 535 406 527 405 531 405 z m 292 297 l 291 297 b 296 309 296 302 297 306 b 297 313 295 310 296 311 l 315 294 b 292 297 308 295 300 297 z m 640 543 l 628 553 b 639 554 631 554 636 554 l 647 546 z m 181 -207 b 187 -191 181 -205 184 -199 l 191 -196 z m 573 411 l 573 410 l 563 405 l 560 409 z m 674 560 l 675 559 l 669 556 l 666 559 b 674 560 669 560 672 560 z m 163 355 l 171 359 l 174 356 b 163 355 170 355 166 355 z m -13 -210 l -6 -203 l -3 -206 b -13 -210 -6 -208 -10 -209 z m 237 327 b 237 332 236 328 236 330 l 243 327 z m -79 -181 l -75 -175 l -72 -178 z "},",":{"ha":606,"x_min":0,"x_max":0,"o":"m 308 124 b 296 146 301 135 297 142 l 296 151 b 295 162 295 154 295 160 l 301 272 l 235 202 b 173 182 223 189 190 171 l 151 266 l 101 176 b -15 13 76 129 34 73 b -114 -99 -57 -37 -94 -79 b -160 -147 -136 -121 -151 -138 b -165 -152 -161 -150 -162 -151 l -256 -252 l -123 -222 l -92 -212 l -92 -214 b -210 -321 -108 -235 -141 -270 b -219 -328 -215 -324 -217 -325 l -418 -482 b -62 -341 -213 -411 -97 -360 b 3 -302 -41 -330 -18 -316 b 46 -272 21 -292 37 -279 b 95 -229 61 -261 80 -240 l 90 -301 l 190 -191 b 268 -97 205 -175 239 -139 b 344 56 309 -40 334 12 l 365 151 l 311 119 z m 95 85 l 239 -64 l 237 -68 b 230 -78 235 -72 233 -75 l 84 72 b 95 85 88 77 92 81 z m 111 112 l 137 85 b 136 74 136 79 135 75 b 144 78 138 74 141 76 l 256 -38 l 247 -53 l 103 97 z m 106 -167 l -9 -47 b 3 -32 -4 -43 0 -37 l 121 -154 z m 83 -187 l -29 -69 l -16 -54 l 98 -173 z m 128 -146 l 11 -24 b 22 -9 15 -19 18 -14 l 142 -134 z m 150 -125 l 30 0 l 42 14 l 158 -107 b 150 -125 156 -113 153 -120 z m 163 -97 l 48 22 l 60 37 l 171 -78 z m 176 -65 l 66 47 b 78 62 71 51 74 57 l 183 -48 z m 168 96 l 239 21 l 231 7 l 155 85 b 168 96 159 89 163 92 z m 190 115 l 253 49 l 246 34 l 178 105 z m 213 134 l 266 78 b 260 63 265 74 263 69 l 201 124 z m 36 -152 l 76 -192 b 60 -206 71 -198 65 -202 l 25 -169 b 36 -152 29 -163 33 -158 z m 36 -225 l 4 -192 l 19 -176 l 53 -212 b 36 -225 48 -216 43 -221 z m 17 -161 l -12 -131 b -2 -110 -6 -123 -3 -115 l 35 -151 z m 20 -238 l 13 -244 l -16 -212 l 0 -198 l 30 -230 z m -12 -262 l -38 -233 l -22 -218 l 6 -248 b -12 -262 1 -252 -4 -257 z m 186 -50 l 222 -89 b 212 -103 219 -93 216 -98 l 183 -73 b 186 -50 185 -64 186 -57 z m -19 -266 l -37 -278 l -60 -254 b -43 -237 -54 -249 -49 -243 l -17 -265 b -19 -266 -18 -265 -18 -265 z m -24 -119 l -49 -92 l -34 -76 l -6 -106 b -24 -119 -11 -108 -16 -113 z m 234 154 l 254 134 b 269 107 257 126 263 116 b 271 95 270 104 272 101 l 224 144 z m -47 -138 l -69 -114 l -54 -98 l -30 -124 z m -7 -177 l -28 -158 l -16 -139 l 11 -167 z m -64 -294 l -82 -274 l -65 -259 l -43 -281 z m 245 16 l 271 -12 l 264 -27 l 232 6 b 245 16 235 9 240 12 z m -71 -156 l -91 -136 l -84 -129 l -75 -120 l -53 -143 z m 179 -87 l 204 -112 l 193 -127 l 172 -106 b 179 -87 175 -99 177 -93 z m -81 -302 l -92 -309 l -106 -294 l -88 -278 l -69 -296 z m 125 140 l 145 120 l 140 101 l 118 125 z m -100 -169 l -111 -157 l -96 -141 l -77 -160 b -100 -169 -84 -162 -93 -166 z m 267 35 l 285 16 l 279 1 l 255 25 b 267 35 260 28 264 31 z m 168 -118 l 186 -136 b 174 -151 183 -141 178 -146 l 160 -137 z m -34 -193 l -45 -184 l -32 -165 l -15 -182 b -34 -193 -21 -186 -28 -190 z m -120 -323 l -129 -313 l -110 -297 l -96 -311 z m 155 -147 l 168 -159 l 156 -174 l 147 -166 z m -147 -338 l -153 -331 l -132 -316 l -124 -325 z m 288 56 l 297 47 b 292 30 296 42 294 35 l 278 45 z m 149 139 l 149 137 l 131 154 l 139 169 l 145 161 b 149 139 145 153 145 142 z m 255 175 l 261 170 l 256 154 l 245 166 z m -131 -181 l -131 -179 l -116 -162 l -107 -172 b -131 -181 -118 -175 -126 -179 z m -62 -208 l -63 -207 b -49 -189 -59 -203 -54 -197 l -42 -198 b -62 -208 -49 -202 -57 -206 z m 142 -176 l 149 -183 l 136 -198 l 132 -194 z m -175 -351 l -177 -349 l -156 -334 l -152 -340 z m -189 -358 l -181 -351 l -179 -353 z m 127 -207 b 128 -204 127 -206 128 -205 l 129 -205 b 127 -207 128 -205 127 -206 z m 301 65 l 302 65 l 302 63 l 300 65 z "}}}
